<svg width="14" height="8" viewBox="0 0 14 8" fill="none" xmlns="http://www.w3.org/2000/svg">
<path d="M0.944298 3.82937C0.749036 4.02463 0.749036 4.34121 0.944298 4.53648L4.12628 7.71846C4.32154 7.91372 4.63812 7.91372 4.83339 7.71846C5.02865 7.52319 5.02865 7.20661 4.83339 7.01135L2.00496 4.18292L4.83339 1.3545C5.02865 1.15923 5.02865 0.842651 4.83339 0.647388C4.63812 0.452126 4.32154 0.452126 4.12628 0.647388L0.944298 3.82937ZM13.2186 4.68292C13.4948 4.68292 13.7186 4.45906 13.7186 4.18292C13.7186 3.90678 13.4948 3.68292 13.2186 3.68292V4.68292ZM1.29785 4.68292H13.2186V3.68292H1.29785V4.68292Z" fill="#F7941D"/>
</svg>
