<svg width="256" height="145" viewBox="0 0 256 145" fill="none" xmlns="http://www.w3.org/2000/svg">
<path d="M167.671 8.38396C167.025 8.38396 166.428 8.23396 165.881 7.93396C165.341 7.6273 164.911 7.20396 164.591 6.66396C164.278 6.1173 164.121 5.50396 164.121 4.82396C164.121 4.14396 164.278 3.53396 164.591 2.99396C164.911 2.45396 165.341 2.03396 165.881 1.73396C166.428 1.4273 167.025 1.27396 167.671 1.27396C168.325 1.27396 168.921 1.4273 169.461 1.73396C170.008 2.03396 170.438 2.45396 170.751 2.99396C171.065 3.53396 171.221 4.14396 171.221 4.82396C171.221 5.50396 171.065 6.1173 170.751 6.66396C170.438 7.20396 170.008 7.6273 169.461 7.93396C168.921 8.23396 168.325 8.38396 167.671 8.38396ZM167.671 7.39396C168.131 7.39396 168.541 7.29063 168.901 7.08396C169.261 6.87063 169.541 6.57063 169.741 6.18396C169.948 5.79063 170.051 5.3373 170.051 4.82396C170.051 4.31063 169.948 3.86063 169.741 3.47396C169.541 3.0873 169.261 2.79063 168.901 2.58396C168.541 2.3773 168.131 2.27396 167.671 2.27396C167.211 2.27396 166.801 2.3773 166.441 2.58396C166.081 2.79063 165.798 3.0873 165.591 3.47396C165.391 3.86063 165.291 4.31063 165.291 4.82396C165.291 5.3373 165.391 5.79063 165.591 6.18396C165.798 6.57063 166.081 6.87063 166.441 7.08396C166.801 7.29063 167.211 7.39396 167.671 7.39396ZM174.473 7.29396L176.033 2.80396H177.243L175.143 8.31396H173.783L171.693 2.80396H172.913L174.473 7.29396ZM183.155 5.42396C183.155 5.63063 183.141 5.8173 183.115 5.98396H178.905C178.938 6.42396 179.101 6.7773 179.395 7.04396C179.688 7.31063 180.048 7.44396 180.475 7.44396C181.088 7.44396 181.521 7.1873 181.775 6.67396H183.005C182.838 7.18063 182.535 7.5973 182.095 7.92396C181.661 8.24396 181.121 8.40396 180.475 8.40396C179.948 8.40396 179.475 8.2873 179.055 8.05396C178.641 7.81396 178.315 7.48063 178.075 7.05396C177.841 6.62063 177.725 6.12063 177.725 5.55396C177.725 4.9873 177.838 4.49063 178.065 4.06396C178.298 3.63063 178.621 3.2973 179.035 3.06396C179.455 2.83063 179.935 2.71396 180.475 2.71396C180.995 2.71396 181.458 2.8273 181.865 3.05396C182.271 3.28063 182.588 3.60063 182.815 4.01396C183.041 4.42063 183.155 4.89063 183.155 5.42396ZM181.965 5.06396C181.958 4.64396 181.808 4.3073 181.515 4.05396C181.221 3.80063 180.858 3.67396 180.425 3.67396C180.031 3.67396 179.695 3.80063 179.415 4.05396C179.135 4.30063 178.968 4.6373 178.915 5.06396H181.965ZM185.417 3.60396C185.583 3.32396 185.803 3.1073 186.077 2.95396C186.357 2.79396 186.687 2.71396 187.067 2.71396V3.89396H186.777C186.33 3.89396 185.99 4.0073 185.757 4.23396C185.53 4.46063 185.417 4.85396 185.417 5.41396V8.31396H184.277V2.80396H185.417V3.60396ZM187.735 5.53396C187.735 4.98063 187.848 4.49063 188.075 4.06396C188.308 3.6373 188.621 3.3073 189.015 3.07396C189.415 2.83396 189.855 2.71396 190.335 2.71396C190.768 2.71396 191.145 2.80063 191.465 2.97396C191.791 3.14063 192.051 3.35063 192.245 3.60396V2.80396H193.395V8.31396H192.245V7.49396C192.051 7.75396 191.788 7.97063 191.455 8.14396C191.121 8.3173 190.741 8.40396 190.315 8.40396C189.841 8.40396 189.408 8.28396 189.015 8.04396C188.621 7.7973 188.308 7.4573 188.075 7.02396C187.848 6.58396 187.735 6.0873 187.735 5.53396ZM192.245 5.55396C192.245 5.17396 192.165 4.84396 192.005 4.56396C191.851 4.28396 191.648 4.07063 191.395 3.92396C191.141 3.7773 190.868 3.70396 190.575 3.70396C190.281 3.70396 190.008 3.7773 189.755 3.92396C189.501 4.06396 189.295 4.27396 189.135 4.55396C188.981 4.8273 188.905 5.15396 188.905 5.53396C188.905 5.91396 188.981 6.2473 189.135 6.53396C189.295 6.82063 189.501 7.04063 189.755 7.19396C190.015 7.34063 190.288 7.41396 190.575 7.41396C190.868 7.41396 191.141 7.34063 191.395 7.19396C191.648 7.0473 191.851 6.83396 192.005 6.55396C192.165 6.2673 192.245 5.93396 192.245 5.55396ZM196.032 0.913965V8.31396H194.892V0.913965H196.032ZM198.669 0.913965V8.31396H197.529V0.913965H198.669ZM206.373 8.31396L204.773 5.53396H203.903V8.31396H202.763V1.36396H205.163C205.696 1.36396 206.146 1.4573 206.513 1.64396C206.886 1.83063 207.163 2.08063 207.343 2.39396C207.53 2.7073 207.623 3.0573 207.623 3.44396C207.623 3.8973 207.49 4.31063 207.223 4.68396C206.963 5.05063 206.56 5.30063 206.013 5.43396L207.733 8.31396H206.373ZM203.903 4.62396H205.163C205.59 4.62396 205.91 4.5173 206.123 4.30396C206.343 4.09063 206.453 3.80396 206.453 3.44396C206.453 3.08396 206.346 2.80396 206.133 2.60396C205.92 2.3973 205.596 2.29396 205.163 2.29396H203.903V4.62396ZM208.701 5.53396C208.701 4.98063 208.815 4.49063 209.041 4.06396C209.275 3.6373 209.588 3.3073 209.981 3.07396C210.381 2.83396 210.821 2.71396 211.301 2.71396C211.735 2.71396 212.111 2.80063 212.431 2.97396C212.758 3.14063 213.018 3.35063 213.211 3.60396V2.80396H214.361V8.31396H213.211V7.49396C213.018 7.75396 212.755 7.97063 212.421 8.14396C212.088 8.3173 211.708 8.40396 211.281 8.40396C210.808 8.40396 210.375 8.28396 209.981 8.04396C209.588 7.7973 209.275 7.4573 209.041 7.02396C208.815 6.58396 208.701 6.0873 208.701 5.53396ZM213.211 5.55396C213.211 5.17396 213.131 4.84396 212.971 4.56396C212.818 4.28396 212.615 4.07063 212.361 3.92396C212.108 3.7773 211.835 3.70396 211.541 3.70396C211.248 3.70396 210.975 3.7773 210.721 3.92396C210.468 4.06396 210.261 4.27396 210.101 4.55396C209.948 4.8273 209.871 5.15396 209.871 5.53396C209.871 5.91396 209.948 6.2473 210.101 6.53396C210.261 6.82063 210.468 7.04063 210.721 7.19396C210.981 7.34063 211.255 7.41396 211.541 7.41396C211.835 7.41396 212.108 7.34063 212.361 7.19396C212.615 7.0473 212.818 6.83396 212.971 6.55396C213.131 6.2673 213.211 5.93396 213.211 5.55396ZM217.189 3.73396V6.78396C217.189 6.99063 217.235 7.14063 217.329 7.23396C217.429 7.32063 217.595 7.36396 217.829 7.36396H218.529V8.31396H217.629C217.115 8.31396 216.722 8.19396 216.449 7.95396C216.175 7.71396 216.039 7.32396 216.039 6.78396V3.73396H215.389V2.80396H216.039V1.43396H217.189V2.80396H218.529V3.73396H217.189ZM220.159 2.07396C219.953 2.07396 219.779 2.00396 219.639 1.86396C219.499 1.72396 219.429 1.55063 219.429 1.34396C219.429 1.1373 219.499 0.963965 219.639 0.823965C219.779 0.683965 219.953 0.613964 220.159 0.613964C220.359 0.613964 220.529 0.683965 220.669 0.823965C220.809 0.963965 220.879 1.1373 220.879 1.34396C220.879 1.55063 220.809 1.72396 220.669 1.86396C220.529 2.00396 220.359 2.07396 220.159 2.07396ZM220.719 2.80396V8.31396H219.579V2.80396H220.719ZM224.996 2.71396C225.429 2.71396 225.816 2.80396 226.156 2.98396C226.503 3.16396 226.773 3.43063 226.966 3.78396C227.159 4.1373 227.256 4.56396 227.256 5.06396V8.31396H226.126V5.23396C226.126 4.74063 226.003 4.36396 225.756 4.10396C225.509 3.8373 225.173 3.70396 224.746 3.70396C224.319 3.70396 223.979 3.8373 223.726 4.10396C223.479 4.36396 223.356 4.74063 223.356 5.23396V8.31396H222.216V2.80396H223.356V3.43396C223.543 3.2073 223.779 3.03063 224.066 2.90396C224.359 2.7773 224.669 2.71396 224.996 2.71396ZM230.93 2.71396C231.357 2.71396 231.734 2.80063 232.06 2.97396C232.394 3.14063 232.654 3.35063 232.84 3.60396V2.80396H233.99V8.40396C233.99 8.91063 233.884 9.36063 233.67 9.75396C233.457 10.154 233.147 10.4673 232.74 10.694C232.34 10.9206 231.86 11.034 231.3 11.034C230.554 11.034 229.934 10.8573 229.44 10.504C228.947 10.1573 228.667 9.68396 228.6 9.08396H229.73C229.817 9.37063 230 9.60063 230.28 9.77396C230.567 9.95396 230.907 10.044 231.3 10.044C231.76 10.044 232.13 9.90396 232.41 9.62396C232.697 9.34396 232.84 8.9373 232.84 8.40396V7.48396C232.647 7.74396 232.384 7.96396 232.05 8.14396C231.724 8.3173 231.35 8.40396 230.93 8.40396C230.45 8.40396 230.01 8.28396 229.61 8.04396C229.217 7.7973 228.904 7.4573 228.67 7.02396C228.444 6.58396 228.33 6.0873 228.33 5.53396C228.33 4.98063 228.444 4.49063 228.67 4.06396C228.904 3.6373 229.217 3.3073 229.61 3.07396C230.01 2.83396 230.45 2.71396 230.93 2.71396ZM232.84 5.55396C232.84 5.17396 232.76 4.84396 232.6 4.56396C232.447 4.28396 232.244 4.07063 231.99 3.92396C231.737 3.7773 231.464 3.70396 231.17 3.70396C230.877 3.70396 230.604 3.7773 230.35 3.92396C230.097 4.06396 229.89 4.27396 229.73 4.55396C229.577 4.8273 229.5 5.15396 229.5 5.53396C229.5 5.91396 229.577 6.2473 229.73 6.53396C229.89 6.82063 230.097 7.04063 230.35 7.19396C230.61 7.34063 230.884 7.41396 231.17 7.41396C231.464 7.41396 231.737 7.34063 231.99 7.19396C232.244 7.0473 232.447 6.83396 232.6 6.55396C232.76 6.2673 232.84 5.93396 232.84 5.55396ZM235.948 8.38396C235.741 8.38396 235.568 8.31396 235.428 8.17396C235.288 8.03396 235.218 7.86063 235.218 7.65396C235.218 7.4473 235.288 7.27396 235.428 7.13396C235.568 6.99396 235.741 6.92396 235.948 6.92396C236.148 6.92396 236.318 6.99396 236.458 7.13396C236.598 7.27396 236.668 7.4473 236.668 7.65396C236.668 7.86063 236.598 8.03396 236.458 8.17396C236.318 8.31396 236.148 8.38396 235.948 8.38396ZM235.948 4.18396C235.741 4.18396 235.568 4.11396 235.428 3.97396C235.288 3.83396 235.218 3.66063 235.218 3.45396C235.218 3.2473 235.288 3.07396 235.428 2.93396C235.568 2.79396 235.741 2.72396 235.948 2.72396C236.148 2.72396 236.318 2.79396 236.458 2.93396C236.598 3.07396 236.668 3.2473 236.668 3.45396C236.668 3.66063 236.598 3.83396 236.458 3.97396C236.318 4.11396 236.148 4.18396 235.948 4.18396ZM241.016 6.76396C241.656 6.21063 242.16 5.7573 242.526 5.40396C242.9 5.04396 243.21 4.67063 243.456 4.28396C243.703 3.8973 243.826 3.51063 243.826 3.12396C243.826 2.72396 243.73 2.41063 243.536 2.18396C243.35 1.9573 243.053 1.84396 242.646 1.84396C242.253 1.84396 241.946 1.97063 241.726 2.22396C241.513 2.47063 241.4 2.80396 241.386 3.22396H240.286C240.306 2.46396 240.533 1.88396 240.966 1.48396C241.406 1.0773 241.963 0.873965 242.636 0.873965C243.363 0.873965 243.93 1.07396 244.336 1.47396C244.75 1.87396 244.956 2.4073 244.956 3.07396C244.956 3.55396 244.833 4.0173 244.586 4.46396C244.346 4.90396 244.056 5.30063 243.716 5.65396C243.383 6.00063 242.956 6.40396 242.436 6.86396L241.986 7.26396H245.156V8.21396H240.296V7.38396L241.016 6.76396ZM246.158 4.57396C246.158 3.42063 246.351 2.52063 246.738 1.87396C247.131 1.22063 247.805 0.893964 248.758 0.893964C249.711 0.893964 250.381 1.22063 250.768 1.87396C251.161 2.52063 251.358 3.42063 251.358 4.57396C251.358 5.74063 251.161 6.65396 250.768 7.31396C250.381 7.9673 249.711 8.29396 248.758 8.29396C247.805 8.29396 247.131 7.9673 246.738 7.31396C246.351 6.65396 246.158 5.74063 246.158 4.57396ZM250.238 4.57396C250.238 4.03396 250.201 3.5773 250.128 3.20396C250.061 2.83063 249.921 2.5273 249.708 2.29396C249.495 2.05396 249.178 1.93396 248.758 1.93396C248.338 1.93396 248.021 2.05396 247.808 2.29396C247.595 2.5273 247.451 2.83063 247.378 3.20396C247.311 3.5773 247.278 4.03396 247.278 4.57396C247.278 5.13396 247.311 5.60396 247.378 5.98396C247.445 6.36396 247.585 6.67063 247.798 6.90396C248.018 7.1373 248.338 7.25396 248.758 7.25396C249.178 7.25396 249.495 7.1373 249.708 6.90396C249.928 6.67063 250.071 6.36396 250.138 5.98396C250.205 5.60396 250.238 5.13396 250.238 4.57396Z" fill="#555555"/>
<path d="M2.81358 1.36396V8.31396H1.67358V1.36396H2.81358ZM8.8003 1.36396V2.29396H6.9503V8.31396H5.8103V2.29396H3.9503V1.36396H8.8003ZM12.2448 8.38396C11.7782 8.38396 11.3582 8.30396 10.9848 8.14396C10.6115 7.9773 10.3182 7.74396 10.1048 7.44396C9.8915 7.14396 9.78483 6.79396 9.78483 6.39396H11.0048C11.0315 6.69396 11.1482 6.94063 11.3548 7.13396C11.5682 7.3273 11.8648 7.42396 12.2448 7.42396C12.6382 7.42396 12.9448 7.33063 13.1648 7.14396C13.3848 6.95063 13.4948 6.70396 13.4948 6.40396C13.4948 6.17063 13.4248 5.98063 13.2848 5.83396C13.1515 5.6873 12.9815 5.57396 12.7748 5.49396C12.5748 5.41396 12.2948 5.3273 11.9348 5.23396C11.4815 5.11396 11.1115 4.99396 10.8248 4.87396C10.5448 4.7473 10.3048 4.55396 10.1048 4.29396C9.90483 4.03396 9.80483 3.6873 9.80483 3.25396C9.80483 2.85396 9.90483 2.50396 10.1048 2.20396C10.3048 1.90396 10.5848 1.67396 10.9448 1.51396C11.3048 1.35396 11.7215 1.27396 12.1948 1.27396C12.8682 1.27396 13.4182 1.44396 13.8448 1.78396C14.2782 2.1173 14.5182 2.5773 14.5648 3.16396H13.3048C13.2848 2.91063 13.1648 2.69396 12.9448 2.51396C12.7248 2.33396 12.4348 2.24396 12.0748 2.24396C11.7482 2.24396 11.4815 2.3273 11.2748 2.49396C11.0682 2.66063 10.9648 2.90063 10.9648 3.21396C10.9648 3.4273 11.0282 3.60396 11.1548 3.74396C11.2882 3.8773 11.4548 3.98396 11.6548 4.06396C11.8548 4.14396 12.1282 4.23063 12.4748 4.32396C12.9348 4.45063 13.3082 4.5773 13.5948 4.70396C13.8882 4.83063 14.1348 5.0273 14.3348 5.29396C14.5415 5.55396 14.6448 5.90396 14.6448 6.34396C14.6448 6.6973 14.5482 7.03063 14.3548 7.34396C14.1682 7.6573 13.8915 7.91063 13.5248 8.10396C13.1648 8.29063 12.7382 8.38396 12.2448 8.38396ZM23.31 1.36396V8.31396H22.17V3.55396L20.05 8.31396H19.26L17.13 3.55396V8.31396H15.99V1.36396H17.22L19.66 6.81396L22.09 1.36396H23.31ZM31.016 8.31396L29.416 5.53396H28.546V8.31396H27.406V1.36396H29.806C30.3393 1.36396 30.7893 1.4573 31.156 1.64396C31.5293 1.83063 31.806 2.08063 31.986 2.39396C32.1727 2.7073 32.266 3.0573 32.266 3.44396C32.266 3.8973 32.1327 4.31063 31.866 4.68396C31.606 5.05063 31.2027 5.30063 30.656 5.43396L32.376 8.31396H31.016ZM28.546 4.62396H29.806C30.2327 4.62396 30.5527 4.5173 30.766 4.30396C30.986 4.09063 31.096 3.80396 31.096 3.44396C31.096 3.08396 30.9893 2.80396 30.776 2.60396C30.5627 2.3973 30.2393 2.29396 29.806 2.29396H28.546V4.62396ZM33.3444 5.53396C33.3444 4.98063 33.4577 4.49063 33.6844 4.06396C33.9177 3.6373 34.231 3.3073 34.6244 3.07396C35.0244 2.83396 35.4644 2.71396 35.9444 2.71396C36.3777 2.71396 36.7544 2.80063 37.0744 2.97396C37.401 3.14063 37.661 3.35063 37.8544 3.60396V2.80396H39.0044V8.31396H37.8544V7.49396C37.661 7.75396 37.3977 7.97063 37.0644 8.14396C36.731 8.3173 36.351 8.40396 35.9244 8.40396C35.451 8.40396 35.0177 8.28396 34.6244 8.04396C34.231 7.7973 33.9177 7.4573 33.6844 7.02396C33.4577 6.58396 33.3444 6.0873 33.3444 5.53396ZM37.8544 5.55396C37.8544 5.17396 37.7744 4.84396 37.6144 4.56396C37.461 4.28396 37.2577 4.07063 37.0044 3.92396C36.751 3.7773 36.4777 3.70396 36.1844 3.70396C35.891 3.70396 35.6177 3.7773 35.3644 3.92396C35.111 4.06396 34.9044 4.27396 34.7444 4.55396C34.591 4.8273 34.5144 5.15396 34.5144 5.53396C34.5144 5.91396 34.591 6.2473 34.7444 6.53396C34.9044 6.82063 35.111 7.04063 35.3644 7.19396C35.6244 7.34063 35.8977 7.41396 36.1844 7.41396C36.4777 7.41396 36.751 7.34063 37.0044 7.19396C37.2577 7.0473 37.461 6.83396 37.6144 6.55396C37.7744 6.2673 37.8544 5.93396 37.8544 5.55396ZM41.8317 3.73396V6.78396C41.8317 6.99063 41.8784 7.14063 41.9717 7.23396C42.0717 7.32063 42.2384 7.36396 42.4717 7.36396H43.1717V8.31396H42.2717C41.7584 8.31396 41.365 8.19396 41.0917 7.95396C40.8184 7.71396 40.6817 7.32396 40.6817 6.78396V3.73396H40.0317V2.80396H40.6817V1.43396H41.8317V2.80396H43.1717V3.73396H41.8317ZM44.8024 2.07396C44.5957 2.07396 44.4224 2.00396 44.2824 1.86396C44.1424 1.72396 44.0724 1.55063 44.0724 1.34396C44.0724 1.1373 44.1424 0.963965 44.2824 0.823965C44.4224 0.683965 44.5957 0.613964 44.8024 0.613964C45.0024 0.613964 45.1724 0.683965 45.3124 0.823965C45.4524 0.963965 45.5224 1.1373 45.5224 1.34396C45.5224 1.55063 45.4524 1.72396 45.3124 1.86396C45.1724 2.00396 45.0024 2.07396 44.8024 2.07396ZM45.3624 2.80396V8.31396H44.2224V2.80396H45.3624ZM49.6391 2.71396C50.0725 2.71396 50.4591 2.80396 50.7991 2.98396C51.1458 3.16396 51.4158 3.43063 51.6091 3.78396C51.8025 4.1373 51.8991 4.56396 51.8991 5.06396V8.31396H50.7691V5.23396C50.7691 4.74063 50.6458 4.36396 50.3991 4.10396C50.1525 3.8373 49.8158 3.70396 49.3891 3.70396C48.9625 3.70396 48.6225 3.8373 48.3691 4.10396C48.1225 4.36396 47.9991 4.74063 47.9991 5.23396V8.31396H46.8591V2.80396H47.9991V3.43396C48.1858 3.2073 48.4225 3.03063 48.7091 2.90396C49.0025 2.7773 49.3125 2.71396 49.6391 2.71396ZM55.5733 2.71396C55.9999 2.71396 56.3766 2.80063 56.7033 2.97396C57.0366 3.14063 57.2966 3.35063 57.4833 3.60396V2.80396H58.6333V8.40396C58.6333 8.91063 58.5266 9.36063 58.3133 9.75396C58.0999 10.154 57.7899 10.4673 57.3833 10.694C56.9833 10.9206 56.5033 11.034 55.9433 11.034C55.1966 11.034 54.5766 10.8573 54.0833 10.504C53.5899 10.1573 53.3099 9.68396 53.2433 9.08396H54.3733C54.4599 9.37063 54.6433 9.60063 54.9233 9.77396C55.2099 9.95396 55.5499 10.044 55.9433 10.044C56.4033 10.044 56.7733 9.90396 57.0533 9.62396C57.3399 9.34396 57.4833 8.9373 57.4833 8.40396V7.48396C57.2899 7.74396 57.0266 7.96396 56.6933 8.14396C56.3666 8.3173 55.9933 8.40396 55.5733 8.40396C55.0933 8.40396 54.6533 8.28396 54.2533 8.04396C53.8599 7.7973 53.5466 7.4573 53.3133 7.02396C53.0866 6.58396 52.9733 6.0873 52.9733 5.53396C52.9733 4.98063 53.0866 4.49063 53.3133 4.06396C53.5466 3.6373 53.8599 3.3073 54.2533 3.07396C54.6533 2.83396 55.0933 2.71396 55.5733 2.71396ZM57.4833 5.55396C57.4833 5.17396 57.4033 4.84396 57.2433 4.56396C57.0899 4.28396 56.8866 4.07063 56.6333 3.92396C56.3799 3.7773 56.1066 3.70396 55.8133 3.70396C55.5199 3.70396 55.2466 3.7773 54.9933 3.92396C54.7399 4.06396 54.5333 4.27396 54.3733 4.55396C54.2199 4.8273 54.1433 5.15396 54.1433 5.53396C54.1433 5.91396 54.2199 6.2473 54.3733 6.53396C54.5333 6.82063 54.7399 7.04063 54.9933 7.19396C55.2533 7.34063 55.5266 7.41396 55.8133 7.41396C56.1066 7.41396 56.3799 7.34063 56.6333 7.19396C56.8866 7.0473 57.0899 6.83396 57.2433 6.55396C57.4033 6.2673 57.4833 5.93396 57.4833 5.55396Z" fill="#555555"/>
<path d="M6.80067 32.242H2.78067V34.63C2.94867 34.406 3.19667 34.218 3.52467 34.066C3.86067 33.914 4.21667 33.838 4.59267 33.838C5.26467 33.838 5.80867 33.982 6.22467 34.27C6.64867 34.558 6.94867 34.922 7.12467 35.362C7.30867 35.802 7.40067 36.266 7.40067 36.754C7.40067 37.346 7.28467 37.874 7.05267 38.338C6.82867 38.794 6.48867 39.154 6.03267 39.418C5.58467 39.682 5.03267 39.814 4.37667 39.814C3.50467 39.814 2.80467 39.598 2.27667 39.166C1.74867 38.734 1.43267 38.162 1.32867 37.45H2.66067C2.74867 37.826 2.94467 38.126 3.24867 38.35C3.55267 38.566 3.93267 38.674 4.38867 38.674C4.95667 38.674 5.38067 38.502 5.66067 38.158C5.94867 37.814 6.09267 37.358 6.09267 36.79C6.09267 36.214 5.94867 35.774 5.66067 35.47C5.37267 35.158 4.94867 35.002 4.38867 35.002C3.99667 35.002 3.66467 35.102 3.39267 35.302C3.12867 35.494 2.93667 35.758 2.81667 36.094H1.52067V31.042H6.80067V32.242ZM14.8699 39.898C14.3099 39.898 13.8059 39.802 13.3579 39.61C12.9099 39.41 12.5579 39.13 12.3019 38.77C12.0459 38.41 11.9179 37.99 11.9179 37.51H13.3819C13.4139 37.87 13.5539 38.166 13.8019 38.398C14.0579 38.63 14.4139 38.746 14.8699 38.746C15.3419 38.746 15.7099 38.634 15.9739 38.41C16.2379 38.178 16.3699 37.882 16.3699 37.522C16.3699 37.242 16.2859 37.014 16.1179 36.838C15.9579 36.662 15.7539 36.526 15.5059 36.43C15.2659 36.334 14.9299 36.23 14.4979 36.118C13.9539 35.974 13.5099 35.83 13.1659 35.686C12.8299 35.534 12.5419 35.302 12.3019 34.99C12.0619 34.678 11.9419 34.262 11.9419 33.742C11.9419 33.262 12.0619 32.842 12.3019 32.482C12.5419 32.122 12.8779 31.846 13.3099 31.654C13.7419 31.462 14.2419 31.366 14.8099 31.366C15.6179 31.366 16.2779 31.57 16.7899 31.978C17.3099 32.378 17.5979 32.93 17.6539 33.634H16.1419C16.1179 33.33 15.9739 33.07 15.7099 32.854C15.4459 32.638 15.0979 32.53 14.6659 32.53C14.2739 32.53 13.9539 32.63 13.7059 32.83C13.4579 33.03 13.3339 33.318 13.3339 33.694C13.3339 33.95 13.4099 34.162 13.5619 34.33C13.7219 34.49 13.9219 34.618 14.1619 34.714C14.4019 34.81 14.7299 34.914 15.1459 35.026C15.6979 35.178 16.1459 35.33 16.4899 35.482C16.8419 35.634 17.1379 35.87 17.3779 36.19C17.6259 36.502 17.7499 36.922 17.7499 37.45C17.7499 37.874 17.6339 38.274 17.4019 38.65C17.1779 39.026 16.8459 39.33 16.4059 39.562C15.9739 39.786 15.4619 39.898 14.8699 39.898ZM20.9601 34.318V37.978C20.9601 38.226 21.0161 38.406 21.1281 38.518C21.2481 38.622 21.4481 38.674 21.7281 38.674H22.5681V39.814H21.4881C20.8721 39.814 20.4001 39.67 20.0721 39.382C19.7441 39.094 19.5801 38.626 19.5801 37.978V34.318H18.8001V33.202H19.5801V31.558H20.9601V33.202H22.5681V34.318H20.9601ZM23.373 36.478C23.373 35.814 23.509 35.226 23.781 34.714C24.061 34.202 24.437 33.806 24.909 33.526C25.389 33.238 25.917 33.094 26.493 33.094C27.013 33.094 27.465 33.198 27.849 33.406C28.241 33.606 28.553 33.858 28.785 34.162V33.202H30.165V39.814H28.785V38.83C28.553 39.142 28.237 39.402 27.837 39.61C27.437 39.818 26.981 39.922 26.469 39.922C25.901 39.922 25.381 39.778 24.909 39.49C24.437 39.194 24.061 38.786 23.781 38.266C23.509 37.738 23.373 37.142 23.373 36.478ZM28.785 36.502C28.785 36.046 28.689 35.65 28.497 35.314C28.313 34.978 28.069 34.722 27.765 34.546C27.461 34.37 27.133 34.282 26.781 34.282C26.429 34.282 26.101 34.37 25.797 34.546C25.493 34.714 25.245 34.966 25.053 35.302C24.869 35.63 24.777 36.022 24.777 36.478C24.777 36.934 24.869 37.334 25.053 37.678C25.245 38.022 25.493 38.286 25.797 38.47C26.109 38.646 26.437 38.734 26.781 38.734C27.133 38.734 27.461 38.646 27.765 38.47C28.069 38.294 28.313 38.038 28.497 37.702C28.689 37.358 28.785 36.958 28.785 36.502ZM33.3298 34.162C33.5298 33.826 33.7938 33.566 34.1218 33.382C34.4578 33.19 34.8538 33.094 35.3098 33.094V34.51H34.9618C34.4258 34.51 34.0178 34.646 33.7378 34.918C33.4658 35.19 33.3298 35.662 33.3298 36.334V39.814H31.9618V33.202H33.3298V34.162Z" fill="#555555"/>
<path d="M239.599 32.314V31.066H242.095V39.814H240.715V32.314H239.599ZM243.974 35.326C243.974 33.942 244.206 32.862 244.67 32.086C245.142 31.302 245.95 30.91 247.094 30.91C248.238 30.91 249.042 31.302 249.506 32.086C249.978 32.862 250.214 33.942 250.214 35.326C250.214 36.726 249.978 37.822 249.506 38.614C249.042 39.398 248.238 39.79 247.094 39.79C245.95 39.79 245.142 39.398 244.67 38.614C244.206 37.822 243.974 36.726 243.974 35.326ZM248.87 35.326C248.87 34.678 248.826 34.13 248.738 33.682C248.658 33.234 248.49 32.87 248.234 32.59C247.978 32.302 247.598 32.158 247.094 32.158C246.59 32.158 246.21 32.302 245.954 32.59C245.698 32.87 245.526 33.234 245.438 33.682C245.358 34.13 245.318 34.678 245.318 35.326C245.318 35.998 245.358 36.562 245.438 37.018C245.518 37.474 245.686 37.842 245.942 38.122C246.206 38.402 246.59 38.542 247.094 38.542C247.598 38.542 247.978 38.402 248.234 38.122C248.498 37.842 248.67 37.474 248.75 37.018C248.83 36.562 248.87 35.998 248.87 35.326Z" fill="#555555"/>
<path d="M65.9151 28.1774C65.9885 28.0287 66.2005 28.0287 66.2738 28.1774L68.2521 32.1859C68.2813 32.2449 68.3376 32.2858 68.4027 32.2953L72.8264 32.9381C72.9904 32.9619 73.0559 33.1635 72.9372 33.2792L69.7362 36.3994C69.6891 36.4453 69.6676 36.5115 69.6787 36.5764L70.4344 40.9822C70.4624 41.1456 70.2909 41.2702 70.1442 41.193L66.1876 39.1129C66.1293 39.0823 66.0597 39.0823 66.0014 39.1129L62.0448 41.193C61.8981 41.2702 61.7266 41.1456 61.7546 40.9822L62.5102 36.5764C62.5214 36.5115 62.4999 36.4453 62.4527 36.3994L59.2517 33.2792C59.133 33.1635 59.1985 32.9619 59.3626 32.9381L63.7862 32.2953C63.8514 32.2858 63.9077 32.2449 63.9368 32.1859L65.9151 28.1774Z" fill="#F7941D"/>
<path d="M85.3722 28.1774C85.4455 28.0287 85.6575 28.0287 85.7309 28.1774L87.7092 32.1859C87.7383 32.2449 87.7946 32.2858 87.8598 32.2953L92.2834 32.9381C92.4474 32.9619 92.513 33.1635 92.3942 33.2792L89.1933 36.3994C89.1461 36.4453 89.1246 36.5115 89.1357 36.5764L89.8914 40.9822C89.9194 41.1456 89.7479 41.2702 89.6012 41.193L85.6446 39.1129C85.5863 39.0823 85.5167 39.0823 85.4584 39.1129L81.5018 41.193C81.3551 41.2702 81.1836 41.1456 81.2116 40.9822L81.9673 36.5764C81.9784 36.5115 81.9569 36.4453 81.9098 36.3994L78.7088 33.2792C78.5901 33.1635 78.6556 32.9619 78.8196 32.9381L83.2433 32.2953C83.3084 32.2858 83.3647 32.2449 83.3939 32.1859L85.3722 28.1774Z" fill="#F7941D"/>
<path d="M104.828 28.1774C104.902 28.0287 105.114 28.0287 105.187 28.1774L107.165 32.1859C107.194 32.2449 107.251 32.2858 107.316 32.2953L111.739 32.9381C111.904 32.9619 111.969 33.1635 111.85 33.2792L108.649 36.3994C108.602 36.4453 108.581 36.5115 108.592 36.5764L109.347 40.9822C109.375 41.1456 109.204 41.2702 109.057 41.193L105.101 39.1129C105.042 39.0823 104.973 39.0823 104.915 39.1129L100.958 41.193C100.811 41.2702 100.64 41.1456 100.668 40.9822L101.423 36.5764C101.434 36.5115 101.413 36.4453 101.366 36.3994L98.1648 33.2792C98.0461 33.1635 98.1116 32.9619 98.2757 32.9381L102.699 32.2953C102.764 32.2858 102.821 32.2449 102.85 32.1859L104.828 28.1774Z" fill="#F7941D"/>
<path d="M124.285 28.1774C124.359 28.0287 124.571 28.0287 124.644 28.1774L126.622 32.1859C126.652 32.2449 126.708 32.2858 126.773 32.2953L131.197 32.9381C131.361 32.9619 131.426 33.1635 131.307 33.2792L128.107 36.3994C128.059 36.4453 128.038 36.5115 128.049 36.5764L128.805 40.9822C128.833 41.1456 128.661 41.2702 128.514 41.193L124.558 39.1129C124.5 39.0823 124.43 39.0823 124.372 39.1129L120.415 41.193C120.268 41.2702 120.097 41.1456 120.125 40.9822L120.881 36.5764C120.892 36.5115 120.87 36.4453 120.823 36.3994L117.622 33.2792C117.503 33.1635 117.569 32.9619 117.733 32.9381L122.157 32.2953C122.222 32.2858 122.278 32.2449 122.307 32.1859L124.285 28.1774Z" fill="#F7941D"/>
<path d="M143.742 28.1774C143.816 28.0287 144.028 28.0287 144.101 28.1774L146.079 32.1859C146.108 32.2449 146.165 32.2858 146.23 32.2953L150.653 32.9381C150.817 32.9619 150.883 33.1635 150.764 33.2792L147.563 36.3994C147.516 36.4453 147.495 36.5115 147.506 36.5764L148.261 40.9822C148.289 41.1456 148.118 41.2702 147.971 41.193L144.015 39.1129C143.956 39.0823 143.887 39.0823 143.828 39.1129L139.872 41.193C139.725 41.2702 139.554 41.1456 139.582 40.9822L140.337 36.5764C140.348 36.5115 140.327 36.4453 140.28 36.3994L137.079 33.2792C136.96 33.1635 137.026 32.9619 137.19 32.9381L141.613 32.2953C141.678 32.2858 141.735 32.2449 141.764 32.1859L143.742 28.1774Z" fill="#F7941D"/>
<line x1="163.104" y1="35.4307" x2="229.485" y2="35.4307" stroke="#E6E6E6" stroke-width="4" stroke-linecap="round"/>
<path d="M0.992674 78.99V77.958L5.02467 72.174H6.68067V77.802H7.79667V78.99H6.68067V80.814H5.33667V78.99H0.992674ZM5.39667 73.566L2.56467 77.802H5.39667V73.566ZM14.9754 80.898C14.4154 80.898 13.9114 80.802 13.4634 80.61C13.0154 80.41 12.6634 80.13 12.4074 79.77C12.1514 79.41 12.0234 78.99 12.0234 78.51H13.4874C13.5194 78.87 13.6594 79.166 13.9074 79.398C14.1634 79.63 14.5194 79.746 14.9754 79.746C15.4474 79.746 15.8154 79.634 16.0794 79.41C16.3434 79.178 16.4754 78.882 16.4754 78.522C16.4754 78.242 16.3914 78.014 16.2234 77.838C16.0634 77.662 15.8594 77.526 15.6114 77.43C15.3714 77.334 15.0354 77.23 14.6034 77.118C14.0594 76.974 13.6154 76.83 13.2714 76.686C12.9354 76.534 12.6474 76.302 12.4074 75.99C12.1674 75.678 12.0474 75.262 12.0474 74.742C12.0474 74.262 12.1674 73.842 12.4074 73.482C12.6474 73.122 12.9834 72.846 13.4154 72.654C13.8474 72.462 14.3474 72.366 14.9154 72.366C15.7234 72.366 16.3834 72.57 16.8954 72.978C17.4154 73.378 17.7034 73.93 17.7594 74.634H16.2474C16.2234 74.33 16.0794 74.07 15.8154 73.854C15.5514 73.638 15.2034 73.53 14.7714 73.53C14.3794 73.53 14.0594 73.63 13.8114 73.83C13.5634 74.03 13.4394 74.318 13.4394 74.694C13.4394 74.95 13.5154 75.162 13.6674 75.33C13.8274 75.49 14.0274 75.618 14.2674 75.714C14.5074 75.81 14.8354 75.914 15.2514 76.026C15.8034 76.178 16.2514 76.33 16.5954 76.482C16.9474 76.634 17.2434 76.87 17.4834 77.19C17.7314 77.502 17.8554 77.922 17.8554 78.45C17.8554 78.874 17.7394 79.274 17.5074 79.65C17.2834 80.026 16.9514 80.33 16.5114 80.562C16.0794 80.786 15.5674 80.898 14.9754 80.898ZM21.0656 75.318V78.978C21.0656 79.226 21.1216 79.406 21.2336 79.518C21.3536 79.622 21.5536 79.674 21.8336 79.674H22.6736V80.814H21.5936C20.9776 80.814 20.5056 80.67 20.1776 80.382C19.8496 80.094 19.6856 79.626 19.6856 78.978V75.318H18.9056V74.202H19.6856V72.558H21.0656V74.202H22.6736V75.318H21.0656ZM23.4784 77.478C23.4784 76.814 23.6144 76.226 23.8864 75.714C24.1664 75.202 24.5424 74.806 25.0144 74.526C25.4944 74.238 26.0224 74.094 26.5984 74.094C27.1184 74.094 27.5704 74.198 27.9544 74.406C28.3464 74.606 28.6584 74.858 28.8904 75.162V74.202H30.2704V80.814H28.8904V79.83C28.6584 80.142 28.3424 80.402 27.9424 80.61C27.5424 80.818 27.0864 80.922 26.5744 80.922C26.0064 80.922 25.4864 80.778 25.0144 80.49C24.5424 80.194 24.1664 79.786 23.8864 79.266C23.6144 78.738 23.4784 78.142 23.4784 77.478ZM28.8904 77.502C28.8904 77.046 28.7944 76.65 28.6024 76.314C28.4184 75.978 28.1744 75.722 27.8704 75.546C27.5664 75.37 27.2384 75.282 26.8864 75.282C26.5344 75.282 26.2064 75.37 25.9024 75.546C25.5984 75.714 25.3504 75.966 25.1584 76.302C24.9744 76.63 24.8824 77.022 24.8824 77.478C24.8824 77.934 24.9744 78.334 25.1584 78.678C25.3504 79.022 25.5984 79.286 25.9024 79.47C26.2144 79.646 26.5424 79.734 26.8864 79.734C27.2384 79.734 27.5664 79.646 27.8704 79.47C28.1744 79.294 28.4184 79.038 28.6024 78.702C28.7944 78.358 28.8904 77.958 28.8904 77.502ZM33.4352 75.162C33.6352 74.826 33.8992 74.566 34.2272 74.382C34.5632 74.19 34.9592 74.094 35.4152 74.094V75.51H35.0672C34.5312 75.51 34.1232 75.646 33.8432 75.918C33.5712 76.19 33.4352 76.662 33.4352 77.334V80.814H32.0672V74.202H33.4352V75.162Z" fill="#555555"/>
<path d="M239.779 76.326C239.779 74.942 240.011 73.862 240.475 73.086C240.947 72.302 241.755 71.91 242.899 71.91C244.043 71.91 244.847 72.302 245.311 73.086C245.783 73.862 246.019 74.942 246.019 76.326C246.019 77.726 245.783 78.822 245.311 79.614C244.847 80.398 244.043 80.79 242.899 80.79C241.755 80.79 240.947 80.398 240.475 79.614C240.011 78.822 239.779 77.726 239.779 76.326ZM244.675 76.326C244.675 75.678 244.631 75.13 244.543 74.682C244.463 74.234 244.295 73.87 244.039 73.59C243.783 73.302 243.403 73.158 242.899 73.158C242.395 73.158 242.015 73.302 241.759 73.59C241.503 73.87 241.331 74.234 241.243 74.682C241.163 75.13 241.123 75.678 241.123 76.326C241.123 76.998 241.163 77.562 241.243 78.018C241.323 78.474 241.491 78.842 241.747 79.122C242.011 79.402 242.395 79.542 242.899 79.542C243.403 79.542 243.783 79.402 244.039 79.122C244.303 78.842 244.475 78.474 244.555 78.018C244.635 77.562 244.675 76.998 244.675 76.326ZM253.106 73.242H249.086V75.63C249.254 75.406 249.502 75.218 249.83 75.066C250.166 74.914 250.522 74.838 250.898 74.838C251.57 74.838 252.114 74.982 252.53 75.27C252.954 75.558 253.254 75.922 253.43 76.362C253.614 76.802 253.706 77.266 253.706 77.754C253.706 78.346 253.59 78.874 253.358 79.338C253.134 79.794 252.794 80.154 252.338 80.418C251.89 80.682 251.338 80.814 250.682 80.814C249.81 80.814 249.11 80.598 248.582 80.166C248.054 79.734 247.738 79.162 247.634 78.45H248.966C249.054 78.826 249.25 79.126 249.554 79.35C249.858 79.566 250.238 79.674 250.694 79.674C251.262 79.674 251.686 79.502 251.966 79.158C252.254 78.814 252.398 78.358 252.398 77.79C252.398 77.214 252.254 76.774 251.966 76.47C251.678 76.158 251.254 76.002 250.694 76.002C250.302 76.002 249.97 76.102 249.698 76.302C249.434 76.494 249.242 76.758 249.122 77.094H247.826V72.042H253.106V73.242Z" fill="#555555"/>
<path d="M65.9151 69.1774C65.9885 69.0287 66.2005 69.0287 66.2738 69.1774L68.2521 73.1859C68.2813 73.2449 68.3376 73.2858 68.4027 73.2953L72.8264 73.9381C72.9904 73.9619 73.0559 74.1635 72.9372 74.2792L69.7362 77.3994C69.6891 77.4453 69.6676 77.5115 69.6787 77.5764L70.4344 81.9822C70.4624 82.1456 70.2909 82.2702 70.1442 82.193L66.1876 80.1129C66.1293 80.0823 66.0597 80.0823 66.0014 80.1129L62.0448 82.193C61.8981 82.2702 61.7266 82.1456 61.7546 81.9822L62.5102 77.5764C62.5214 77.5115 62.4999 77.4453 62.4527 77.3994L59.2517 74.2792C59.133 74.1635 59.1985 73.9619 59.3626 73.9381L63.7862 73.2953C63.8514 73.2858 63.9077 73.2449 63.9368 73.1859L65.9151 69.1774Z" fill="#F7941D"/>
<path d="M85.3722 69.1774C85.4455 69.0287 85.6575 69.0287 85.7309 69.1774L87.7092 73.1859C87.7383 73.2449 87.7946 73.2858 87.8598 73.2953L92.2834 73.9381C92.4474 73.9619 92.513 74.1635 92.3942 74.2792L89.1933 77.3994C89.1461 77.4453 89.1246 77.5115 89.1357 77.5764L89.8914 81.9822C89.9194 82.1456 89.7479 82.2702 89.6012 82.193L85.6446 80.1129C85.5863 80.0823 85.5167 80.0823 85.4584 80.1129L81.5018 82.193C81.3551 82.2702 81.1836 82.1456 81.2116 81.9822L81.9673 77.5764C81.9784 77.5115 81.9569 77.4453 81.9098 77.3994L78.7088 74.2792C78.5901 74.1635 78.6556 73.9619 78.8196 73.9381L83.2433 73.2953C83.3084 73.2858 83.3647 73.2449 83.3939 73.1859L85.3722 69.1774Z" fill="#F7941D"/>
<path d="M104.828 69.1774C104.902 69.0287 105.114 69.0287 105.187 69.1774L107.165 73.1859C107.194 73.2449 107.251 73.2858 107.316 73.2953L111.739 73.9381C111.904 73.9619 111.969 74.1635 111.85 74.2792L108.649 77.3994C108.602 77.4453 108.581 77.5115 108.592 77.5764L109.347 81.9822C109.375 82.1456 109.204 82.2702 109.057 82.193L105.101 80.1129C105.042 80.0823 104.973 80.0823 104.915 80.1129L100.958 82.193C100.811 82.2702 100.64 82.1456 100.668 81.9822L101.423 77.5764C101.434 77.5115 101.413 77.4453 101.366 77.3994L98.1648 74.2792C98.0461 74.1635 98.1116 73.9619 98.2757 73.9381L102.699 73.2953C102.764 73.2858 102.821 73.2449 102.85 73.1859L104.828 69.1774Z" fill="#F7941D"/>
<path d="M124.285 69.1774C124.359 69.0287 124.571 69.0287 124.644 69.1774L126.622 73.1859C126.652 73.2449 126.708 73.2858 126.773 73.2953L131.197 73.9381C131.361 73.9619 131.426 74.1635 131.307 74.2792L128.107 77.3994C128.059 77.4453 128.038 77.5115 128.049 77.5764L128.805 81.9822C128.833 82.1456 128.661 82.2702 128.514 82.193L124.558 80.1129C124.5 80.0823 124.43 80.0823 124.372 80.1129L120.415 82.193C120.268 82.2702 120.097 82.1456 120.125 81.9822L120.881 77.5764C120.892 77.5115 120.87 77.4453 120.823 77.3994L117.622 74.2792C117.503 74.1635 117.569 73.9619 117.733 73.9381L122.157 73.2953C122.222 73.2858 122.278 73.2449 122.307 73.1859L124.285 69.1774Z" fill="#F7941D"/>
<path d="M143.742 69.1774C143.816 69.0287 144.028 69.0287 144.101 69.1774L146.079 73.1859C146.108 73.2449 146.165 73.2858 146.23 73.2953L150.653 73.9381C150.817 73.9619 150.883 74.1635 150.764 74.2792L147.563 77.3994C147.516 77.4453 147.495 77.5115 147.506 77.5764L148.261 81.9822C148.289 82.1456 148.118 82.2702 147.971 82.193L144.015 80.1129C143.956 80.0823 143.887 80.0823 143.828 80.1129L139.872 82.193C139.725 82.2702 139.554 82.1456 139.582 81.9822L140.337 77.5764C140.348 77.5115 140.327 77.4453 140.28 77.3994L137.079 74.2792C136.96 74.1635 137.026 73.9619 137.19 73.9381L141.613 73.2953C141.678 73.2858 141.735 73.2449 141.764 73.1859L143.742 69.1774Z" fill="#BFBFBF"/>
<line x1="163.104" y1="76.4307" x2="229.485" y2="76.4307" stroke="#E6E6E6" stroke-width="4" stroke-linecap="round"/>
<path d="M1.13667 115.226C1.18467 114.482 1.46867 113.902 1.98867 113.486C2.51667 113.07 3.18867 112.862 4.00467 112.862C4.56467 112.862 5.04867 112.962 5.45667 113.162C5.86467 113.362 6.17267 113.634 6.38067 113.978C6.58867 114.322 6.69267 114.71 6.69267 115.142C6.69267 115.638 6.56067 116.062 6.29667 116.414C6.03267 116.766 5.71667 117.002 5.34867 117.122V117.17C5.82067 117.314 6.18867 117.578 6.45267 117.962C6.71667 118.338 6.84867 118.822 6.84867 119.414C6.84867 119.886 6.74067 120.306 6.52467 120.674C6.30867 121.042 5.98867 121.334 5.56467 121.55C5.14067 121.758 4.63267 121.862 4.04067 121.862C3.17667 121.862 2.46467 121.642 1.90467 121.202C1.35267 120.754 1.05667 120.114 1.01667 119.282H2.33667C2.36867 119.706 2.53267 120.054 2.82867 120.326C3.12467 120.59 3.52467 120.722 4.02867 120.722C4.51667 120.722 4.89267 120.59 5.15667 120.326C5.42067 120.054 5.55267 119.706 5.55267 119.282C5.55267 118.722 5.37267 118.326 5.01267 118.094C4.66067 117.854 4.11667 117.734 3.38067 117.734H3.06867V116.606H3.39267C4.04067 116.598 4.53267 116.49 4.86867 116.282C5.21267 116.074 5.38467 115.746 5.38467 115.298C5.38467 114.914 5.26067 114.61 5.01267 114.386C4.76467 114.154 4.41267 114.038 3.95667 114.038C3.50867 114.038 3.16067 114.154 2.91267 114.386C2.66467 114.61 2.51667 114.89 2.46867 115.226H1.13667ZM14.3309 121.898C13.7709 121.898 13.2669 121.802 12.8189 121.61C12.3709 121.41 12.0189 121.13 11.7629 120.77C11.5069 120.41 11.3789 119.99 11.3789 119.51H12.8429C12.8749 119.87 13.0149 120.166 13.2629 120.398C13.5189 120.63 13.8749 120.746 14.3309 120.746C14.8029 120.746 15.1709 120.634 15.4349 120.41C15.6989 120.178 15.8309 119.882 15.8309 119.522C15.8309 119.242 15.7469 119.014 15.5789 118.838C15.4189 118.662 15.2149 118.526 14.9669 118.43C14.7269 118.334 14.3909 118.23 13.9589 118.118C13.4149 117.974 12.9709 117.83 12.6269 117.686C12.2909 117.534 12.0029 117.302 11.7629 116.99C11.5229 116.678 11.4029 116.262 11.4029 115.742C11.4029 115.262 11.5229 114.842 11.7629 114.482C12.0029 114.122 12.3389 113.846 12.7709 113.654C13.2029 113.462 13.7029 113.366 14.2709 113.366C15.0789 113.366 15.7389 113.57 16.2509 113.978C16.7709 114.378 17.0589 114.93 17.1149 115.634H15.6029C15.5789 115.33 15.4349 115.07 15.1709 114.854C14.9069 114.638 14.5589 114.53 14.1269 114.53C13.7349 114.53 13.4149 114.63 13.1669 114.83C12.9189 115.03 12.7949 115.318 12.7949 115.694C12.7949 115.95 12.8709 116.162 13.0229 116.33C13.1829 116.49 13.3829 116.618 13.6229 116.714C13.8629 116.81 14.1909 116.914 14.6069 117.026C15.1589 117.178 15.6069 117.33 15.9509 117.482C16.3029 117.634 16.5989 117.87 16.8389 118.19C17.0869 118.502 17.2109 118.922 17.2109 119.45C17.2109 119.874 17.0949 120.274 16.8629 120.65C16.6389 121.026 16.3069 121.33 15.8669 121.562C15.4349 121.786 14.9229 121.898 14.3309 121.898ZM20.421 116.318V119.978C20.421 120.226 20.477 120.406 20.589 120.518C20.709 120.622 20.909 120.674 21.189 120.674H22.029V121.814H20.949C20.333 121.814 19.861 121.67 19.533 121.382C19.205 121.094 19.041 120.626 19.041 119.978V116.318H18.261V115.202H19.041V113.558H20.421V115.202H22.029V116.318H20.421ZM22.8339 118.478C22.8339 117.814 22.9699 117.226 23.2419 116.714C23.5219 116.202 23.8979 115.806 24.3699 115.526C24.8499 115.238 25.3779 115.094 25.9539 115.094C26.4739 115.094 26.9259 115.198 27.3099 115.406C27.7019 115.606 28.0139 115.858 28.2459 116.162V115.202H29.6259V121.814H28.2459V120.83C28.0139 121.142 27.6979 121.402 27.2979 121.61C26.8979 121.818 26.4419 121.922 25.9299 121.922C25.3619 121.922 24.8419 121.778 24.3699 121.49C23.8979 121.194 23.5219 120.786 23.2419 120.266C22.9699 119.738 22.8339 119.142 22.8339 118.478ZM28.2459 118.502C28.2459 118.046 28.1499 117.65 27.9579 117.314C27.7739 116.978 27.5299 116.722 27.2259 116.546C26.9219 116.37 26.5939 116.282 26.2419 116.282C25.8899 116.282 25.5619 116.37 25.2579 116.546C24.9539 116.714 24.7059 116.966 24.5139 117.302C24.3299 117.63 24.2379 118.022 24.2379 118.478C24.2379 118.934 24.3299 119.334 24.5139 119.678C24.7059 120.022 24.9539 120.286 25.2579 120.47C25.5699 120.646 25.8979 120.734 26.2419 120.734C26.5939 120.734 26.9219 120.646 27.2259 120.47C27.5299 120.294 27.7739 120.038 27.9579 119.702C28.1499 119.358 28.2459 118.958 28.2459 118.502ZM32.7907 116.162C32.9907 115.826 33.2547 115.566 33.5827 115.382C33.9187 115.19 34.3147 115.094 34.7707 115.094V116.51H34.4227C33.8867 116.51 33.4787 116.646 33.1987 116.918C32.9267 117.19 32.7907 117.662 32.7907 118.334V121.814H31.4227V115.202H32.7907V116.162Z" fill="#555555"/>
<path d="M239.779 117.326C239.779 115.942 240.011 114.862 240.475 114.086C240.947 113.302 241.755 112.91 242.899 112.91C244.043 112.91 244.847 113.302 245.311 114.086C245.783 114.862 246.019 115.942 246.019 117.326C246.019 118.726 245.783 119.822 245.311 120.614C244.847 121.398 244.043 121.79 242.899 121.79C241.755 121.79 240.947 121.398 240.475 120.614C240.011 119.822 239.779 118.726 239.779 117.326ZM244.675 117.326C244.675 116.678 244.631 116.13 244.543 115.682C244.463 115.234 244.295 114.87 244.039 114.59C243.783 114.302 243.403 114.158 242.899 114.158C242.395 114.158 242.015 114.302 241.759 114.59C241.503 114.87 241.331 115.234 241.243 115.682C241.163 116.13 241.123 116.678 241.123 117.326C241.123 117.998 241.163 118.562 241.243 119.018C241.323 119.474 241.491 119.842 241.747 120.122C242.011 120.402 242.395 120.542 242.899 120.542C243.403 120.542 243.783 120.402 244.039 120.122C244.303 119.842 244.475 119.474 244.555 119.018C244.635 118.562 244.675 117.998 244.675 117.326ZM247.442 115.226C247.49 114.482 247.774 113.902 248.294 113.486C248.822 113.07 249.494 112.862 250.31 112.862C250.87 112.862 251.354 112.962 251.762 113.162C252.17 113.362 252.478 113.634 252.686 113.978C252.894 114.322 252.998 114.71 252.998 115.142C252.998 115.638 252.866 116.062 252.602 116.414C252.338 116.766 252.022 117.002 251.654 117.122V117.17C252.126 117.314 252.494 117.578 252.758 117.962C253.022 118.338 253.154 118.822 253.154 119.414C253.154 119.886 253.046 120.306 252.83 120.674C252.614 121.042 252.294 121.334 251.87 121.55C251.446 121.758 250.938 121.862 250.346 121.862C249.482 121.862 248.77 121.642 248.21 121.202C247.658 120.754 247.362 120.114 247.322 119.282H248.642C248.674 119.706 248.838 120.054 249.134 120.326C249.43 120.59 249.83 120.722 250.334 120.722C250.822 120.722 251.198 120.59 251.462 120.326C251.726 120.054 251.858 119.706 251.858 119.282C251.858 118.722 251.678 118.326 251.318 118.094C250.966 117.854 250.422 117.734 249.686 117.734H249.374V116.606H249.698C250.346 116.598 250.838 116.49 251.174 116.282C251.518 116.074 251.69 115.746 251.69 115.298C251.69 114.914 251.566 114.61 251.318 114.386C251.07 114.154 250.718 114.038 250.262 114.038C249.814 114.038 249.466 114.154 249.218 114.386C248.97 114.61 248.822 114.89 248.774 115.226H247.442Z" fill="#555555"/>
<path d="M65.9151 110.177C65.9885 110.029 66.2005 110.029 66.2738 110.177L68.2521 114.186C68.2813 114.245 68.3376 114.286 68.4027 114.295L72.8264 114.938C72.9904 114.962 73.0559 115.163 72.9372 115.279L69.7362 118.399C69.6891 118.445 69.6676 118.512 69.6787 118.576L70.4344 122.982C70.4624 123.146 70.2909 123.27 70.1442 123.193L66.1876 121.113C66.1293 121.082 66.0597 121.082 66.0014 121.113L62.0448 123.193C61.8981 123.27 61.7266 123.146 61.7546 122.982L62.5102 118.576C62.5214 118.512 62.4999 118.445 62.4527 118.399L59.2517 115.279C59.133 115.163 59.1985 114.962 59.3626 114.938L63.7862 114.295C63.8514 114.286 63.9077 114.245 63.9368 114.186L65.9151 110.177Z" fill="#F7941D"/>
<path d="M85.3722 110.177C85.4455 110.029 85.6575 110.029 85.7309 110.177L87.7092 114.186C87.7383 114.245 87.7946 114.286 87.8598 114.295L92.2834 114.938C92.4474 114.962 92.513 115.163 92.3942 115.279L89.1933 118.399C89.1461 118.445 89.1246 118.512 89.1357 118.576L89.8914 122.982C89.9194 123.146 89.7479 123.27 89.6012 123.193L85.6446 121.113C85.5863 121.082 85.5167 121.082 85.4584 121.113L81.5018 123.193C81.3551 123.27 81.1836 123.146 81.2116 122.982L81.9673 118.576C81.9784 118.512 81.9569 118.445 81.9098 118.399L78.7088 115.279C78.5901 115.163 78.6556 114.962 78.8196 114.938L83.2433 114.295C83.3084 114.286 83.3647 114.245 83.3939 114.186L85.3722 110.177Z" fill="#F7941D"/>
<path d="M104.828 110.177C104.902 110.029 105.114 110.029 105.187 110.177L107.165 114.186C107.194 114.245 107.251 114.286 107.316 114.295L111.739 114.938C111.904 114.962 111.969 115.163 111.85 115.279L108.649 118.399C108.602 118.445 108.581 118.512 108.592 118.576L109.347 122.982C109.375 123.146 109.204 123.27 109.057 123.193L105.101 121.113C105.042 121.082 104.973 121.082 104.915 121.113L100.958 123.193C100.811 123.27 100.64 123.146 100.668 122.982L101.423 118.576C101.434 118.512 101.413 118.445 101.366 118.399L98.1648 115.279C98.0461 115.163 98.1116 114.962 98.2757 114.938L102.699 114.295C102.764 114.286 102.821 114.245 102.85 114.186L104.828 110.177Z" fill="#F7941D"/>
<path d="M124.285 110.177C124.359 110.029 124.571 110.029 124.644 110.177L126.622 114.186C126.652 114.245 126.708 114.286 126.773 114.295L131.197 114.938C131.361 114.962 131.426 115.163 131.307 115.279L128.107 118.399C128.059 118.445 128.038 118.512 128.049 118.576L128.805 122.982C128.833 123.146 128.661 123.27 128.514 123.193L124.558 121.113C124.5 121.082 124.43 121.082 124.372 121.113L120.415 123.193C120.268 123.27 120.097 123.146 120.125 122.982L120.881 118.576C120.892 118.512 120.87 118.445 120.823 118.399L117.622 115.279C117.503 115.163 117.569 114.962 117.733 114.938L122.157 114.295C122.222 114.286 122.278 114.245 122.307 114.186L124.285 110.177Z" fill="#BFBFBF"/>
<path d="M143.742 110.177C143.816 110.029 144.028 110.029 144.101 110.177L146.079 114.186C146.108 114.245 146.165 114.286 146.23 114.295L150.653 114.938C150.817 114.962 150.883 115.163 150.764 115.279L147.563 118.399C147.516 118.445 147.495 118.512 147.506 118.576L148.261 122.982C148.289 123.146 148.118 123.27 147.971 123.193L144.015 121.113C143.956 121.082 143.887 121.082 143.828 121.113L139.872 123.193C139.725 123.27 139.554 123.146 139.582 122.982L140.337 118.576C140.348 118.512 140.327 118.445 140.28 118.399L137.079 115.279C136.96 115.163 137.026 114.962 137.19 114.938L141.613 114.295C141.678 114.286 141.735 114.245 141.764 114.186L143.742 110.177Z" fill="#BFBFBF"/>
<line x1="163.104" y1="117.431" x2="229.485" y2="117.431" stroke="#E6E6E6" stroke-width="4" stroke-linecap="round"/>
</svg>
