<svg width="302" height="164" viewBox="0 0 302 164" fill="none" xmlns="http://www.w3.org/2000/svg">
<rect opacity="0.2" x="301.518" y="0.824707" width="265.948" height="300" rx="4" transform="rotate(90 301.518 0.824707)" fill="#E6E6E6"/>
<path d="M215.987 39.528C216.051 38.536 216.43 37.7627 217.123 37.208C217.827 36.6533 218.723 36.376 219.811 36.376C220.558 36.376 221.203 36.5093 221.747 36.776C222.291 37.0427 222.702 37.4053 222.979 37.864C223.256 38.3227 223.395 38.84 223.395 39.416C223.395 40.0773 223.219 40.6427 222.867 41.112C222.515 41.5813 222.094 41.896 221.603 42.056V42.12C222.232 42.312 222.723 42.664 223.075 43.176C223.427 43.6773 223.603 44.3227 223.603 45.112C223.603 45.7413 223.459 46.3013 223.171 46.792C222.883 47.2827 222.456 47.672 221.891 47.96C221.326 48.2373 220.648 48.376 219.859 48.376C218.707 48.376 217.758 48.0827 217.011 47.496C216.275 46.8987 215.88 46.0453 215.827 44.936H217.587C217.63 45.5013 217.848 45.9653 218.243 46.328C218.638 46.68 219.171 46.856 219.843 46.856C220.494 46.856 220.995 46.68 221.347 46.328C221.699 45.9653 221.875 45.5013 221.875 44.936C221.875 44.1893 221.635 43.6613 221.155 43.352C220.686 43.032 219.96 42.872 218.979 42.872H218.563V41.368H218.995C219.859 41.3573 220.515 41.2133 220.963 40.936C221.422 40.6587 221.651 40.2213 221.651 39.624C221.651 39.112 221.486 38.7067 221.155 38.408C220.824 38.0987 220.355 37.944 219.747 37.944C219.15 37.944 218.686 38.0987 218.355 38.408C218.024 38.7067 217.827 39.08 217.763 39.528H215.987ZM233.039 38.216H227.679V41.4C227.903 41.1013 228.234 40.8507 228.671 40.648C229.119 40.4453 229.594 40.344 230.095 40.344C230.991 40.344 231.716 40.536 232.271 40.92C232.836 41.304 233.236 41.7893 233.471 42.376C233.716 42.9627 233.839 43.5813 233.839 44.232C233.839 45.0213 233.684 45.7253 233.375 46.344C233.076 46.952 232.623 47.432 232.015 47.784C231.418 48.136 230.682 48.312 229.807 48.312C228.644 48.312 227.711 48.024 227.007 47.448C226.303 46.872 225.882 46.1093 225.743 45.16H227.519C227.636 45.6613 227.898 46.0613 228.303 46.36C228.708 46.648 229.215 46.792 229.823 46.792C230.58 46.792 231.146 46.5627 231.519 46.104C231.903 45.6453 232.095 45.0373 232.095 44.28C232.095 43.512 231.903 42.9253 231.519 42.52C231.135 42.104 230.57 41.896 229.823 41.896C229.3 41.896 228.858 42.0293 228.495 42.296C228.143 42.552 227.887 42.904 227.727 43.352H225.999V36.616H233.039V38.216ZM235.45 39.464C235.45 38.6853 235.674 38.0773 236.122 37.64C236.58 37.192 237.167 36.968 237.882 36.968C238.596 36.968 239.178 37.192 239.626 37.64C240.084 38.0773 240.314 38.6853 240.314 39.464C240.314 40.2427 240.084 40.856 239.626 41.304C239.178 41.752 238.596 41.976 237.882 41.976C237.167 41.976 236.58 41.752 236.122 41.304C235.674 40.856 235.45 40.2427 235.45 39.464ZM245.21 37.176L238.826 48.312H237.034L243.418 37.176H245.21ZM237.882 38.072C237.21 38.072 236.874 38.536 236.874 39.464C236.874 40.4027 237.21 40.872 237.882 40.872C238.202 40.872 238.447 40.76 238.618 40.536C238.799 40.3013 238.89 39.944 238.89 39.464C238.89 38.536 238.554 38.072 237.882 38.072ZM241.962 46.008C241.962 45.2293 242.186 44.6213 242.634 44.184C243.092 43.736 243.679 43.512 244.394 43.512C245.098 43.512 245.674 43.736 246.122 44.184C246.58 44.6213 246.81 45.2293 246.81 46.008C246.81 46.7867 246.58 47.4 246.122 47.848C245.674 48.296 245.098 48.52 244.394 48.52C243.679 48.52 243.092 48.296 242.634 47.848C242.186 47.4 241.962 46.7867 241.962 46.008ZM244.378 44.616C243.706 44.616 243.37 45.08 243.37 46.008C243.37 46.936 243.706 47.4 244.378 47.4C245.05 47.4 245.386 46.936 245.386 46.008C245.386 45.08 245.05 44.616 244.378 44.616Z" fill="#F7941D"/>
<path d="M221.309 29.312H220.399L216.739 23.762V29.312H215.829V22.332H216.739L220.399 27.872V22.332H221.309V29.312ZM227.86 26.362C227.86 26.5353 227.85 26.7187 227.83 26.912H223.45C223.484 27.452 223.667 27.8753 224 28.182C224.34 28.482 224.75 28.632 225.23 28.632C225.624 28.632 225.95 28.542 226.21 28.362C226.477 28.1753 226.664 27.9287 226.77 27.622H227.75C227.604 28.1487 227.31 28.5787 226.87 28.912C226.43 29.2387 225.884 29.402 225.23 29.402C224.71 29.402 224.244 29.2853 223.83 29.052C223.424 28.8187 223.104 28.4887 222.87 28.062C222.637 27.6287 222.52 27.1287 222.52 26.562C222.52 25.9953 222.634 25.4987 222.86 25.072C223.087 24.6453 223.404 24.3187 223.81 24.092C224.224 23.8587 224.697 23.742 225.23 23.742C225.75 23.742 226.21 23.8553 226.61 24.082C227.01 24.3087 227.317 24.622 227.53 25.022C227.75 25.4153 227.86 25.862 227.86 26.362ZM226.92 26.172C226.92 25.8253 226.844 25.5287 226.69 25.282C226.537 25.0287 226.327 24.8387 226.06 24.712C225.8 24.5787 225.51 24.512 225.19 24.512C224.73 24.512 224.337 24.6587 224.01 24.952C223.69 25.2453 223.507 25.652 223.46 26.172H226.92ZM236.362 23.832L234.652 29.312H233.712L232.392 24.962L231.072 29.312H230.132L228.412 23.832H229.342L230.602 28.432L231.962 23.832H232.892L234.222 28.442L235.462 23.832H236.362ZM240.841 28.572H243.281V29.312H239.931V22.342H240.841V28.572ZM243.907 26.552C243.907 25.992 244.02 25.502 244.247 25.082C244.474 24.6553 244.784 24.3253 245.177 24.092C245.577 23.8587 246.02 23.742 246.507 23.742C246.987 23.742 247.404 23.8453 247.757 24.052C248.11 24.2587 248.374 24.5187 248.547 24.832V23.832H249.467V29.312H248.547V28.292C248.367 28.612 248.097 28.8787 247.737 29.092C247.384 29.2987 246.97 29.402 246.497 29.402C246.01 29.402 245.57 29.282 245.177 29.042C244.784 28.802 244.474 28.4653 244.247 28.032C244.02 27.5987 243.907 27.1053 243.907 26.552ZM248.547 26.562C248.547 26.1487 248.464 25.7887 248.297 25.482C248.13 25.1753 247.904 24.942 247.617 24.782C247.337 24.6153 247.027 24.532 246.687 24.532C246.347 24.532 246.037 24.612 245.757 24.772C245.477 24.932 245.254 25.1653 245.087 25.472C244.92 25.7787 244.837 26.1387 244.837 26.552C244.837 26.972 244.92 27.3387 245.087 27.652C245.254 27.9587 245.477 28.1953 245.757 28.362C246.037 28.522 246.347 28.602 246.687 28.602C247.027 28.602 247.337 28.522 247.617 28.362C247.904 28.1953 248.13 27.9587 248.297 27.652C248.464 27.3387 248.547 26.9753 248.547 26.562ZM251.915 24.842C252.095 24.5287 252.362 24.2687 252.715 24.062C253.075 23.8487 253.492 23.742 253.965 23.742C254.452 23.742 254.892 23.8587 255.285 24.092C255.685 24.3253 255.998 24.6553 256.225 25.082C256.452 25.502 256.565 25.992 256.565 26.552C256.565 27.1053 256.452 27.5987 256.225 28.032C255.998 28.4653 255.685 28.802 255.285 29.042C254.892 29.282 254.452 29.402 253.965 29.402C253.498 29.402 253.085 29.2987 252.725 29.092C252.372 28.8787 252.102 28.6153 251.915 28.302V31.912H251.005V23.832H251.915V24.842ZM255.635 26.552C255.635 26.1387 255.552 25.7787 255.385 25.472C255.218 25.1653 254.992 24.932 254.705 24.772C254.425 24.612 254.115 24.532 253.775 24.532C253.442 24.532 253.132 24.6153 252.845 24.782C252.565 24.942 252.338 25.1787 252.165 25.492C251.998 25.7987 251.915 26.1553 251.915 26.562C251.915 26.9753 251.998 27.3387 252.165 27.652C252.338 27.9587 252.565 28.1953 252.845 28.362C253.132 28.522 253.442 28.602 253.775 28.602C254.115 28.602 254.425 28.522 254.705 28.362C254.992 28.1953 255.218 27.9587 255.385 27.652C255.552 27.3387 255.635 26.972 255.635 26.552ZM258.873 24.582V27.812C258.873 28.0787 258.929 28.2687 259.043 28.382C259.156 28.4887 259.353 28.542 259.633 28.542H260.303V29.312H259.483C258.976 29.312 258.596 29.1953 258.343 28.962C258.089 28.7287 257.963 28.3453 257.963 27.812V24.582H257.253V23.832H257.963V22.452H258.873V23.832H260.303V24.582H258.873ZM263.795 29.402C263.282 29.402 262.815 29.2853 262.395 29.052C261.982 28.8187 261.655 28.4887 261.415 28.062C261.182 27.6287 261.065 27.1287 261.065 26.562C261.065 26.002 261.185 25.5087 261.425 25.082C261.672 24.6487 262.005 24.3187 262.425 24.092C262.845 23.8587 263.315 23.742 263.835 23.742C264.355 23.742 264.825 23.8587 265.245 24.092C265.665 24.3187 265.995 24.6453 266.235 25.072C266.482 25.4987 266.605 25.9953 266.605 26.562C266.605 27.1287 266.479 27.6287 266.225 28.062C265.979 28.4887 265.642 28.8187 265.215 29.052C264.789 29.2853 264.315 29.402 263.795 29.402ZM263.795 28.602C264.122 28.602 264.429 28.5253 264.715 28.372C265.002 28.2187 265.232 27.9887 265.405 27.682C265.585 27.3753 265.675 27.002 265.675 26.562C265.675 26.122 265.589 25.7487 265.415 25.442C265.242 25.1353 265.015 24.9087 264.735 24.762C264.455 24.6087 264.152 24.532 263.825 24.532C263.492 24.532 263.185 24.6087 262.905 24.762C262.632 24.9087 262.412 25.1353 262.245 25.442C262.079 25.7487 261.995 26.122 261.995 26.562C261.995 27.0087 262.075 27.3853 262.235 27.692C262.402 27.9987 262.622 28.2287 262.895 28.382C263.169 28.5287 263.469 28.602 263.795 28.602ZM268.712 24.842C268.892 24.5287 269.158 24.2687 269.512 24.062C269.872 23.8487 270.288 23.742 270.762 23.742C271.248 23.742 271.688 23.8587 272.082 24.092C272.482 24.3253 272.795 24.6553 273.022 25.082C273.248 25.502 273.362 25.992 273.362 26.552C273.362 27.1053 273.248 27.5987 273.022 28.032C272.795 28.4653 272.482 28.802 272.082 29.042C271.688 29.282 271.248 29.402 270.762 29.402C270.295 29.402 269.882 29.2987 269.522 29.092C269.168 28.8787 268.898 28.6153 268.712 28.302V31.912H267.802V23.832H268.712V24.842ZM272.432 26.552C272.432 26.1387 272.348 25.7787 272.182 25.472C272.015 25.1653 271.788 24.932 271.502 24.772C271.222 24.612 270.912 24.532 270.572 24.532C270.238 24.532 269.928 24.6153 269.642 24.782C269.362 24.942 269.135 25.1787 268.962 25.492C268.795 25.7987 268.712 26.1553 268.712 26.562C268.712 26.9753 268.795 27.3387 268.962 27.652C269.135 27.9587 269.362 28.1953 269.642 28.362C269.928 28.522 270.238 28.602 270.572 28.602C270.912 28.602 271.222 28.522 271.502 28.362C271.788 28.1953 272.015 27.9587 272.182 27.652C272.348 27.3387 272.432 26.972 272.432 26.552Z" fill="#555555"/>
<circle cx="204.063" cy="25.6592" r="3.99585" fill="#F7941D"/>
<path d="M217.027 141.93C218.051 141.045 218.856 140.319 219.443 139.754C220.04 139.178 220.536 138.581 220.931 137.962C221.326 137.343 221.523 136.725 221.523 136.106C221.523 135.466 221.368 134.965 221.059 134.602C220.76 134.239 220.286 134.058 219.635 134.058C219.006 134.058 218.515 134.261 218.163 134.666C217.822 135.061 217.64 135.594 217.619 136.266H215.859C215.891 135.05 216.254 134.122 216.947 133.482C217.651 132.831 218.542 132.506 219.619 132.506C220.782 132.506 221.688 132.826 222.339 133.466C223 134.106 223.331 134.959 223.331 136.026C223.331 136.794 223.134 137.535 222.739 138.25C222.355 138.954 221.891 139.589 221.347 140.154C220.814 140.709 220.131 141.354 219.299 142.09L218.579 142.73H223.651V144.25H215.875V142.922L217.027 141.93ZM225.253 138.426C225.253 136.581 225.563 135.141 226.181 134.106C226.811 133.061 227.888 132.538 229.413 132.538C230.939 132.538 232.011 133.061 232.629 134.106C233.259 135.141 233.573 136.581 233.573 138.426C233.573 140.293 233.259 141.754 232.629 142.81C232.011 143.855 230.939 144.378 229.413 144.378C227.888 144.378 226.811 143.855 226.181 142.81C225.563 141.754 225.253 140.293 225.253 138.426ZM231.781 138.426C231.781 137.562 231.723 136.831 231.605 136.234C231.499 135.637 231.275 135.151 230.933 134.778C230.592 134.394 230.085 134.202 229.413 134.202C228.741 134.202 228.235 134.394 227.893 134.778C227.552 135.151 227.323 135.637 227.205 136.234C227.099 136.831 227.045 137.562 227.045 138.426C227.045 139.322 227.099 140.074 227.205 140.682C227.312 141.29 227.536 141.781 227.877 142.154C228.229 142.527 228.741 142.714 229.413 142.714C230.085 142.714 230.592 142.527 230.933 142.154C231.285 141.781 231.515 141.29 231.621 140.682C231.728 140.074 231.781 139.322 231.781 138.426ZM235.215 135.562C235.215 134.783 235.439 134.175 235.887 133.738C236.346 133.29 236.933 133.066 237.647 133.066C238.362 133.066 238.943 133.29 239.391 133.738C239.85 134.175 240.079 134.783 240.079 135.562C240.079 136.341 239.85 136.954 239.391 137.402C238.943 137.85 238.362 138.074 237.647 138.074C236.933 138.074 236.346 137.85 235.887 137.402C235.439 136.954 235.215 136.341 235.215 135.562ZM244.975 133.274L238.591 144.41H236.799L243.183 133.274H244.975ZM237.647 134.17C236.975 134.17 236.639 134.634 236.639 135.562C236.639 136.501 236.975 136.97 237.647 136.97C237.967 136.97 238.213 136.858 238.383 136.634C238.565 136.399 238.655 136.042 238.655 135.562C238.655 134.634 238.319 134.17 237.647 134.17ZM241.727 142.106C241.727 141.327 241.951 140.719 242.399 140.282C242.858 139.834 243.445 139.61 244.159 139.61C244.863 139.61 245.439 139.834 245.887 140.282C246.346 140.719 246.575 141.327 246.575 142.106C246.575 142.885 246.346 143.498 245.887 143.946C245.439 144.394 244.863 144.618 244.159 144.618C243.445 144.618 242.858 144.394 242.399 143.946C241.951 143.498 241.727 142.885 241.727 142.106ZM244.143 140.714C243.471 140.714 243.135 141.178 243.135 142.106C243.135 143.034 243.471 143.498 244.143 143.498C244.815 143.498 245.151 143.034 245.151 142.106C245.151 141.178 244.815 140.714 244.143 140.714Z" fill="#DE64A1"/>
<path d="M221.309 125.41H220.399L216.739 119.86V125.41H215.829V118.43H216.739L220.399 123.97V118.43H221.309V125.41ZM227.86 122.46C227.86 122.633 227.85 122.817 227.83 123.01H223.45C223.484 123.55 223.667 123.973 224 124.28C224.34 124.58 224.75 124.73 225.23 124.73C225.624 124.73 225.95 124.64 226.21 124.46C226.477 124.273 226.664 124.027 226.77 123.72H227.75C227.604 124.247 227.31 124.677 226.87 125.01C226.43 125.337 225.884 125.5 225.23 125.5C224.71 125.5 224.244 125.383 223.83 125.15C223.424 124.917 223.104 124.587 222.87 124.16C222.637 123.727 222.52 123.227 222.52 122.66C222.52 122.093 222.634 121.597 222.86 121.17C223.087 120.743 223.404 120.417 223.81 120.19C224.224 119.957 224.697 119.84 225.23 119.84C225.75 119.84 226.21 119.953 226.61 120.18C227.01 120.407 227.317 120.72 227.53 121.12C227.75 121.513 227.86 121.96 227.86 122.46ZM226.92 122.27C226.92 121.923 226.844 121.627 226.69 121.38C226.537 121.127 226.327 120.937 226.06 120.81C225.8 120.677 225.51 120.61 225.19 120.61C224.73 120.61 224.337 120.757 224.01 121.05C223.69 121.343 223.507 121.75 223.46 122.27H226.92ZM236.362 119.93L234.652 125.41H233.712L232.392 121.06L231.072 125.41H230.132L228.412 119.93H229.342L230.602 124.53L231.962 119.93H232.892L234.222 124.54L235.462 119.93H236.362ZM242.141 125.48C241.681 125.48 241.267 125.4 240.901 125.24C240.541 125.073 240.257 124.847 240.051 124.56C239.844 124.267 239.737 123.93 239.731 123.55H240.701C240.734 123.877 240.867 124.153 241.101 124.38C241.341 124.6 241.687 124.71 242.141 124.71C242.574 124.71 242.914 124.603 243.161 124.39C243.414 124.17 243.541 123.89 243.541 123.55C243.541 123.283 243.467 123.067 243.321 122.9C243.174 122.733 242.991 122.607 242.771 122.52C242.551 122.433 242.254 122.34 241.881 122.24C241.421 122.12 241.051 122 240.771 121.88C240.497 121.76 240.261 121.573 240.061 121.32C239.867 121.06 239.771 120.713 239.771 120.28C239.771 119.9 239.867 119.563 240.061 119.27C240.254 118.977 240.524 118.75 240.871 118.59C241.224 118.43 241.627 118.35 242.081 118.35C242.734 118.35 243.267 118.513 243.681 118.84C244.101 119.167 244.337 119.6 244.391 120.14H243.391C243.357 119.873 243.217 119.64 242.971 119.44C242.724 119.233 242.397 119.13 241.991 119.13C241.611 119.13 241.301 119.23 241.061 119.43C240.821 119.623 240.701 119.897 240.701 120.25C240.701 120.503 240.771 120.71 240.911 120.87C241.057 121.03 241.234 121.153 241.441 121.24C241.654 121.32 241.951 121.413 242.331 121.52C242.791 121.647 243.161 121.773 243.441 121.9C243.721 122.02 243.961 122.21 244.161 122.47C244.361 122.723 244.461 123.07 244.461 123.51C244.461 123.85 244.371 124.17 244.191 124.47C244.011 124.77 243.744 125.013 243.391 125.2C243.037 125.387 242.621 125.48 242.141 125.48ZM246.27 119.04C246.096 119.04 245.95 118.98 245.83 118.86C245.71 118.74 245.65 118.593 245.65 118.42C245.65 118.247 245.71 118.1 245.83 117.98C245.95 117.86 246.096 117.8 246.27 117.8C246.436 117.8 246.576 117.86 246.69 117.98C246.81 118.1 246.87 118.247 246.87 118.42C246.87 118.593 246.81 118.74 246.69 118.86C246.576 118.98 246.436 119.04 246.27 119.04ZM246.71 119.93V125.41H245.8V119.93H246.71ZM254.851 119.83C255.277 119.83 255.657 119.92 255.991 120.1C256.324 120.273 256.587 120.537 256.781 120.89C256.974 121.243 257.071 121.673 257.071 122.18V125.41H256.171V122.31C256.171 121.763 256.034 121.347 255.761 121.06C255.494 120.767 255.131 120.62 254.671 120.62C254.197 120.62 253.821 120.773 253.541 121.08C253.261 121.38 253.121 121.817 253.121 122.39V125.41H252.221V122.31C252.221 121.763 252.084 121.347 251.811 121.06C251.544 120.767 251.181 120.62 250.721 120.62C250.247 120.62 249.871 120.773 249.591 121.08C249.311 121.38 249.171 121.817 249.171 122.39V125.41H248.261V119.93H249.171V120.72C249.351 120.433 249.591 120.213 249.891 120.06C250.197 119.907 250.534 119.83 250.901 119.83C251.361 119.83 251.767 119.933 252.121 120.14C252.474 120.347 252.737 120.65 252.911 121.05C253.064 120.663 253.317 120.363 253.671 120.15C254.024 119.937 254.417 119.83 254.851 119.83Z" fill="#555555"/>
<circle cx="204.063" cy="121.757" r="3.99585" fill="#DE64A1"/>
<path d="M215.779 86.3611V84.6971H219.107V96.3611H217.267V86.3611H215.779ZM229.133 86.2651H223.773V89.4491C223.997 89.1504 224.327 88.8998 224.765 88.6971C225.213 88.4944 225.687 88.3931 226.189 88.3931C227.085 88.3931 227.81 88.5851 228.365 88.9691C228.93 89.3531 229.33 89.8384 229.565 90.4251C229.81 91.0118 229.933 91.6304 229.933 92.2811C229.933 93.0704 229.778 93.7744 229.469 94.3931C229.17 95.0011 228.717 95.4811 228.109 95.8331C227.511 96.1851 226.775 96.3611 225.901 96.3611C224.738 96.3611 223.805 96.0731 223.101 95.4971C222.397 94.9211 221.975 94.1584 221.837 93.2091H223.613C223.73 93.7104 223.991 94.1104 224.397 94.4091C224.802 94.6971 225.309 94.8411 225.917 94.8411C226.674 94.8411 227.239 94.6118 227.613 94.1531C227.997 93.6944 228.189 93.0864 228.189 92.3291C228.189 91.5611 227.997 90.9744 227.613 90.5691C227.229 90.1531 226.663 89.9451 225.917 89.9451C225.394 89.9451 224.951 90.0784 224.589 90.3451C224.237 90.6011 223.981 90.9531 223.821 91.4011H222.093V84.6651H229.133V86.2651ZM231.544 87.5131C231.544 86.7344 231.768 86.1264 232.216 85.6891C232.674 85.2411 233.261 85.0171 233.976 85.0171C234.69 85.0171 235.272 85.2411 235.72 85.6891C236.178 86.1264 236.408 86.7344 236.408 87.5131C236.408 88.2918 236.178 88.9051 235.72 89.3531C235.272 89.8011 234.69 90.0251 233.976 90.0251C233.261 90.0251 232.674 89.8011 232.216 89.3531C231.768 88.9051 231.544 88.2918 231.544 87.5131ZM241.304 85.2251L234.92 96.3611H233.128L239.512 85.2251H241.304ZM233.976 86.1211C233.304 86.1211 232.968 86.5851 232.968 87.5131C232.968 88.4518 233.304 88.9211 233.976 88.9211C234.296 88.9211 234.541 88.8091 234.712 88.5851C234.893 88.3504 234.984 87.9931 234.984 87.5131C234.984 86.5851 234.648 86.1211 233.976 86.1211ZM238.056 94.0571C238.056 93.2784 238.28 92.6704 238.728 92.2331C239.186 91.7851 239.773 91.5611 240.488 91.5611C241.192 91.5611 241.768 91.7851 242.216 92.2331C242.674 92.6704 242.904 93.2784 242.904 94.0571C242.904 94.8358 242.674 95.4491 242.216 95.8971C241.768 96.3451 241.192 96.5691 240.488 96.5691C239.773 96.5691 239.186 96.3451 238.728 95.8971C238.28 95.4491 238.056 94.8358 238.056 94.0571ZM240.472 92.6651C239.8 92.6651 239.464 93.1291 239.464 94.0571C239.464 94.9851 239.8 95.4491 240.472 95.4491C241.144 95.4491 241.48 94.9851 241.48 94.0571C241.48 93.1291 241.144 92.6651 240.472 92.6651Z" fill="#8A88ED"/>
<path d="M221.309 77.3611H220.399L216.739 71.8111V77.3611H215.829V70.3811H216.739L220.399 75.9211V70.3811H221.309V77.3611ZM227.86 74.4111C227.86 74.5844 227.85 74.7678 227.83 74.9611H223.45C223.484 75.5011 223.667 75.9244 224 76.2311C224.34 76.5311 224.75 76.6811 225.23 76.6811C225.624 76.6811 225.95 76.5911 226.21 76.4111C226.477 76.2244 226.664 75.9778 226.77 75.6711H227.75C227.604 76.1978 227.31 76.6278 226.87 76.9611C226.43 77.2878 225.884 77.4511 225.23 77.4511C224.71 77.4511 224.244 77.3344 223.83 77.1011C223.424 76.8678 223.104 76.5378 222.87 76.1111C222.637 75.6778 222.52 75.1778 222.52 74.6111C222.52 74.0444 222.634 73.5478 222.86 73.1211C223.087 72.6944 223.404 72.3678 223.81 72.1411C224.224 71.9078 224.697 71.7911 225.23 71.7911C225.75 71.7911 226.21 71.9044 226.61 72.1311C227.01 72.3578 227.317 72.6711 227.53 73.0711C227.75 73.4644 227.86 73.9111 227.86 74.4111ZM226.92 74.2211C226.92 73.8744 226.844 73.5778 226.69 73.3311C226.537 73.0778 226.327 72.8878 226.06 72.7611C225.8 72.6278 225.51 72.5611 225.19 72.5611C224.73 72.5611 224.337 72.7078 224.01 73.0011C223.69 73.2944 223.507 73.7011 223.46 74.2211H226.92ZM236.362 71.8811L234.652 77.3611H233.712L232.392 73.0111L231.072 77.3611H230.132L228.412 71.8811H229.342L230.602 76.4811L231.962 71.8811H232.892L234.222 76.4911L235.462 71.8811H236.362ZM242.101 70.3911C242.861 70.3911 243.517 70.5344 244.071 70.8211C244.631 71.1011 245.057 71.5044 245.351 72.0311C245.651 72.5578 245.801 73.1778 245.801 73.8911C245.801 74.6044 245.651 75.2244 245.351 75.7511C245.057 76.2711 244.631 76.6711 244.071 76.9511C243.517 77.2244 242.861 77.3611 242.101 77.3611H239.931V70.3911H242.101ZM242.101 76.6111C243.001 76.6111 243.687 76.3744 244.161 75.9011C244.634 75.4211 244.871 74.7511 244.871 73.8911C244.871 73.0244 244.631 72.3478 244.151 71.8611C243.677 71.3744 242.994 71.1311 242.101 71.1311H240.841V76.6111H242.101ZM252.001 74.4111C252.001 74.5844 251.991 74.7678 251.971 74.9611H247.591C247.624 75.5011 247.808 75.9244 248.141 76.2311C248.481 76.5311 248.891 76.6811 249.371 76.6811C249.764 76.6811 250.091 76.5911 250.351 76.4111C250.618 76.2244 250.804 75.9778 250.911 75.6711H251.891C251.744 76.1978 251.451 76.6278 251.011 76.9611C250.571 77.2878 250.024 77.4511 249.371 77.4511C248.851 77.4511 248.384 77.3344 247.971 77.1011C247.564 76.8678 247.244 76.5378 247.011 76.1111C246.778 75.6778 246.661 75.1778 246.661 74.6111C246.661 74.0444 246.774 73.5478 247.001 73.1211C247.228 72.6944 247.544 72.3678 247.951 72.1411C248.364 71.9078 248.838 71.7911 249.371 71.7911C249.891 71.7911 250.351 71.9044 250.751 72.1311C251.151 72.3578 251.458 72.6711 251.671 73.0711C251.891 73.4644 252.001 73.9111 252.001 74.4111ZM251.061 74.2211C251.061 73.8744 250.984 73.5778 250.831 73.3311C250.678 73.0778 250.468 72.8878 250.201 72.7611C249.941 72.6278 249.651 72.5611 249.331 72.5611C248.871 72.5611 248.478 72.7078 248.151 73.0011C247.831 73.2944 247.648 73.7011 247.601 74.2211H251.061ZM255.142 77.4511C254.722 77.4511 254.345 77.3811 254.012 77.2411C253.679 77.0944 253.415 76.8944 253.222 76.6411C253.029 76.3811 252.922 76.0844 252.902 75.7511H253.842C253.869 76.0244 253.995 76.2478 254.222 76.4211C254.455 76.5944 254.759 76.6811 255.132 76.6811C255.479 76.6811 255.752 76.6044 255.952 76.4511C256.152 76.2978 256.252 76.1044 256.252 75.8711C256.252 75.6311 256.145 75.4544 255.932 75.3411C255.719 75.2211 255.389 75.1044 254.942 74.9911C254.535 74.8844 254.202 74.7778 253.942 74.6711C253.689 74.5578 253.469 74.3944 253.282 74.1811C253.102 73.9611 253.012 73.6744 253.012 73.3211C253.012 73.0411 253.095 72.7844 253.262 72.5511C253.429 72.3178 253.665 72.1344 253.972 72.0011C254.279 71.8611 254.629 71.7911 255.022 71.7911C255.629 71.7911 256.119 71.9444 256.492 72.2511C256.865 72.5578 257.065 72.9778 257.092 73.5111H256.182C256.162 73.2244 256.045 72.9944 255.832 72.8211C255.625 72.6478 255.345 72.5611 254.992 72.5611C254.665 72.5611 254.405 72.6311 254.212 72.7711C254.019 72.9111 253.922 73.0944 253.922 73.3211C253.922 73.5011 253.979 73.6511 254.092 73.7711C254.212 73.8844 254.359 73.9778 254.532 74.0511C254.712 74.1178 254.959 74.1944 255.272 74.2811C255.665 74.3878 255.985 74.4944 256.232 74.6011C256.479 74.7011 256.689 74.8544 256.862 75.0611C257.042 75.2678 257.135 75.5378 257.142 75.8711C257.142 76.1711 257.059 76.4411 256.892 76.6811C256.725 76.9211 256.489 77.1111 256.182 77.2511C255.882 77.3844 255.535 77.4511 255.142 77.4511ZM261.487 77.3611L259.337 74.9411V77.3611H258.427V69.9611H259.337V74.3111L261.447 71.8811H262.717L260.137 74.6111L262.727 77.3611H261.487ZM264.683 72.6311V75.8611C264.683 76.1278 264.74 76.3178 264.853 76.4311C264.967 76.5378 265.163 76.5911 265.443 76.5911H266.113V77.3611H265.293C264.787 77.3611 264.407 77.2444 264.153 77.0111C263.9 76.7778 263.773 76.3944 263.773 75.8611V72.6311H263.063V71.8811H263.773V70.5011H264.683V71.8811H266.113V72.6311H264.683ZM269.606 77.4511C269.092 77.4511 268.626 77.3344 268.206 77.1011C267.792 76.8678 267.466 76.5378 267.226 76.1111C266.992 75.6778 266.876 75.1778 266.876 74.6111C266.876 74.0511 266.996 73.5578 267.236 73.1311C267.482 72.6978 267.816 72.3678 268.236 72.1411C268.656 71.9078 269.126 71.7911 269.646 71.7911C270.166 71.7911 270.636 71.9078 271.056 72.1411C271.476 72.3678 271.806 72.6944 272.046 73.1211C272.292 73.5478 272.416 74.0444 272.416 74.6111C272.416 75.1778 272.289 75.6778 272.036 76.1111C271.789 76.5378 271.452 76.8678 271.026 77.1011C270.599 77.3344 270.126 77.4511 269.606 77.4511ZM269.606 76.6511C269.932 76.6511 270.239 76.5744 270.526 76.4211C270.812 76.2678 271.042 76.0378 271.216 75.7311C271.396 75.4244 271.486 75.0511 271.486 74.6111C271.486 74.1711 271.399 73.7978 271.226 73.4911C271.052 73.1844 270.826 72.9578 270.546 72.8111C270.266 72.6578 269.962 72.5811 269.636 72.5811C269.302 72.5811 268.996 72.6578 268.716 72.8111C268.442 72.9578 268.222 73.1844 268.056 73.4911C267.889 73.7978 267.806 74.1711 267.806 74.6111C267.806 75.0578 267.886 75.4344 268.046 75.7411C268.212 76.0478 268.432 76.2778 268.706 76.4311C268.979 76.5778 269.279 76.6511 269.606 76.6511ZM274.522 72.8911C274.702 72.5778 274.969 72.3178 275.322 72.1111C275.682 71.8978 276.099 71.7911 276.572 71.7911C277.059 71.7911 277.499 71.9078 277.892 72.1411C278.292 72.3744 278.606 72.7044 278.832 73.1311C279.059 73.5511 279.172 74.0411 279.172 74.6011C279.172 75.1544 279.059 75.6478 278.832 76.0811C278.606 76.5144 278.292 76.8511 277.892 77.0911C277.499 77.3311 277.059 77.4511 276.572 77.4511C276.106 77.4511 275.692 77.3478 275.332 77.1411C274.979 76.9278 274.709 76.6644 274.522 76.3511V79.9611H273.612V71.8811H274.522V72.8911ZM278.242 74.6011C278.242 74.1878 278.159 73.8278 277.992 73.5211C277.826 73.2144 277.599 72.9811 277.312 72.8211C277.032 72.6611 276.722 72.5811 276.382 72.5811C276.049 72.5811 275.739 72.6644 275.452 72.8311C275.172 72.9911 274.946 73.2278 274.772 73.5411C274.606 73.8478 274.522 74.2044 274.522 74.6111C274.522 75.0244 274.606 75.3878 274.772 75.7011C274.946 76.0078 275.172 76.2444 275.452 76.4111C275.739 76.5711 276.049 76.6511 276.382 76.6511C276.722 76.6511 277.032 76.5711 277.312 76.4111C277.599 76.2444 277.826 76.0078 277.992 75.7011C278.159 75.3878 278.242 75.0211 278.242 74.6011Z" fill="#555555"/>
<circle cx="204.063" cy="73.7083" r="3.99585" fill="#8A88ED"/>
<path d="M142.067 187.528C135.011 193.238 126.899 197.502 118.196 200.077C109.492 202.652 100.366 203.487 91.3397 202.535" stroke="#8A88ED" stroke-width="16.1859" stroke-linecap="round"/>
<path d="M86.1701 201.792C75.2945 199.806 65.0541 195.24 56.3082 188.477C47.5624 181.714 40.5664 172.953 35.9073 162.927" stroke="#DE64A1" stroke-width="16.1859" stroke-linecap="round"/>
<path d="M34.7408 160.272C29.2746 147.089 28.0232 132.537 31.1584 118.615" stroke="#5BC4BF" stroke-width="16.1859" stroke-linecap="round"/>
<path d="M32.2655 114.34C36.8424 98.7407 46.7715 85.2537 60.3076 76.2499C73.8437 67.2461 90.1203 63.3018 106.277 65.1104" stroke="#B69FB3" stroke-width="16.1859" stroke-linecap="round"/>
<path d="M101.964 64.7639C115.618 65.4316 128.767 70.1332 139.749 78.2741C150.73 86.415 159.051 97.6295 163.66 110.5C168.268 123.37 168.956 137.317 165.637 150.578C162.319 163.84 155.142 175.819 145.015 185.001" stroke="#F7941D" stroke-width="16.1859" stroke-linecap="round"/>
<g filter="url(#filter0_d_0_1)">
<circle cx="98.5875" cy="133.799" r="38.4877" transform="rotate(45.3926 98.5875 133.799)" fill="white"/>
</g>
<path d="M91.2494 116.106V117.036H89.3994V123.056H88.2594V117.036H86.3994V116.106H91.2494ZM94.7939 123.146C94.2739 123.146 93.8039 123.03 93.3839 122.796C92.9639 122.556 92.6339 122.223 92.3939 121.796C92.1539 121.363 92.0339 120.863 92.0339 120.296C92.0339 119.736 92.1573 119.24 92.4039 118.806C92.6506 118.373 92.9873 118.04 93.4139 117.806C93.8406 117.573 94.3173 117.456 94.8439 117.456C95.3706 117.456 95.8473 117.573 96.2739 117.806C96.7006 118.04 97.0373 118.373 97.2839 118.806C97.5306 119.24 97.6539 119.736 97.6539 120.296C97.6539 120.856 97.5273 121.353 97.2739 121.786C97.0206 122.22 96.6739 122.556 96.2339 122.796C95.8006 123.03 95.3206 123.146 94.7939 123.146ZM94.7939 122.156C95.0873 122.156 95.3606 122.086 95.6139 121.946C95.8739 121.806 96.0839 121.596 96.2439 121.316C96.4039 121.036 96.4839 120.696 96.4839 120.296C96.4839 119.896 96.4073 119.56 96.2539 119.286C96.1006 119.006 95.8973 118.796 95.6439 118.656C95.3906 118.516 95.1173 118.446 94.8239 118.446C94.5306 118.446 94.2573 118.516 94.0039 118.656C93.7573 118.796 93.5606 119.006 93.4139 119.286C93.2673 119.56 93.1939 119.896 93.1939 120.296C93.1939 120.89 93.3439 121.35 93.6439 121.676C93.9506 121.996 94.3339 122.156 94.7939 122.156ZM100.111 118.476V121.526C100.111 121.733 100.158 121.883 100.251 121.976C100.351 122.063 100.518 122.106 100.751 122.106H101.451V123.056H100.551C100.038 123.056 99.6442 122.936 99.3709 122.696C99.0976 122.456 98.9609 122.066 98.9609 121.526V118.476H98.3109V117.546H98.9609V116.176H100.111V117.546H101.451V118.476H100.111ZM102.122 120.276C102.122 119.723 102.235 119.233 102.462 118.806C102.695 118.38 103.008 118.05 103.402 117.816C103.802 117.576 104.242 117.456 104.722 117.456C105.155 117.456 105.532 117.543 105.852 117.716C106.178 117.883 106.438 118.093 106.632 118.346V117.546H107.782V123.056H106.632V122.236C106.438 122.496 106.175 122.713 105.842 122.886C105.508 123.06 105.128 123.146 104.702 123.146C104.228 123.146 103.795 123.026 103.402 122.786C103.008 122.54 102.695 122.2 102.462 121.766C102.235 121.326 102.122 120.83 102.122 120.276ZM106.632 120.296C106.632 119.916 106.552 119.586 106.392 119.306C106.238 119.026 106.035 118.813 105.782 118.666C105.528 118.52 105.255 118.446 104.962 118.446C104.668 118.446 104.395 118.52 104.142 118.666C103.888 118.806 103.682 119.016 103.522 119.296C103.368 119.57 103.292 119.896 103.292 120.276C103.292 120.656 103.368 120.99 103.522 121.276C103.682 121.563 103.888 121.783 104.142 121.936C104.402 122.083 104.675 122.156 104.962 122.156C105.255 122.156 105.528 122.083 105.782 121.936C106.035 121.79 106.238 121.576 106.392 121.296C106.552 121.01 106.632 120.676 106.632 120.296ZM110.419 115.656V123.056H109.279V115.656H110.419Z" fill="#555555"/>
<path d="M73.5647 132.792V130.504H78.1407V146.542H75.6107V132.792H73.5647ZM81.1461 138.314C81.1461 135.776 81.5714 133.796 82.4221 132.374C83.2874 130.936 84.7687 130.218 86.8661 130.218C88.9634 130.218 90.4374 130.936 91.2881 132.374C92.1534 133.796 92.5861 135.776 92.5861 138.314C92.5861 140.88 92.1534 142.89 91.2881 144.342C90.4374 145.779 88.9634 146.498 86.8661 146.498C84.7687 146.498 83.2874 145.779 82.4221 144.342C81.5714 142.89 81.1461 140.88 81.1461 138.314ZM90.1221 138.314C90.1221 137.126 90.0414 136.121 89.8801 135.3C89.7334 134.478 89.4254 133.811 88.9561 133.298C88.4867 132.77 87.7901 132.506 86.8661 132.506C85.9421 132.506 85.2454 132.77 84.7761 133.298C84.3067 133.811 83.9914 134.478 83.8301 135.3C83.6834 136.121 83.6101 137.126 83.6101 138.314C83.6101 139.546 83.6834 140.58 83.8301 141.416C83.9767 142.252 84.2847 142.926 84.7541 143.44C85.2381 143.953 85.9421 144.21 86.8661 144.21C87.7901 144.21 88.4867 143.953 88.9561 143.44C89.4401 142.926 89.7554 142.252 89.9021 141.416C90.0487 140.58 90.1221 139.546 90.1221 138.314ZM94.7998 138.314C94.7998 135.776 95.2252 133.796 96.0758 132.374C96.9412 130.936 98.4225 130.218 100.52 130.218C102.617 130.218 104.091 130.936 104.942 132.374C105.807 133.796 106.24 135.776 106.24 138.314C106.24 140.88 105.807 142.89 104.942 144.342C104.091 145.779 102.617 146.498 100.52 146.498C98.4225 146.498 96.9412 145.779 96.0758 144.342C95.2252 142.89 94.7998 140.88 94.7998 138.314ZM103.776 138.314C103.776 137.126 103.695 136.121 103.534 135.3C103.387 134.478 103.079 133.811 102.61 133.298C102.14 132.77 101.444 132.506 100.52 132.506C99.5958 132.506 98.8992 132.77 98.4298 133.298C97.9605 133.811 97.6452 134.478 97.4838 135.3C97.3372 136.121 97.2638 137.126 97.2638 138.314C97.2638 139.546 97.3372 140.58 97.4838 141.416C97.6305 142.252 97.9385 142.926 98.4078 143.44C98.8918 143.953 99.5958 144.21 100.52 144.21C101.444 144.21 102.14 143.953 102.61 143.44C103.094 142.926 103.409 142.252 103.556 141.416C103.702 140.58 103.776 139.546 103.776 138.314ZM108.058 134.376C108.058 133.305 108.366 132.469 108.982 131.868C109.612 131.252 110.419 130.944 111.402 130.944C112.384 130.944 113.184 131.252 113.8 131.868C114.43 132.469 114.746 133.305 114.746 134.376C114.746 135.446 114.43 136.29 113.8 136.906C113.184 137.522 112.384 137.83 111.402 137.83C110.419 137.83 109.612 137.522 108.982 136.906C108.366 136.29 108.058 135.446 108.058 134.376ZM121.478 131.23L112.7 146.542H110.236L119.014 131.23H121.478ZM111.402 132.462C110.478 132.462 110.016 133.1 110.016 134.376C110.016 135.666 110.478 136.312 111.402 136.312C111.842 136.312 112.179 136.158 112.414 135.85C112.663 135.527 112.788 135.036 112.788 134.376C112.788 133.1 112.326 132.462 111.402 132.462ZM117.012 143.374C117.012 142.303 117.32 141.467 117.936 140.866C118.566 140.25 119.373 139.942 120.356 139.942C121.324 139.942 122.116 140.25 122.732 140.866C123.362 141.467 123.678 142.303 123.678 143.374C123.678 144.444 123.362 145.288 122.732 145.904C122.116 146.52 121.324 146.828 120.356 146.828C119.373 146.828 118.566 146.52 117.936 145.904C117.32 145.288 117.012 144.444 117.012 143.374ZM120.334 141.46C119.41 141.46 118.948 142.098 118.948 143.374C118.948 144.65 119.41 145.288 120.334 145.288C121.258 145.288 121.72 144.65 121.72 143.374C121.72 142.098 121.258 141.46 120.334 141.46Z" fill="#1296B0"/>
<defs>
<filter id="filter0_d_0_1" x="49.9837" y="85.1952" width="97.2077" height="97.2078" filterUnits="userSpaceOnUse" color-interpolation-filters="sRGB">
<feFlood flood-opacity="0" result="BackgroundImageFix"/>
<feColorMatrix in="SourceAlpha" type="matrix" values="0 0 0 0 0 0 0 0 0 0 0 0 0 0 0 0 0 0 127 0" result="hardAlpha"/>
<feOffset/>
<feGaussianBlur stdDeviation="5.05808"/>
<feComposite in2="hardAlpha" operator="out"/>
<feColorMatrix type="matrix" values="0 0 0 0 0 0 0 0 0 0 0 0 0 0 0 0 0 0 0.04 0"/>
<feBlend mode="normal" in2="BackgroundImageFix" result="effect1_dropShadow_0_1"/>
<feBlend mode="normal" in="SourceGraphic" in2="effect1_dropShadow_0_1" result="shape"/>
</filter>
</defs>
</svg>
