<svg width="302" height="267" viewBox="0 0 302 267" fill="none" xmlns="http://www.w3.org/2000/svg">
<rect opacity="0.2" x="301.518" y="0.64502" width="265.948" height="300" rx="4" transform="rotate(90 301.518 0.64502)" fill="#E6E6E6"/>
<path d="M142.067 187.348C135.011 193.058 126.899 197.322 118.196 199.897C109.492 202.472 100.366 203.308 91.3397 202.356" stroke="#F7941D" stroke-width="16.1859" stroke-linecap="round"/>
<path d="M86.17 201.612C75.2945 199.626 65.054 195.06 56.3082 188.297C47.5624 181.535 40.5664 172.773 35.9073 162.747" stroke="#A0A0CB" stroke-width="16.1859" stroke-linecap="round"/>
<path d="M34.7408 160.093C29.2746 146.91 28.0232 132.358 31.1584 118.435" stroke="#5BC4BF" stroke-width="16.1859" stroke-linecap="round"/>
<path d="M32.2655 114.161C36.8424 98.561 46.7715 85.074 60.3076 76.0702C73.8437 67.0664 90.1203 63.1221 106.277 64.9307" stroke="#B69FB3" stroke-width="16.1859" stroke-linecap="round"/>
<path d="M101.964 64.5842C115.618 65.2519 128.767 69.9535 139.749 78.0944C150.73 86.2353 159.051 97.4498 163.66 110.32C168.268 123.19 168.956 137.137 165.637 150.399C162.319 163.66 155.142 175.639 145.015 184.822" stroke="#8A88ED" stroke-width="16.1859" stroke-linecap="round"/>
<g filter="url(#filter0_d_13_1091)">
<circle cx="98.5875" cy="133.619" r="38.4877" transform="rotate(45.3926 98.5875 133.619)" fill="white"/>
</g>
<path d="M216.987 39.3483C217.051 38.3563 217.43 37.583 218.123 37.0283C218.827 36.4737 219.723 36.1963 220.811 36.1963C221.558 36.1963 222.203 36.3297 222.747 36.5963C223.291 36.863 223.702 37.2257 223.979 37.6843C224.256 38.143 224.395 38.6603 224.395 39.2363C224.395 39.8977 224.219 40.463 223.867 40.9323C223.515 41.4017 223.094 41.7163 222.603 41.8763V41.9403C223.232 42.1323 223.723 42.4843 224.075 42.9963C224.427 43.4977 224.603 44.143 224.603 44.9323C224.603 45.5617 224.459 46.1217 224.171 46.6123C223.883 47.103 223.456 47.4923 222.891 47.7803C222.326 48.0577 221.648 48.1963 220.859 48.1963C219.707 48.1963 218.758 47.903 218.011 47.3163C217.275 46.719 216.88 45.8657 216.827 44.7563H218.587C218.63 45.3217 218.848 45.7857 219.243 46.1483C219.638 46.5003 220.171 46.6763 220.843 46.6763C221.494 46.6763 221.995 46.5003 222.347 46.1483C222.699 45.7857 222.875 45.3217 222.875 44.7563C222.875 44.0097 222.635 43.4817 222.155 43.1723C221.686 42.8523 220.96 42.6923 219.979 42.6923H219.563V41.1883H219.995C220.859 41.1777 221.515 41.0337 221.963 40.7563C222.422 40.479 222.651 40.0417 222.651 39.4443C222.651 38.9323 222.486 38.527 222.155 38.2283C221.824 37.919 221.355 37.7643 220.747 37.7643C220.15 37.7643 219.686 37.919 219.355 38.2283C219.024 38.527 218.827 38.9003 218.763 39.3483H216.987ZM234.039 38.0363H228.679V41.2203C228.903 40.9217 229.234 40.671 229.671 40.4683C230.119 40.2657 230.594 40.1643 231.095 40.1643C231.991 40.1643 232.716 40.3563 233.271 40.7403C233.836 41.1243 234.236 41.6097 234.471 42.1963C234.716 42.783 234.839 43.4017 234.839 44.0523C234.839 44.8417 234.684 45.5457 234.375 46.1643C234.076 46.7723 233.623 47.2523 233.015 47.6043C232.418 47.9563 231.682 48.1323 230.807 48.1323C229.644 48.1323 228.711 47.8443 228.007 47.2683C227.303 46.6923 226.882 45.9297 226.743 44.9803H228.519C228.636 45.4817 228.898 45.8817 229.303 46.1803C229.708 46.4683 230.215 46.6123 230.823 46.6123C231.58 46.6123 232.146 46.383 232.519 45.9243C232.903 45.4657 233.095 44.8577 233.095 44.1003C233.095 43.3323 232.903 42.7457 232.519 42.3403C232.135 41.9243 231.57 41.7163 230.823 41.7163C230.3 41.7163 229.858 41.8497 229.495 42.1163C229.143 42.3723 228.887 42.7243 228.727 43.1723H226.999V36.4363H234.039V38.0363ZM236.45 39.2843C236.45 38.5057 236.674 37.8977 237.122 37.4603C237.58 37.0123 238.167 36.7883 238.882 36.7883C239.596 36.7883 240.178 37.0123 240.626 37.4603C241.084 37.8977 241.314 38.5057 241.314 39.2843C241.314 40.063 241.084 40.6763 240.626 41.1243C240.178 41.5723 239.596 41.7963 238.882 41.7963C238.167 41.7963 237.58 41.5723 237.122 41.1243C236.674 40.6763 236.45 40.063 236.45 39.2843ZM246.21 36.9963L239.826 48.1323H238.034L244.418 36.9963H246.21ZM238.882 37.8923C238.21 37.8923 237.874 38.3563 237.874 39.2843C237.874 40.223 238.21 40.6923 238.882 40.6923C239.202 40.6923 239.447 40.5803 239.618 40.3563C239.799 40.1217 239.89 39.7643 239.89 39.2843C239.89 38.3563 239.554 37.8923 238.882 37.8923ZM242.962 45.8283C242.962 45.0497 243.186 44.4417 243.634 44.0043C244.092 43.5563 244.679 43.3323 245.394 43.3323C246.098 43.3323 246.674 43.5563 247.122 44.0043C247.58 44.4417 247.81 45.0497 247.81 45.8283C247.81 46.607 247.58 47.2203 247.122 47.6683C246.674 48.1163 246.098 48.3403 245.394 48.3403C244.679 48.3403 244.092 48.1163 243.634 47.6683C243.186 47.2203 242.962 46.607 242.962 45.8283ZM245.378 44.4363C244.706 44.4363 244.37 44.9003 244.37 45.8283C244.37 46.7563 244.706 47.2203 245.378 47.2203C246.05 47.2203 246.386 46.7563 246.386 45.8283C246.386 44.9003 246.05 44.4363 245.378 44.4363Z" fill="#8A88ED"/>
<path d="M220.319 25.5423C220.572 25.5823 220.802 25.6857 221.009 25.8523C221.222 26.019 221.389 26.2257 221.509 26.4723C221.636 26.719 221.699 26.9823 221.699 27.2623C221.699 27.6157 221.609 27.9357 221.429 28.2223C221.249 28.5023 220.986 28.7257 220.639 28.8923C220.299 29.0523 219.896 29.1323 219.429 29.1323H216.829V22.1623H219.329C219.802 22.1623 220.206 22.2423 220.539 22.4023C220.872 22.5557 221.122 22.7657 221.289 23.0323C221.456 23.299 221.539 23.599 221.539 23.9323C221.539 24.3457 221.426 24.689 221.199 24.9623C220.979 25.229 220.686 25.4223 220.319 25.5423ZM217.739 25.1723H219.269C219.696 25.1723 220.026 25.0723 220.259 24.8723C220.492 24.6723 220.609 24.3957 220.609 24.0423C220.609 23.689 220.492 23.4123 220.259 23.2123C220.026 23.0123 219.689 22.9123 219.249 22.9123H217.739V25.1723ZM219.349 28.3823C219.802 28.3823 220.156 28.2757 220.409 28.0623C220.662 27.849 220.789 27.5523 220.789 27.1723C220.789 26.7857 220.656 26.4823 220.389 26.2623C220.122 26.0357 219.766 25.9223 219.319 25.9223H217.739V28.3823H219.349ZM222.622 26.3723C222.622 25.8123 222.735 25.3223 222.962 24.9023C223.189 24.4757 223.499 24.1457 223.892 23.9123C224.292 23.679 224.735 23.5623 225.222 23.5623C225.702 23.5623 226.119 23.6657 226.472 23.8723C226.825 24.079 227.089 24.339 227.262 24.6523V23.6523H228.182V29.1323H227.262V28.1123C227.082 28.4323 226.812 28.699 226.452 28.9123C226.099 29.119 225.685 29.2223 225.212 29.2223C224.725 29.2223 224.285 29.1023 223.892 28.8623C223.499 28.6223 223.189 28.2857 222.962 27.8523C222.735 27.419 222.622 26.9257 222.622 26.3723ZM227.262 26.3823C227.262 25.969 227.179 25.609 227.012 25.3023C226.845 24.9957 226.619 24.7623 226.332 24.6023C226.052 24.4357 225.742 24.3523 225.402 24.3523C225.062 24.3523 224.752 24.4323 224.472 24.5923C224.192 24.7523 223.969 24.9857 223.802 25.2923C223.635 25.599 223.552 25.959 223.552 26.3723C223.552 26.7923 223.635 27.159 223.802 27.4723C223.969 27.779 224.192 28.0157 224.472 28.1823C224.752 28.3423 225.062 28.4223 225.402 28.4223C225.742 28.4223 226.052 28.3423 226.332 28.1823C226.619 28.0157 226.845 27.779 227.012 27.4723C227.179 27.159 227.262 26.7957 227.262 26.3823ZM229.38 26.3823C229.38 25.8157 229.493 25.3223 229.72 24.9023C229.946 24.4757 230.26 24.1457 230.66 23.9123C231.066 23.679 231.53 23.5623 232.05 23.5623C232.723 23.5623 233.276 23.7257 233.71 24.0523C234.15 24.379 234.44 24.8323 234.58 25.4123H233.6C233.506 25.079 233.323 24.8157 233.05 24.6223C232.783 24.429 232.45 24.3323 232.05 24.3323C231.53 24.3323 231.11 24.5123 230.79 24.8723C230.47 25.2257 230.31 25.729 230.31 26.3823C230.31 27.0423 230.47 27.5523 230.79 27.9123C231.11 28.2723 231.53 28.4523 232.05 28.4523C232.45 28.4523 232.783 28.359 233.05 28.1723C233.316 27.9857 233.5 27.719 233.6 27.3723H234.58C234.433 27.9323 234.14 28.3823 233.7 28.7223C233.26 29.0557 232.71 29.2223 232.05 29.2223C231.53 29.2223 231.066 29.1057 230.66 28.8723C230.26 28.639 229.946 28.309 229.72 27.8823C229.493 27.4557 229.38 26.9557 229.38 26.3823ZM238.854 29.1323L236.704 26.7123V29.1323H235.794V21.7323H236.704V26.0823L238.814 23.6523H240.084L237.504 26.3823L240.094 29.1323H238.854ZM245.8 23.6523V29.1323H244.89V28.3223C244.717 28.6023 244.474 28.8223 244.16 28.9823C243.854 29.1357 243.514 29.2123 243.14 29.2123C242.714 29.2123 242.33 29.1257 241.99 28.9523C241.65 28.7723 241.38 28.5057 241.18 28.1523C240.987 27.799 240.89 27.369 240.89 26.8623V23.6523H241.79V26.7423C241.79 27.2823 241.927 27.699 242.2 27.9923C242.474 28.279 242.847 28.4223 243.32 28.4223C243.807 28.4223 244.19 28.2723 244.47 27.9723C244.75 27.6723 244.89 27.2357 244.89 26.6623V23.6523H245.8ZM248.247 24.6623C248.427 24.349 248.694 24.089 249.047 23.8823C249.407 23.669 249.824 23.5623 250.297 23.5623C250.784 23.5623 251.224 23.679 251.617 23.9123C252.017 24.1457 252.33 24.4757 252.557 24.9023C252.784 25.3223 252.897 25.8123 252.897 26.3723C252.897 26.9257 252.784 27.419 252.557 27.8523C252.33 28.2857 252.017 28.6223 251.617 28.8623C251.224 29.1023 250.784 29.2223 250.297 29.2223C249.83 29.2223 249.417 29.119 249.057 28.9123C248.704 28.699 248.434 28.4357 248.247 28.1223V31.7323H247.337V23.6523H248.247V24.6623ZM251.967 26.3723C251.967 25.959 251.884 25.599 251.717 25.2923C251.55 24.9857 251.324 24.7523 251.037 24.5923C250.757 24.4323 250.447 24.3523 250.107 24.3523C249.774 24.3523 249.464 24.4357 249.177 24.6023C248.897 24.7623 248.67 24.999 248.497 25.3123C248.33 25.619 248.247 25.9757 248.247 26.3823C248.247 26.7957 248.33 27.159 248.497 27.4723C248.67 27.779 248.897 28.0157 249.177 28.1823C249.464 28.3423 249.774 28.4223 250.107 28.4223C250.447 28.4223 250.757 28.3423 251.037 28.1823C251.324 28.0157 251.55 27.779 251.717 27.4723C251.884 27.159 251.967 26.7923 251.967 26.3723Z" fill="#555555"/>
<circle cx="205.063" cy="25.4795" r="3.99585" fill="#8A88ED"/>
<path d="M218.027 145.427C219.051 144.541 219.856 143.816 220.443 143.251C221.04 142.675 221.536 142.077 221.931 141.459C222.326 140.84 222.523 140.221 222.523 139.603C222.523 138.963 222.368 138.461 222.059 138.099C221.76 137.736 221.286 137.555 220.635 137.555C220.006 137.555 219.515 137.757 219.163 138.163C218.822 138.557 218.64 139.091 218.619 139.763H216.859C216.891 138.547 217.254 137.619 217.947 136.979C218.651 136.328 219.542 136.003 220.619 136.003C221.782 136.003 222.688 136.323 223.339 136.963C224 137.603 224.331 138.456 224.331 139.523C224.331 140.291 224.134 141.032 223.739 141.747C223.355 142.451 222.891 143.085 222.347 143.651C221.814 144.205 221.131 144.851 220.299 145.587L219.579 146.227H224.651V147.747H216.875V146.419L218.027 145.427ZM226.253 141.923C226.253 140.077 226.563 138.637 227.181 137.603C227.811 136.557 228.888 136.035 230.413 136.035C231.939 136.035 233.011 136.557 233.629 137.603C234.259 138.637 234.573 140.077 234.573 141.923C234.573 143.789 234.259 145.251 233.629 146.307C233.011 147.352 231.939 147.875 230.413 147.875C228.888 147.875 227.811 147.352 227.181 146.307C226.563 145.251 226.253 143.789 226.253 141.923ZM232.781 141.923C232.781 141.059 232.723 140.328 232.605 139.731C232.499 139.133 232.275 138.648 231.933 138.275C231.592 137.891 231.085 137.699 230.413 137.699C229.741 137.699 229.235 137.891 228.893 138.275C228.552 138.648 228.323 139.133 228.205 139.731C228.099 140.328 228.045 141.059 228.045 141.923C228.045 142.819 228.099 143.571 228.205 144.179C228.312 144.787 228.536 145.277 228.877 145.651C229.229 146.024 229.741 146.211 230.413 146.211C231.085 146.211 231.592 146.024 231.933 145.651C232.285 145.277 232.515 144.787 232.621 144.179C232.728 143.571 232.781 142.819 232.781 141.923ZM236.215 139.059C236.215 138.28 236.439 137.672 236.887 137.235C237.346 136.787 237.933 136.563 238.647 136.563C239.362 136.563 239.943 136.787 240.391 137.235C240.85 137.672 241.079 138.28 241.079 139.059C241.079 139.837 240.85 140.451 240.391 140.899C239.943 141.347 239.362 141.571 238.647 141.571C237.933 141.571 237.346 141.347 236.887 140.899C236.439 140.451 236.215 139.837 236.215 139.059ZM245.975 136.771L239.591 147.907H237.799L244.183 136.771H245.975ZM238.647 137.667C237.975 137.667 237.639 138.131 237.639 139.059C237.639 139.997 237.975 140.467 238.647 140.467C238.967 140.467 239.213 140.355 239.383 140.131C239.565 139.896 239.655 139.539 239.655 139.059C239.655 138.131 239.319 137.667 238.647 137.667ZM242.727 145.603C242.727 144.824 242.951 144.216 243.399 143.779C243.858 143.331 244.445 143.107 245.159 143.107C245.863 143.107 246.439 143.331 246.887 143.779C247.346 144.216 247.575 144.824 247.575 145.603C247.575 146.381 247.346 146.995 246.887 147.443C246.439 147.891 245.863 148.115 245.159 148.115C244.445 148.115 243.858 147.891 243.399 147.443C242.951 146.995 242.727 146.381 242.727 145.603ZM245.143 144.211C244.471 144.211 244.135 144.675 244.135 145.603C244.135 146.531 244.471 146.995 245.143 146.995C245.815 146.995 246.151 146.531 246.151 145.603C246.151 144.675 245.815 144.211 245.143 144.211Z" fill="#A0A0CB"/>
<path d="M223.899 121.987V128.907H222.989V123.747L220.689 128.907H220.049L217.739 123.737V128.907H216.829V121.987H217.809L220.369 127.707L222.929 121.987H223.899ZM227.832 128.997C227.319 128.997 226.852 128.88 226.432 128.647C226.019 128.413 225.692 128.083 225.452 127.657C225.219 127.223 225.102 126.723 225.102 126.157C225.102 125.597 225.222 125.103 225.462 124.677C225.709 124.243 226.042 123.913 226.462 123.687C226.882 123.453 227.352 123.337 227.872 123.337C228.392 123.337 228.862 123.453 229.282 123.687C229.702 123.913 230.032 124.24 230.272 124.667C230.519 125.093 230.642 125.59 230.642 126.157C230.642 126.723 230.516 127.223 230.262 127.657C230.016 128.083 229.679 128.413 229.252 128.647C228.826 128.88 228.352 128.997 227.832 128.997ZM227.832 128.197C228.159 128.197 228.466 128.12 228.752 127.967C229.039 127.813 229.269 127.583 229.442 127.277C229.622 126.97 229.712 126.597 229.712 126.157C229.712 125.717 229.626 125.343 229.452 125.037C229.279 124.73 229.052 124.503 228.772 124.357C228.492 124.203 228.189 124.127 227.862 124.127C227.529 124.127 227.222 124.203 226.942 124.357C226.669 124.503 226.449 124.73 226.282 125.037C226.116 125.343 226.032 125.717 226.032 126.157C226.032 126.603 226.112 126.98 226.272 127.287C226.439 127.593 226.659 127.823 226.932 127.977C227.206 128.123 227.506 128.197 227.832 128.197ZM232.749 124.447C232.936 124.12 233.209 123.853 233.569 123.647C233.929 123.44 234.339 123.337 234.799 123.337C235.292 123.337 235.736 123.453 236.129 123.687C236.522 123.92 236.832 124.25 237.059 124.677C237.286 125.097 237.399 125.587 237.399 126.147C237.399 126.7 237.286 127.193 237.059 127.627C236.832 128.06 236.519 128.397 236.119 128.637C235.726 128.877 235.286 128.997 234.799 128.997C234.326 128.997 233.909 128.893 233.549 128.687C233.196 128.48 232.929 128.217 232.749 127.897V128.907H231.839V121.507H232.749V124.447ZM236.469 126.147C236.469 125.733 236.386 125.373 236.219 125.067C236.052 124.76 235.826 124.527 235.539 124.367C235.259 124.207 234.949 124.127 234.609 124.127C234.276 124.127 233.966 124.21 233.679 124.377C233.399 124.537 233.172 124.773 232.999 125.087C232.832 125.393 232.749 125.75 232.749 126.157C232.749 126.57 232.832 126.933 232.999 127.247C233.172 127.553 233.399 127.79 233.679 127.957C233.966 128.117 234.276 128.197 234.609 128.197C234.949 128.197 235.259 128.117 235.539 127.957C235.826 127.79 236.052 127.553 236.219 127.247C236.386 126.933 236.469 126.567 236.469 126.147ZM239.067 122.537C238.893 122.537 238.747 122.477 238.627 122.357C238.507 122.237 238.447 122.09 238.447 121.917C238.447 121.743 238.507 121.597 238.627 121.477C238.747 121.357 238.893 121.297 239.067 121.297C239.233 121.297 239.373 121.357 239.487 121.477C239.607 121.597 239.667 121.743 239.667 121.917C239.667 122.09 239.607 122.237 239.487 122.357C239.373 122.477 239.233 122.537 239.067 122.537ZM239.507 123.427V128.907H238.597V123.427H239.507ZM241.968 121.507V128.907H241.058V121.507H241.968ZM248.519 125.957C248.519 126.13 248.509 126.313 248.489 126.507H244.109C244.142 127.047 244.325 127.47 244.659 127.777C244.999 128.077 245.409 128.227 245.889 128.227C246.282 128.227 246.609 128.137 246.869 127.957C247.135 127.77 247.322 127.523 247.429 127.217H248.409C248.262 127.743 247.969 128.173 247.529 128.507C247.089 128.833 246.542 128.997 245.889 128.997C245.369 128.997 244.902 128.88 244.489 128.647C244.082 128.413 243.762 128.083 243.529 127.657C243.295 127.223 243.179 126.723 243.179 126.157C243.179 125.59 243.292 125.093 243.519 124.667C243.745 124.24 244.062 123.913 244.469 123.687C244.882 123.453 245.355 123.337 245.889 123.337C246.409 123.337 246.869 123.45 247.269 123.677C247.669 123.903 247.975 124.217 248.189 124.617C248.409 125.01 248.519 125.457 248.519 125.957ZM247.579 125.767C247.579 125.42 247.502 125.123 247.349 124.877C247.195 124.623 246.985 124.433 246.719 124.307C246.459 124.173 246.169 124.107 245.849 124.107C245.389 124.107 244.995 124.253 244.669 124.547C244.349 124.84 244.165 125.247 244.119 125.767H247.579ZM254.596 128.977C254.136 128.977 253.722 128.897 253.356 128.737C252.996 128.57 252.712 128.343 252.506 128.057C252.299 127.763 252.192 127.427 252.186 127.047H253.156C253.189 127.373 253.322 127.65 253.556 127.877C253.796 128.097 254.142 128.207 254.596 128.207C255.029 128.207 255.369 128.1 255.616 127.887C255.869 127.667 255.996 127.387 255.996 127.047C255.996 126.78 255.922 126.563 255.776 126.397C255.629 126.23 255.446 126.103 255.226 126.017C255.006 125.93 254.709 125.837 254.336 125.737C253.876 125.617 253.506 125.497 253.226 125.377C252.952 125.257 252.716 125.07 252.516 124.817C252.322 124.557 252.226 124.21 252.226 123.777C252.226 123.397 252.322 123.06 252.516 122.767C252.709 122.473 252.979 122.247 253.326 122.087C253.679 121.927 254.082 121.847 254.536 121.847C255.189 121.847 255.722 122.01 256.136 122.337C256.556 122.663 256.792 123.097 256.846 123.637H255.846C255.812 123.37 255.672 123.137 255.426 122.937C255.179 122.73 254.852 122.627 254.446 122.627C254.066 122.627 253.756 122.727 253.516 122.927C253.276 123.12 253.156 123.393 253.156 123.747C253.156 124 253.226 124.207 253.366 124.367C253.512 124.527 253.689 124.65 253.896 124.737C254.109 124.817 254.406 124.91 254.786 125.017C255.246 125.143 255.616 125.27 255.896 125.397C256.176 125.517 256.416 125.707 256.616 125.967C256.816 126.22 256.916 126.567 256.916 127.007C256.916 127.347 256.826 127.667 256.646 127.967C256.466 128.267 256.199 128.51 255.846 128.697C255.492 128.883 255.076 128.977 254.596 128.977ZM258.725 122.537C258.552 122.537 258.405 122.477 258.285 122.357C258.165 122.237 258.105 122.09 258.105 121.917C258.105 121.743 258.165 121.597 258.285 121.477C258.405 121.357 258.552 121.297 258.725 121.297C258.892 121.297 259.032 121.357 259.145 121.477C259.265 121.597 259.325 121.743 259.325 121.917C259.325 122.09 259.265 122.237 259.145 122.357C259.032 122.477 258.892 122.537 258.725 122.537ZM259.165 123.427V128.907H258.255V123.427H259.165ZM267.306 123.327C267.732 123.327 268.112 123.417 268.446 123.597C268.779 123.77 269.042 124.033 269.236 124.387C269.429 124.74 269.526 125.17 269.526 125.677V128.907H268.626V125.807C268.626 125.26 268.489 124.843 268.216 124.557C267.949 124.263 267.586 124.117 267.126 124.117C266.652 124.117 266.276 124.27 265.996 124.577C265.716 124.877 265.576 125.313 265.576 125.887V128.907H264.676V125.807C264.676 125.26 264.539 124.843 264.266 124.557C263.999 124.263 263.636 124.117 263.176 124.117C262.702 124.117 262.326 124.27 262.046 124.577C261.766 124.877 261.626 125.313 261.626 125.887V128.907H260.716V123.427H261.626V124.217C261.806 123.93 262.046 123.71 262.346 123.557C262.652 123.403 262.989 123.327 263.356 123.327C263.816 123.327 264.222 123.43 264.576 123.637C264.929 123.843 265.192 124.147 265.366 124.547C265.519 124.16 265.772 123.86 266.126 123.647C266.479 123.433 266.872 123.327 267.306 123.327Z" fill="#555555"/>
<circle cx="205.063" cy="125.254" r="3.99585" fill="#A0A0CB"/>
<path d="M216.779 187.794V186.13H220.107V197.794H218.267V187.794H216.779ZM222.613 191.81C222.613 189.965 222.922 188.525 223.541 187.49C224.17 186.445 225.247 185.922 226.773 185.922C228.298 185.922 229.37 186.445 229.989 187.49C230.618 188.525 230.933 189.965 230.933 191.81C230.933 193.677 230.618 195.138 229.989 196.194C229.37 197.239 228.298 197.762 226.773 197.762C225.247 197.762 224.17 197.239 223.541 196.194C222.922 195.138 222.613 193.677 222.613 191.81ZM229.141 191.81C229.141 190.946 229.082 190.215 228.965 189.618C228.858 189.021 228.634 188.535 228.293 188.162C227.951 187.778 227.445 187.586 226.773 187.586C226.101 187.586 225.594 187.778 225.253 188.162C224.911 188.535 224.682 189.021 224.565 189.618C224.458 190.215 224.405 190.946 224.405 191.81C224.405 192.706 224.458 193.458 224.565 194.066C224.671 194.674 224.895 195.165 225.237 195.538C225.589 195.911 226.101 196.098 226.773 196.098C227.445 196.098 227.951 195.911 228.293 195.538C228.645 195.165 228.874 194.674 228.981 194.066C229.087 193.458 229.141 192.706 229.141 191.81ZM232.575 188.946C232.575 188.167 232.799 187.559 233.247 187.122C233.705 186.674 234.292 186.45 235.007 186.45C235.721 186.45 236.303 186.674 236.751 187.122C237.209 187.559 237.439 188.167 237.439 188.946C237.439 189.725 237.209 190.338 236.751 190.786C236.303 191.234 235.721 191.458 235.007 191.458C234.292 191.458 233.705 191.234 233.247 190.786C232.799 190.338 232.575 189.725 232.575 188.946ZM242.335 186.658L235.951 197.794H234.159L240.543 186.658H242.335ZM235.007 187.554C234.335 187.554 233.999 188.018 233.999 188.946C233.999 189.885 234.335 190.354 235.007 190.354C235.327 190.354 235.572 190.242 235.743 190.018C235.924 189.783 236.015 189.426 236.015 188.946C236.015 188.018 235.679 187.554 235.007 187.554ZM239.087 195.49C239.087 194.711 239.311 194.103 239.759 193.666C240.217 193.218 240.804 192.994 241.519 192.994C242.223 192.994 242.799 193.218 243.247 193.666C243.705 194.103 243.935 194.711 243.935 195.49C243.935 196.269 243.705 196.882 243.247 197.33C242.799 197.778 242.223 198.002 241.519 198.002C240.804 198.002 240.217 197.778 239.759 197.33C239.311 196.882 239.087 196.269 239.087 195.49ZM241.503 194.098C240.831 194.098 240.495 194.562 240.495 195.49C240.495 196.418 240.831 196.882 241.503 196.882C242.175 196.882 242.511 196.418 242.511 195.49C242.511 194.562 242.175 194.098 241.503 194.098Z" fill="#5BC4BF"/>
<path d="M217.739 172.564V174.894H220.279V175.644H217.739V178.044H220.579V178.794H216.829V171.814H220.579V172.564H217.739ZM228.546 173.214C228.973 173.214 229.353 173.304 229.686 173.484C230.019 173.657 230.283 173.921 230.476 174.274C230.669 174.627 230.766 175.057 230.766 175.564V178.794H229.866V175.694C229.866 175.147 229.729 174.731 229.456 174.444C229.189 174.151 228.826 174.004 228.366 174.004C227.893 174.004 227.516 174.157 227.236 174.464C226.956 174.764 226.816 175.201 226.816 175.774V178.794H225.916V175.694C225.916 175.147 225.779 174.731 225.506 174.444C225.239 174.151 224.876 174.004 224.416 174.004C223.943 174.004 223.566 174.157 223.286 174.464C223.006 174.764 222.866 175.201 222.866 175.774V178.794H221.956V173.314H222.866V174.104C223.046 173.817 223.286 173.597 223.586 173.444C223.893 173.291 224.229 173.214 224.596 173.214C225.056 173.214 225.463 173.317 225.816 173.524C226.169 173.731 226.433 174.034 226.606 174.434C226.759 174.047 227.013 173.747 227.366 173.534C227.719 173.321 228.113 173.214 228.546 173.214ZM231.919 176.034C231.919 175.474 232.032 174.984 232.259 174.564C232.485 174.137 232.795 173.807 233.189 173.574C233.589 173.341 234.032 173.224 234.519 173.224C234.999 173.224 235.415 173.327 235.769 173.534C236.122 173.741 236.385 174.001 236.559 174.314V173.314H237.479V178.794H236.559V177.774C236.379 178.094 236.109 178.361 235.749 178.574C235.395 178.781 234.982 178.884 234.509 178.884C234.022 178.884 233.582 178.764 233.189 178.524C232.795 178.284 232.485 177.947 232.259 177.514C232.032 177.081 231.919 176.587 231.919 176.034ZM236.559 176.044C236.559 175.631 236.475 175.271 236.309 174.964C236.142 174.657 235.915 174.424 235.629 174.264C235.349 174.097 235.039 174.014 234.699 174.014C234.359 174.014 234.049 174.094 233.769 174.254C233.489 174.414 233.265 174.647 233.099 174.954C232.932 175.261 232.849 175.621 232.849 176.034C232.849 176.454 232.932 176.821 233.099 177.134C233.265 177.441 233.489 177.677 233.769 177.844C234.049 178.004 234.359 178.084 234.699 178.084C235.039 178.084 235.349 178.004 235.629 177.844C235.915 177.677 236.142 177.441 236.309 177.134C236.475 176.821 236.559 176.457 236.559 176.044ZM239.487 172.424C239.313 172.424 239.167 172.364 239.047 172.244C238.927 172.124 238.867 171.977 238.867 171.804C238.867 171.631 238.927 171.484 239.047 171.364C239.167 171.244 239.313 171.184 239.487 171.184C239.653 171.184 239.793 171.244 239.907 171.364C240.027 171.484 240.087 171.631 240.087 171.804C240.087 171.977 240.027 172.124 239.907 172.244C239.793 172.364 239.653 172.424 239.487 172.424ZM239.927 173.314V178.794H239.017V173.314H239.927ZM242.388 171.394V178.794H241.478V171.394H242.388Z" fill="#555555"/>
<circle cx="205.063" cy="175.141" r="3.99585" fill="#5BC4BF"/>
<path d="M218.027 245.201C219.051 244.316 219.856 243.59 220.443 243.025C221.04 242.449 221.536 241.852 221.931 241.233C222.326 240.614 222.523 239.996 222.523 239.377C222.523 238.737 222.368 238.236 222.059 237.873C221.76 237.51 221.286 237.329 220.635 237.329C220.006 237.329 219.515 237.532 219.163 237.937C218.822 238.332 218.64 238.865 218.619 239.537H216.859C216.891 238.321 217.254 237.393 217.947 236.753C218.651 236.102 219.542 235.777 220.619 235.777C221.782 235.777 222.688 236.097 223.339 236.737C224 237.377 224.331 238.23 224.331 239.297C224.331 240.065 224.134 240.806 223.739 241.521C223.355 242.225 222.891 242.86 222.347 243.425C221.814 243.98 221.131 244.625 220.299 245.361L219.579 246.001H224.651V247.521H216.875V246.193L218.027 245.201ZM226.253 241.697C226.253 239.852 226.563 238.412 227.181 237.377C227.811 236.332 228.888 235.809 230.413 235.809C231.939 235.809 233.011 236.332 233.629 237.377C234.259 238.412 234.573 239.852 234.573 241.697C234.573 243.564 234.259 245.025 233.629 246.081C233.011 247.126 231.939 247.649 230.413 247.649C228.888 247.649 227.811 247.126 227.181 246.081C226.563 245.025 226.253 243.564 226.253 241.697ZM232.781 241.697C232.781 240.833 232.723 240.102 232.605 239.505C232.499 238.908 232.275 238.422 231.933 238.049C231.592 237.665 231.085 237.473 230.413 237.473C229.741 237.473 229.235 237.665 228.893 238.049C228.552 238.422 228.323 238.908 228.205 239.505C228.099 240.102 228.045 240.833 228.045 241.697C228.045 242.593 228.099 243.345 228.205 243.953C228.312 244.561 228.536 245.052 228.877 245.425C229.229 245.798 229.741 245.985 230.413 245.985C231.085 245.985 231.592 245.798 231.933 245.425C232.285 245.052 232.515 244.561 232.621 243.953C232.728 243.345 232.781 242.593 232.781 241.697ZM236.215 238.833C236.215 238.054 236.439 237.446 236.887 237.009C237.346 236.561 237.933 236.337 238.647 236.337C239.362 236.337 239.943 236.561 240.391 237.009C240.85 237.446 241.079 238.054 241.079 238.833C241.079 239.612 240.85 240.225 240.391 240.673C239.943 241.121 239.362 241.345 238.647 241.345C237.933 241.345 237.346 241.121 236.887 240.673C236.439 240.225 236.215 239.612 236.215 238.833ZM245.975 236.545L239.591 247.681H237.799L244.183 236.545H245.975ZM238.647 237.441C237.975 237.441 237.639 237.905 237.639 238.833C237.639 239.772 237.975 240.241 238.647 240.241C238.967 240.241 239.213 240.129 239.383 239.905C239.565 239.67 239.655 239.313 239.655 238.833C239.655 237.905 239.319 237.441 238.647 237.441ZM242.727 245.377C242.727 244.598 242.951 243.99 243.399 243.553C243.858 243.105 244.445 242.881 245.159 242.881C245.863 242.881 246.439 243.105 246.887 243.553C247.346 243.99 247.575 244.598 247.575 245.377C247.575 246.156 247.346 246.769 246.887 247.217C246.439 247.665 245.863 247.889 245.159 247.889C244.445 247.889 243.858 247.665 243.399 247.217C242.951 246.769 242.727 246.156 242.727 245.377ZM245.143 243.985C244.471 243.985 244.135 244.449 244.135 245.377C244.135 246.305 244.471 246.769 245.143 246.769C245.815 246.769 246.151 246.305 246.151 245.377C246.151 244.449 245.815 243.985 245.143 243.985Z" fill="#B69FB3"/>
<path d="M217.739 221.711V228.681H216.829V221.711H217.739ZM221.96 223.101C222.627 223.101 223.167 223.304 223.58 223.711C223.993 224.111 224.2 224.691 224.2 225.451V228.681H223.3V225.581C223.3 225.034 223.163 224.618 222.89 224.331C222.617 224.038 222.243 223.891 221.77 223.891C221.29 223.891 220.907 224.041 220.62 224.341C220.34 224.641 220.2 225.078 220.2 225.651V228.681H219.29V223.201H220.2V223.981C220.38 223.701 220.623 223.484 220.93 223.331C221.243 223.178 221.587 223.101 221.96 223.101ZM226.797 223.951V227.181C226.797 227.448 226.853 227.638 226.967 227.751C227.08 227.858 227.277 227.911 227.557 227.911H228.227V228.681H227.407C226.9 228.681 226.52 228.564 226.267 228.331C226.013 228.098 225.887 227.714 225.887 227.181V223.951H225.177V223.201H225.887V221.821H226.797V223.201H228.227V223.951H226.797ZM234.329 225.731C234.329 225.904 234.319 226.088 234.299 226.281H229.919C229.952 226.821 230.136 227.244 230.469 227.551C230.809 227.851 231.219 228.001 231.699 228.001C232.092 228.001 232.419 227.911 232.679 227.731C232.946 227.544 233.132 227.298 233.239 226.991H234.219C234.072 227.518 233.779 227.948 233.339 228.281C232.899 228.608 232.352 228.771 231.699 228.771C231.179 228.771 230.712 228.654 230.299 228.421C229.892 228.188 229.572 227.858 229.339 227.431C229.106 226.998 228.989 226.498 228.989 225.931C228.989 225.364 229.102 224.868 229.329 224.441C229.556 224.014 229.872 223.688 230.279 223.461C230.692 223.228 231.166 223.111 231.699 223.111C232.219 223.111 232.679 223.224 233.079 223.451C233.479 223.678 233.786 223.991 233.999 224.391C234.219 224.784 234.329 225.231 234.329 225.731ZM233.389 225.541C233.389 225.194 233.312 224.898 233.159 224.651C233.006 224.398 232.796 224.208 232.529 224.081C232.269 223.948 231.979 223.881 231.659 223.881C231.199 223.881 230.806 224.028 230.479 224.321C230.159 224.614 229.976 225.021 229.929 225.541H233.389ZM236.44 224.091C236.6 223.778 236.827 223.534 237.12 223.361C237.42 223.188 237.784 223.101 238.21 223.101V224.041H237.97C236.95 224.041 236.44 224.594 236.44 225.701V228.681H235.53V223.201H236.44V224.091ZM241.931 223.101C242.597 223.101 243.137 223.304 243.551 223.711C243.964 224.111 244.171 224.691 244.171 225.451V228.681H243.271V225.581C243.271 225.034 243.134 224.618 242.861 224.331C242.587 224.038 242.214 223.891 241.741 223.891C241.261 223.891 240.877 224.041 240.591 224.341C240.311 224.641 240.171 225.078 240.171 225.651V228.681H239.261V223.201H240.171V223.981C240.351 223.701 240.594 223.484 240.901 223.331C241.214 223.178 241.557 223.101 241.931 223.101ZM250.657 225.731C250.657 225.904 250.647 226.088 250.627 226.281H246.247C246.281 226.821 246.464 227.244 246.797 227.551C247.137 227.851 247.547 228.001 248.027 228.001C248.421 228.001 248.747 227.911 249.007 227.731C249.274 227.544 249.461 227.298 249.567 226.991H250.547C250.401 227.518 250.107 227.948 249.667 228.281C249.227 228.608 248.681 228.771 248.027 228.771C247.507 228.771 247.041 228.654 246.627 228.421C246.221 228.188 245.901 227.858 245.667 227.431C245.434 226.998 245.317 226.498 245.317 225.931C245.317 225.364 245.431 224.868 245.657 224.441C245.884 224.014 246.201 223.688 246.607 223.461C247.021 223.228 247.494 223.111 248.027 223.111C248.547 223.111 249.007 223.224 249.407 223.451C249.807 223.678 250.114 223.991 250.327 224.391C250.547 224.784 250.657 225.231 250.657 225.731ZM249.717 225.541C249.717 225.194 249.641 224.898 249.487 224.651C249.334 224.398 249.124 224.208 248.857 224.081C248.597 223.948 248.307 223.881 247.987 223.881C247.527 223.881 247.134 224.028 246.807 224.321C246.487 224.614 246.304 225.021 246.257 225.541H249.717ZM252.968 223.951V227.181C252.968 227.448 253.025 227.638 253.138 227.751C253.252 227.858 253.448 227.911 253.728 227.911H254.398V228.681H253.578C253.072 228.681 252.692 228.564 252.438 228.331C252.185 228.098 252.058 227.714 252.058 227.181V223.951H251.348V223.201H252.058V221.821H252.968V223.201H254.398V223.951H252.968Z" fill="#555555"/>
<circle cx="205.063" cy="225.028" r="3.99585" fill="#B69FB3"/>
<path d="M216.779 88.0195V86.3555H220.107V98.0195H218.267V88.0195H216.779ZM230.133 87.9235H224.773V91.1075C224.997 90.8089 225.327 90.5582 225.765 90.3555C226.213 90.1529 226.687 90.0515 227.189 90.0515C228.085 90.0515 228.81 90.2435 229.365 90.6275C229.93 91.0115 230.33 91.4969 230.565 92.0835C230.81 92.6702 230.933 93.2889 230.933 93.9395C230.933 94.7289 230.778 95.4329 230.469 96.0515C230.17 96.6595 229.717 97.1395 229.109 97.4915C228.511 97.8435 227.775 98.0195 226.901 98.0195C225.738 98.0195 224.805 97.7315 224.101 97.1555C223.397 96.5795 222.975 95.8169 222.837 94.8675H224.613C224.73 95.3689 224.991 95.7689 225.397 96.0675C225.802 96.3555 226.309 96.4995 226.917 96.4995C227.674 96.4995 228.239 96.2702 228.613 95.8115C228.997 95.3529 229.189 94.7449 229.189 93.9875C229.189 93.2195 228.997 92.6329 228.613 92.2275C228.229 91.8115 227.663 91.6035 226.917 91.6035C226.394 91.6035 225.951 91.7369 225.589 92.0035C225.237 92.2595 224.981 92.6115 224.821 93.0595H223.093V86.3235H230.133V87.9235ZM232.544 89.1715C232.544 88.3929 232.768 87.7849 233.216 87.3475C233.674 86.8995 234.261 86.6755 234.976 86.6755C235.69 86.6755 236.272 86.8995 236.72 87.3475C237.178 87.7849 237.408 88.3929 237.408 89.1715C237.408 89.9502 237.178 90.5635 236.72 91.0115C236.272 91.4595 235.69 91.6835 234.976 91.6835C234.261 91.6835 233.674 91.4595 233.216 91.0115C232.768 90.5635 232.544 89.9502 232.544 89.1715ZM242.304 86.8835L235.92 98.0195H234.128L240.512 86.8835H242.304ZM234.976 87.7795C234.304 87.7795 233.968 88.2435 233.968 89.1715C233.968 90.1102 234.304 90.5795 234.976 90.5795C235.296 90.5795 235.541 90.4675 235.712 90.2435C235.893 90.0089 235.984 89.6515 235.984 89.1715C235.984 88.2435 235.648 87.7795 234.976 87.7795ZM239.056 95.7155C239.056 94.9369 239.28 94.3289 239.728 93.8915C240.186 93.4435 240.773 93.2195 241.488 93.2195C242.192 93.2195 242.768 93.4435 243.216 93.8915C243.674 94.3289 243.904 94.9369 243.904 95.7155C243.904 96.4942 243.674 97.1075 243.216 97.5555C242.768 98.0035 242.192 98.2275 241.488 98.2275C240.773 98.2275 240.186 98.0035 239.728 97.5555C239.28 97.1075 239.056 96.4942 239.056 95.7155ZM241.472 94.3235C240.8 94.3235 240.464 94.7875 240.464 95.7155C240.464 96.6435 240.8 97.1075 241.472 97.1075C242.144 97.1075 242.48 96.6435 242.48 95.7155C242.48 94.7875 242.144 94.3235 241.472 94.3235Z" fill="#F7941D"/>
<path d="M217.739 78.2795H220.179V79.0195H216.829V72.0495H217.739V78.2795ZM220.805 76.2595C220.805 75.6995 220.919 75.2095 221.145 74.7895C221.372 74.3629 221.682 74.0329 222.075 73.7995C222.475 73.5662 222.919 73.4495 223.405 73.4495C223.885 73.4495 224.302 73.5529 224.655 73.7595C225.009 73.9662 225.272 74.2262 225.445 74.5395V73.5395H226.365V79.0195H225.445V77.9995C225.265 78.3195 224.995 78.5862 224.635 78.7995C224.282 79.0062 223.869 79.1095 223.395 79.1095C222.909 79.1095 222.469 78.9895 222.075 78.7495C221.682 78.5095 221.372 78.1729 221.145 77.7395C220.919 77.3062 220.805 76.8129 220.805 76.2595ZM225.445 76.2695C225.445 75.8562 225.362 75.4962 225.195 75.1895C225.029 74.8829 224.802 74.6495 224.515 74.4895C224.235 74.3229 223.925 74.2395 223.585 74.2395C223.245 74.2395 222.935 74.3195 222.655 74.4795C222.375 74.6395 222.152 74.8729 221.985 75.1795C221.819 75.4862 221.735 75.8462 221.735 76.2595C221.735 76.6795 221.819 77.0462 221.985 77.3595C222.152 77.6662 222.375 77.9029 222.655 78.0695C222.935 78.2295 223.245 78.3095 223.585 78.3095C223.925 78.3095 224.235 78.2295 224.515 78.0695C224.802 77.9029 225.029 77.6662 225.195 77.3595C225.362 77.0462 225.445 76.6829 225.445 76.2695ZM228.813 74.5495C228.993 74.2362 229.26 73.9762 229.613 73.7695C229.973 73.5562 230.39 73.4495 230.863 73.4495C231.35 73.4495 231.79 73.5662 232.183 73.7995C232.583 74.0329 232.897 74.3629 233.123 74.7895C233.35 75.2095 233.463 75.6995 233.463 76.2595C233.463 76.8129 233.35 77.3062 233.123 77.7395C232.897 78.1729 232.583 78.5095 232.183 78.7495C231.79 78.9895 231.35 79.1095 230.863 79.1095C230.397 79.1095 229.983 79.0062 229.623 78.7995C229.27 78.5862 229 78.3229 228.813 78.0095V81.6195H227.903V73.5395H228.813V74.5495ZM232.533 76.2595C232.533 75.8462 232.45 75.4862 232.283 75.1795C232.117 74.8729 231.89 74.6395 231.603 74.4795C231.323 74.3195 231.013 74.2395 230.673 74.2395C230.34 74.2395 230.03 74.3229 229.743 74.4895C229.463 74.6495 229.237 74.8862 229.063 75.1995C228.897 75.5062 228.813 75.8629 228.813 76.2695C228.813 76.6829 228.897 77.0462 229.063 77.3595C229.237 77.6662 229.463 77.9029 229.743 78.0695C230.03 78.2295 230.34 78.3095 230.673 78.3095C231.013 78.3095 231.323 78.2295 231.603 78.0695C231.89 77.9029 232.117 77.6662 232.283 77.3595C232.45 77.0462 232.533 76.6795 232.533 76.2595ZM235.771 74.2895V77.5195C235.771 77.7862 235.828 77.9762 235.941 78.0895C236.054 78.1962 236.251 78.2495 236.531 78.2495H237.201V79.0195H236.381C235.874 79.0195 235.494 78.9029 235.241 78.6695C234.988 78.4362 234.861 78.0529 234.861 77.5195V74.2895H234.151V73.5395H234.861V72.1595H235.771V73.5395H237.201V74.2895H235.771ZM240.694 79.1095C240.18 79.1095 239.714 78.9929 239.294 78.7595C238.88 78.5262 238.554 78.1962 238.314 77.7695C238.08 77.3362 237.964 76.8362 237.964 76.2695C237.964 75.7095 238.084 75.2162 238.324 74.7895C238.57 74.3562 238.904 74.0262 239.324 73.7995C239.744 73.5662 240.214 73.4495 240.734 73.4495C241.254 73.4495 241.724 73.5662 242.144 73.7995C242.564 74.0262 242.894 74.3529 243.134 74.7795C243.38 75.2062 243.504 75.7029 243.504 76.2695C243.504 76.8362 243.377 77.3362 243.124 77.7695C242.877 78.1962 242.54 78.5262 242.114 78.7595C241.687 78.9929 241.214 79.1095 240.694 79.1095ZM240.694 78.3095C241.02 78.3095 241.327 78.2329 241.614 78.0795C241.9 77.9262 242.13 77.6962 242.304 77.3895C242.484 77.0829 242.574 76.7095 242.574 76.2695C242.574 75.8295 242.487 75.4562 242.314 75.1495C242.14 74.8429 241.914 74.6162 241.634 74.4695C241.354 74.3162 241.05 74.2395 240.724 74.2395C240.39 74.2395 240.084 74.3162 239.804 74.4695C239.53 74.6162 239.31 74.8429 239.144 75.1495C238.977 75.4562 238.894 75.8295 238.894 76.2695C238.894 76.7162 238.974 77.0929 239.134 77.3995C239.3 77.7062 239.52 77.9362 239.794 78.0895C240.067 78.2362 240.367 78.3095 240.694 78.3095ZM245.61 74.5495C245.79 74.2362 246.057 73.9762 246.41 73.7695C246.77 73.5562 247.187 73.4495 247.66 73.4495C248.147 73.4495 248.587 73.5662 248.98 73.7995C249.38 74.0329 249.694 74.3629 249.92 74.7895C250.147 75.2095 250.26 75.6995 250.26 76.2595C250.26 76.8129 250.147 77.3062 249.92 77.7395C249.694 78.1729 249.38 78.5095 248.98 78.7495C248.587 78.9895 248.147 79.1095 247.66 79.1095C247.194 79.1095 246.78 79.0062 246.42 78.7995C246.067 78.5862 245.797 78.3229 245.61 78.0095V81.6195H244.7V73.5395H245.61V74.5495ZM249.33 76.2595C249.33 75.8462 249.247 75.4862 249.08 75.1795C248.914 74.8729 248.687 74.6395 248.4 74.4795C248.12 74.3195 247.81 74.2395 247.47 74.2395C247.137 74.2395 246.827 74.3229 246.54 74.4895C246.26 74.6495 246.034 74.8862 245.86 75.1995C245.694 75.5062 245.61 75.8629 245.61 76.2695C245.61 76.6829 245.694 77.0462 245.86 77.3595C246.034 77.6662 246.26 77.9029 246.54 78.0695C246.827 78.2295 247.137 78.3095 247.47 78.3095C247.81 78.3095 248.12 78.2295 248.4 78.0695C248.687 77.9029 248.914 77.6662 249.08 77.3595C249.247 77.0462 249.33 76.6795 249.33 76.2595Z" fill="#555555"/>
<circle cx="205.063" cy="75.3667" r="3.99585" fill="#F7941D"/>
<path d="M91.2494 115.927V116.857H89.3994V122.877H88.2594V116.857H86.3994V115.927H91.2494ZM94.7939 122.967C94.2739 122.967 93.8039 122.85 93.3839 122.617C92.9639 122.377 92.6339 122.043 92.3939 121.617C92.1539 121.183 92.0339 120.683 92.0339 120.117C92.0339 119.557 92.1573 119.06 92.4039 118.627C92.6506 118.193 92.9873 117.86 93.4139 117.627C93.8406 117.393 94.3173 117.277 94.8439 117.277C95.3706 117.277 95.8473 117.393 96.2739 117.627C96.7006 117.86 97.0373 118.193 97.2839 118.627C97.5306 119.06 97.6539 119.557 97.6539 120.117C97.6539 120.677 97.5273 121.173 97.2739 121.607C97.0206 122.04 96.6739 122.377 96.2339 122.617C95.8006 122.85 95.3206 122.967 94.7939 122.967ZM94.7939 121.977C95.0873 121.977 95.3606 121.907 95.6139 121.767C95.8739 121.627 96.0839 121.417 96.2439 121.137C96.4039 120.857 96.4839 120.517 96.4839 120.117C96.4839 119.717 96.4073 119.38 96.2539 119.107C96.1006 118.827 95.8973 118.617 95.6439 118.477C95.3906 118.337 95.1173 118.267 94.8239 118.267C94.5306 118.267 94.2573 118.337 94.0039 118.477C93.7573 118.617 93.5606 118.827 93.4139 119.107C93.2673 119.38 93.1939 119.717 93.1939 120.117C93.1939 120.71 93.3439 121.17 93.6439 121.497C93.9506 121.817 94.3339 121.977 94.7939 121.977ZM100.111 118.297V121.347C100.111 121.553 100.158 121.703 100.251 121.797C100.351 121.883 100.518 121.927 100.751 121.927H101.451V122.877H100.551C100.038 122.877 99.6442 122.757 99.3709 122.517C99.0976 122.277 98.9609 121.887 98.9609 121.347V118.297H98.3109V117.367H98.9609V115.997H100.111V117.367H101.451V118.297H100.111ZM102.122 120.097C102.122 119.543 102.235 119.053 102.462 118.627C102.695 118.2 103.008 117.87 103.402 117.637C103.802 117.397 104.242 117.277 104.722 117.277C105.155 117.277 105.532 117.363 105.852 117.537C106.178 117.703 106.438 117.913 106.632 118.167V117.367H107.782V122.877H106.632V122.057C106.438 122.317 106.175 122.533 105.842 122.707C105.508 122.88 105.128 122.967 104.702 122.967C104.228 122.967 103.795 122.847 103.402 122.607C103.008 122.36 102.695 122.02 102.462 121.587C102.235 121.147 102.122 120.65 102.122 120.097ZM106.632 120.117C106.632 119.737 106.552 119.407 106.392 119.127C106.238 118.847 106.035 118.633 105.782 118.487C105.528 118.34 105.255 118.267 104.962 118.267C104.668 118.267 104.395 118.34 104.142 118.487C103.888 118.627 103.682 118.837 103.522 119.117C103.368 119.39 103.292 119.717 103.292 120.097C103.292 120.477 103.368 120.81 103.522 121.097C103.682 121.383 103.888 121.603 104.142 121.757C104.402 121.903 104.675 121.977 104.962 121.977C105.255 121.977 105.528 121.903 105.782 121.757C106.035 121.61 106.238 121.397 106.392 121.117C106.552 120.83 106.632 120.497 106.632 120.117ZM110.419 115.477V122.877H109.279V115.477H110.419Z" fill="#555555"/>
<path d="M73.5647 132.612V130.324H78.1407V146.362H75.6107V132.612H73.5647ZM81.1461 138.134C81.1461 135.596 81.5714 133.616 82.4221 132.194C83.2874 130.756 84.7687 130.038 86.8661 130.038C88.9634 130.038 90.4374 130.756 91.2881 132.194C92.1534 133.616 92.5861 135.596 92.5861 138.134C92.5861 140.7 92.1534 142.71 91.2881 144.162C90.4374 145.599 88.9634 146.318 86.8661 146.318C84.7687 146.318 83.2874 145.599 82.4221 144.162C81.5714 142.71 81.1461 140.7 81.1461 138.134ZM90.1221 138.134C90.1221 136.946 90.0414 135.941 89.8801 135.12C89.7334 134.298 89.4254 133.631 88.9561 133.118C88.4867 132.59 87.7901 132.326 86.8661 132.326C85.9421 132.326 85.2454 132.59 84.7761 133.118C84.3067 133.631 83.9914 134.298 83.8301 135.12C83.6834 135.941 83.6101 136.946 83.6101 138.134C83.6101 139.366 83.6834 140.4 83.8301 141.236C83.9767 142.072 84.2847 142.746 84.7541 143.26C85.2381 143.773 85.9421 144.03 86.8661 144.03C87.7901 144.03 88.4867 143.773 88.9561 143.26C89.4401 142.746 89.7554 142.072 89.9021 141.236C90.0487 140.4 90.1221 139.366 90.1221 138.134ZM94.7998 138.134C94.7998 135.596 95.2252 133.616 96.0758 132.194C96.9412 130.756 98.4225 130.038 100.52 130.038C102.617 130.038 104.091 130.756 104.942 132.194C105.807 133.616 106.24 135.596 106.24 138.134C106.24 140.7 105.807 142.71 104.942 144.162C104.091 145.599 102.617 146.318 100.52 146.318C98.4225 146.318 96.9412 145.599 96.0758 144.162C95.2252 142.71 94.7998 140.7 94.7998 138.134ZM103.776 138.134C103.776 136.946 103.695 135.941 103.534 135.12C103.387 134.298 103.079 133.631 102.61 133.118C102.14 132.59 101.444 132.326 100.52 132.326C99.5958 132.326 98.8992 132.59 98.4298 133.118C97.9605 133.631 97.6452 134.298 97.4838 135.12C97.3372 135.941 97.2638 136.946 97.2638 138.134C97.2638 139.366 97.3372 140.4 97.4838 141.236C97.6305 142.072 97.9385 142.746 98.4078 143.26C98.8918 143.773 99.5958 144.03 100.52 144.03C101.444 144.03 102.14 143.773 102.61 143.26C103.094 142.746 103.409 142.072 103.556 141.236C103.702 140.4 103.776 139.366 103.776 138.134ZM108.058 134.196C108.058 133.125 108.366 132.289 108.982 131.688C109.612 131.072 110.419 130.764 111.402 130.764C112.384 130.764 113.184 131.072 113.8 131.688C114.43 132.289 114.746 133.125 114.746 134.196C114.746 135.266 114.43 136.11 113.8 136.726C113.184 137.342 112.384 137.65 111.402 137.65C110.419 137.65 109.612 137.342 108.982 136.726C108.366 136.11 108.058 135.266 108.058 134.196ZM121.478 131.05L112.7 146.362H110.236L119.014 131.05H121.478ZM111.402 132.282C110.478 132.282 110.016 132.92 110.016 134.196C110.016 135.486 110.478 136.132 111.402 136.132C111.842 136.132 112.179 135.978 112.414 135.67C112.663 135.347 112.788 134.856 112.788 134.196C112.788 132.92 112.326 132.282 111.402 132.282ZM117.012 143.194C117.012 142.123 117.32 141.287 117.936 140.686C118.566 140.07 119.373 139.762 120.356 139.762C121.324 139.762 122.116 140.07 122.732 140.686C123.362 141.287 123.678 142.123 123.678 143.194C123.678 144.264 123.362 145.108 122.732 145.724C122.116 146.34 121.324 146.648 120.356 146.648C119.373 146.648 118.566 146.34 117.936 145.724C117.32 145.108 117.012 144.264 117.012 143.194ZM120.334 141.28C119.41 141.28 118.948 141.918 118.948 143.194C118.948 144.47 119.41 145.108 120.334 145.108C121.258 145.108 121.72 144.47 121.72 143.194C121.72 141.918 121.258 141.28 120.334 141.28Z" fill="#1296B0"/>
<defs>
<filter id="filter0_d_13_1091" x="49.9837" y="85.0156" width="97.2077" height="97.2077" filterUnits="userSpaceOnUse" color-interpolation-filters="sRGB">
<feFlood flood-opacity="0" result="BackgroundImageFix"/>
<feColorMatrix in="SourceAlpha" type="matrix" values="0 0 0 0 0 0 0 0 0 0 0 0 0 0 0 0 0 0 127 0" result="hardAlpha"/>
<feOffset/>
<feGaussianBlur stdDeviation="5.05808"/>
<feComposite in2="hardAlpha" operator="out"/>
<feColorMatrix type="matrix" values="0 0 0 0 0 0 0 0 0 0 0 0 0 0 0 0 0 0 0.04 0"/>
<feBlend mode="normal" in2="BackgroundImageFix" result="effect1_dropShadow_13_1091"/>
<feBlend mode="normal" in="SourceGraphic" in2="effect1_dropShadow_13_1091" result="shape"/>
</filter>
</defs>
</svg>
