<svg width="302" height="267" viewBox="0 0 302 267" fill="none" xmlns="http://www.w3.org/2000/svg">
<rect opacity="0.2" x="301.518" y="0.64502" width="265.948" height="300" rx="4" transform="rotate(90 301.518 0.64502)" fill="#E6E6E6"/>
<path d="M223.332 45.3781V44.0021L228.708 36.2901H230.916V43.7941H232.404V45.3781H230.916V47.8101H229.124V45.3781H223.332ZM229.204 38.1461L225.428 43.7941H229.204V38.1461ZM241.435 37.7141H236.075V40.8981C236.299 40.5994 236.63 40.3487 237.067 40.1461C237.515 39.9434 237.99 39.8421 238.491 39.8421C239.387 39.8421 240.112 40.0341 240.667 40.4181C241.232 40.8021 241.632 41.2874 241.867 41.8741C242.112 42.4607 242.235 43.0794 242.235 43.7301C242.235 44.5194 242.08 45.2234 241.771 45.8421C241.472 46.4501 241.019 46.9301 240.411 47.2821C239.814 47.6341 239.078 47.8101 238.203 47.8101C237.04 47.8101 236.107 47.5221 235.403 46.9461C234.699 46.3701 234.278 45.6074 234.139 44.6581H235.915C236.032 45.1594 236.294 45.5594 236.699 45.8581C237.104 46.1461 237.611 46.2901 238.219 46.2901C238.976 46.2901 239.542 46.0607 239.915 45.6021C240.299 45.1434 240.491 44.5354 240.491 43.7781C240.491 43.0101 240.299 42.4234 239.915 42.0181C239.531 41.6021 238.966 41.3941 238.219 41.3941C237.696 41.3941 237.254 41.5274 236.891 41.7941C236.539 42.0501 236.283 42.4021 236.123 42.8501H234.395V36.1141H241.435V37.7141ZM243.846 38.9621C243.846 38.1834 244.07 37.5754 244.518 37.1381C244.976 36.6901 245.563 36.4661 246.278 36.4661C246.992 36.4661 247.574 36.6901 248.022 37.1381C248.48 37.5754 248.71 38.1834 248.71 38.9621C248.71 39.7407 248.48 40.3541 248.022 40.8021C247.574 41.2501 246.992 41.4741 246.278 41.4741C245.563 41.4741 244.976 41.2501 244.518 40.8021C244.07 40.3541 243.846 39.7407 243.846 38.9621ZM253.606 36.6741L247.222 47.8101H245.43L251.814 36.6741H253.606ZM246.278 37.5701C245.606 37.5701 245.27 38.0341 245.27 38.9621C245.27 39.9007 245.606 40.3701 246.278 40.3701C246.598 40.3701 246.843 40.2581 247.014 40.0341C247.195 39.7994 247.286 39.4421 247.286 38.9621C247.286 38.0341 246.95 37.5701 246.278 37.5701ZM250.358 45.5061C250.358 44.7274 250.582 44.1194 251.03 43.6821C251.488 43.2341 252.075 43.0101 252.79 43.0101C253.494 43.0101 254.07 43.2341 254.518 43.6821C254.976 44.1194 255.206 44.7274 255.206 45.5061C255.206 46.2847 254.976 46.8981 254.518 47.3461C254.07 47.7941 253.494 48.0181 252.79 48.0181C252.075 48.0181 251.488 47.7941 251.03 47.3461C250.582 46.8981 250.358 46.2847 250.358 45.5061ZM252.774 44.1141C252.102 44.1141 251.766 44.5781 251.766 45.5061C251.766 46.4341 252.102 46.8981 252.774 46.8981C253.446 46.8981 253.782 46.4341 253.782 45.5061C253.782 44.5781 253.446 44.1141 252.774 44.1141Z" fill="#5BC4BF"/>
<path d="M227.486 27.2601H224.446L223.886 28.8101H222.926L225.446 21.8801H226.496L229.006 28.8101H228.046L227.486 27.2601ZM227.226 26.5201L225.966 23.0001L224.706 26.5201H227.226ZM232.044 28.9001C231.624 28.9001 231.247 28.8301 230.914 28.6901C230.581 28.5434 230.317 28.3434 230.124 28.0901C229.931 27.8301 229.824 27.5334 229.804 27.2001H230.744C230.771 27.4734 230.897 27.6967 231.124 27.8701C231.357 28.0434 231.661 28.1301 232.034 28.1301C232.381 28.1301 232.654 28.0534 232.854 27.9001C233.054 27.7467 233.154 27.5534 233.154 27.3201C233.154 27.0801 233.047 26.9034 232.834 26.7901C232.621 26.6701 232.291 26.5534 231.844 26.4401C231.437 26.3334 231.104 26.2267 230.844 26.1201C230.591 26.0067 230.371 25.8434 230.184 25.6301C230.004 25.4101 229.914 25.1234 229.914 24.7701C229.914 24.4901 229.997 24.2334 230.164 24.0001C230.331 23.7667 230.567 23.5834 230.874 23.4501C231.181 23.3101 231.531 23.2401 231.924 23.2401C232.531 23.2401 233.021 23.3934 233.394 23.7001C233.767 24.0067 233.967 24.4267 233.994 24.9601H233.084C233.064 24.6734 232.947 24.4434 232.734 24.2701C232.527 24.0967 232.247 24.0101 231.894 24.0101C231.567 24.0101 231.307 24.0801 231.114 24.2201C230.921 24.3601 230.824 24.5434 230.824 24.7701C230.824 24.9501 230.881 25.1001 230.994 25.2201C231.114 25.3334 231.261 25.4267 231.434 25.5001C231.614 25.5667 231.861 25.6434 232.174 25.7301C232.567 25.8367 232.887 25.9434 233.134 26.0501C233.381 26.1501 233.591 26.3034 233.764 26.5101C233.944 26.7167 234.037 26.9867 234.044 27.3201C234.044 27.6201 233.961 27.8901 233.794 28.1301C233.627 28.3701 233.391 28.5601 233.084 28.7001C232.784 28.8334 232.437 28.9001 232.044 28.9001ZM237.269 28.9001C236.849 28.9001 236.472 28.8301 236.139 28.6901C235.805 28.5434 235.542 28.3434 235.349 28.0901C235.155 27.8301 235.049 27.5334 235.029 27.2001H235.969C235.995 27.4734 236.122 27.6967 236.349 27.8701C236.582 28.0434 236.885 28.1301 237.259 28.1301C237.605 28.1301 237.879 28.0534 238.079 27.9001C238.279 27.7467 238.379 27.5534 238.379 27.3201C238.379 27.0801 238.272 26.9034 238.059 26.7901C237.845 26.6701 237.515 26.5534 237.069 26.4401C236.662 26.3334 236.329 26.2267 236.069 26.1201C235.815 26.0067 235.595 25.8434 235.409 25.6301C235.229 25.4101 235.139 25.1234 235.139 24.7701C235.139 24.4901 235.222 24.2334 235.389 24.0001C235.555 23.7667 235.792 23.5834 236.099 23.4501C236.405 23.3101 236.755 23.2401 237.149 23.2401C237.755 23.2401 238.245 23.3934 238.619 23.7001C238.992 24.0067 239.192 24.4267 239.219 24.9601H238.309C238.289 24.6734 238.172 24.4434 237.959 24.2701C237.752 24.0967 237.472 24.0101 237.119 24.0101C236.792 24.0101 236.532 24.0801 236.339 24.2201C236.145 24.3601 236.049 24.5434 236.049 24.7701C236.049 24.9501 236.105 25.1001 236.219 25.2201C236.339 25.3334 236.485 25.4267 236.659 25.5001C236.839 25.5667 237.085 25.6434 237.399 25.7301C237.792 25.8367 238.112 25.9434 238.359 26.0501C238.605 26.1501 238.815 26.3034 238.989 26.5101C239.169 26.7167 239.262 26.9867 239.269 27.3201C239.269 27.6201 239.185 27.8901 239.019 28.1301C238.852 28.3701 238.615 28.5601 238.309 28.7001C238.009 28.8334 237.662 28.9001 237.269 28.9001ZM245.553 25.8601C245.553 26.0334 245.543 26.2167 245.523 26.4101H241.143C241.177 26.9501 241.36 27.3734 241.693 27.6801C242.033 27.9801 242.443 28.1301 242.923 28.1301C243.317 28.1301 243.643 28.0401 243.903 27.8601C244.17 27.6734 244.357 27.4267 244.463 27.1201H245.443C245.297 27.6467 245.003 28.0767 244.563 28.4101C244.123 28.7367 243.577 28.9001 242.923 28.9001C242.403 28.9001 241.937 28.7834 241.523 28.5501C241.117 28.3167 240.797 27.9867 240.563 27.5601C240.33 27.1267 240.213 26.6267 240.213 26.0601C240.213 25.4934 240.327 24.9967 240.553 24.5701C240.78 24.1434 241.097 23.8167 241.503 23.5901C241.917 23.3567 242.39 23.2401 242.923 23.2401C243.443 23.2401 243.903 23.3534 244.303 23.5801C244.703 23.8067 245.01 24.1201 245.223 24.5201C245.443 24.9134 245.553 25.3601 245.553 25.8601ZM244.613 25.6701C244.613 25.3234 244.537 25.0267 244.383 24.7801C244.23 24.5267 244.02 24.3367 243.753 24.2101C243.493 24.0767 243.203 24.0101 242.883 24.0101C242.423 24.0101 242.03 24.1567 241.703 24.4501C241.383 24.7434 241.2 25.1501 241.153 25.6701H244.613ZM247.864 24.0801V27.3101C247.864 27.5767 247.921 27.7667 248.034 27.8801C248.148 27.9867 248.344 28.0401 248.624 28.0401H249.294V28.8101H248.474C247.968 28.8101 247.588 28.6934 247.334 28.4601C247.081 28.2267 246.954 27.8434 246.954 27.3101V24.0801H246.244V23.3301H246.954V21.9501H247.864V23.3301H249.294V24.0801H247.864Z" fill="#555555"/>
<circle cx="211.6" cy="25.1572" r="3.99585" fill="#5BC4BF"/>
<path d="M104.71 202.444C94.7315 203.365 84.672 202.105 75.2288 198.752C65.7856 195.399 57.1846 190.032 50.0217 183.024" stroke="#0DB53C" stroke-width="14.8157" stroke-linecap="round"/>
<path d="M30.4069 146.264C33.0915 160.69 40.2975 173.887 50.9817 183.945" stroke="#F7941D" stroke-width="14.8157" stroke-linecap="round"/>
<path d="M29.9914 143.78C28.1603 131.46 29.6923 118.874 34.4256 107.353" stroke="#77A2C7" stroke-width="14.8157" stroke-linecap="round"/>
<path d="M34.3889 107.443C39.7067 94.4471 48.8565 83.3795 60.6203 75.7129C72.384 68.0464 86.2038 64.1446 100.24 64.5269" stroke="#DA5DB6" stroke-width="14.8157" stroke-linecap="round"/>
<path d="M101.734 64.5838C119.151 65.4355 135.601 72.8386 147.789 85.3091C159.977 97.7796 167.001 114.396 167.453 131.827C167.905 149.258 161.752 166.216 150.227 179.302C138.702 192.387 122.657 200.633 105.308 202.386" stroke="#5BC4BF" stroke-width="14.8157" stroke-linecap="round"/>
<g filter="url(#filter0_d_0_1)">
<circle cx="98.3582" cy="133.619" r="38.4878" transform="rotate(45.3926 98.3582 133.619)" fill="white"/>
</g>
<path d="M91.02 116.713V117.643H89.17V123.663H88.03V117.643H86.17V116.713H91.02ZM94.5646 123.753C94.0446 123.753 93.5746 123.636 93.1546 123.403C92.7346 123.163 92.4046 122.829 92.1646 122.403C91.9246 121.969 91.8046 121.469 91.8046 120.903C91.8046 120.343 91.9279 119.846 92.1746 119.413C92.4212 118.979 92.7579 118.646 93.1846 118.413C93.6112 118.179 94.0879 118.063 94.6146 118.063C95.1412 118.063 95.6179 118.179 96.0446 118.413C96.4712 118.646 96.8079 118.979 97.0546 119.413C97.3012 119.846 97.4246 120.343 97.4246 120.903C97.4246 121.463 97.2979 121.959 97.0446 122.393C96.7912 122.826 96.4446 123.163 96.0046 123.403C95.5712 123.636 95.0912 123.753 94.5646 123.753ZM94.5646 122.763C94.8579 122.763 95.1312 122.693 95.3846 122.553C95.6446 122.413 95.8546 122.203 96.0146 121.923C96.1746 121.643 96.2546 121.303 96.2546 120.903C96.2546 120.503 96.1779 120.166 96.0246 119.893C95.8712 119.613 95.6679 119.403 95.4146 119.263C95.1612 119.123 94.8879 119.053 94.5946 119.053C94.3012 119.053 94.0279 119.123 93.7746 119.263C93.5279 119.403 93.3312 119.613 93.1846 119.893C93.0379 120.166 92.9646 120.503 92.9646 120.903C92.9646 121.496 93.1146 121.956 93.4146 122.283C93.7212 122.603 94.1046 122.763 94.5646 122.763ZM99.8815 119.083V122.133C99.8815 122.339 99.9282 122.489 100.022 122.583C100.122 122.669 100.288 122.713 100.522 122.713H101.222V123.663H100.322C99.8082 123.663 99.4148 123.543 99.1415 123.303C98.8682 123.063 98.7315 122.673 98.7315 122.133V119.083H98.0815V118.153H98.7315V116.783H99.8815V118.153H101.222V119.083H99.8815ZM101.892 120.883C101.892 120.329 102.006 119.839 102.232 119.413C102.466 118.986 102.779 118.656 103.172 118.423C103.572 118.183 104.012 118.063 104.492 118.063C104.926 118.063 105.302 118.149 105.622 118.323C105.949 118.489 106.209 118.699 106.402 118.953V118.153H107.552V123.663H106.402V122.843C106.209 123.103 105.946 123.319 105.612 123.493C105.279 123.666 104.899 123.753 104.472 123.753C103.999 123.753 103.566 123.633 103.172 123.393C102.779 123.146 102.466 122.806 102.232 122.373C102.006 121.933 101.892 121.436 101.892 120.883ZM106.402 120.903C106.402 120.523 106.322 120.193 106.162 119.913C106.009 119.633 105.806 119.419 105.552 119.273C105.299 119.126 105.026 119.053 104.732 119.053C104.439 119.053 104.166 119.126 103.912 119.273C103.659 119.413 103.452 119.623 103.292 119.903C103.139 120.176 103.062 120.503 103.062 120.883C103.062 121.263 103.139 121.596 103.292 121.883C103.452 122.169 103.659 122.389 103.912 122.543C104.172 122.689 104.446 122.763 104.732 122.763C105.026 122.763 105.299 122.689 105.552 122.543C105.806 122.396 106.009 122.183 106.162 121.903C106.322 121.616 106.402 121.283 106.402 120.903ZM110.19 116.263V123.663H109.05V116.263H110.19Z" fill="#555555"/>
<path d="M80.4795 142.792C80.6261 143.525 80.9415 144.082 81.4255 144.464C81.9095 144.845 82.5621 145.036 83.3835 145.036C84.4248 145.036 85.1875 144.625 85.6715 143.804C86.1555 142.982 86.3975 141.582 86.3975 139.602C86.0455 140.1 85.5468 140.489 84.9015 140.768C84.2708 141.032 83.5815 141.164 82.8335 141.164C81.8801 141.164 81.0148 140.973 80.2375 140.592C79.4601 140.196 78.8441 139.616 78.3895 138.854C77.9495 138.076 77.7295 137.138 77.7295 136.038C77.7295 134.424 78.1988 133.141 79.1375 132.188C80.0908 131.22 81.3961 130.736 83.0535 130.736C85.0481 130.736 86.4635 131.403 87.2995 132.738C88.1501 134.058 88.5755 136.089 88.5755 138.832C88.5755 140.724 88.4141 142.271 88.0915 143.474C87.7835 144.676 87.2408 145.586 86.4635 146.202C85.6861 146.818 84.6081 147.126 83.2295 147.126C81.6601 147.126 80.4501 146.715 79.5995 145.894C78.7488 145.072 78.2721 144.038 78.1695 142.792H80.4795ZM83.2735 139.052C84.1535 139.052 84.8428 138.78 85.3415 138.238C85.8548 137.68 86.1115 136.947 86.1115 136.038C86.1115 135.026 85.8401 134.241 85.2975 133.684C84.7695 133.112 84.0435 132.826 83.1195 132.826C82.1955 132.826 81.4621 133.119 80.9195 133.706C80.3915 134.278 80.1275 135.033 80.1275 135.972C80.1275 136.866 80.3841 137.607 80.8975 138.194C81.4255 138.766 82.2175 139.052 83.2735 139.052ZM90.8803 138.92C90.8803 136.382 91.3056 134.402 92.1563 132.98C93.0216 131.542 94.503 130.824 96.6003 130.824C98.6976 130.824 100.172 131.542 101.022 132.98C101.888 134.402 102.32 136.382 102.32 138.92C102.32 141.486 101.888 143.496 101.022 144.948C100.172 146.385 98.6976 147.104 96.6003 147.104C94.503 147.104 93.0216 146.385 92.1563 144.948C91.3056 143.496 90.8803 141.486 90.8803 138.92ZM99.8563 138.92C99.8563 137.732 99.7756 136.727 99.6143 135.906C99.4676 135.084 99.1596 134.417 98.6903 133.904C98.221 133.376 97.5243 133.112 96.6003 133.112C95.6763 133.112 94.9796 133.376 94.5103 133.904C94.041 134.417 93.7256 135.084 93.5643 135.906C93.4176 136.727 93.3443 137.732 93.3443 138.92C93.3443 140.152 93.4176 141.186 93.5643 142.022C93.711 142.858 94.019 143.532 94.4883 144.046C94.9723 144.559 95.6763 144.816 96.6003 144.816C97.5243 144.816 98.221 144.559 98.6903 144.046C99.1743 143.532 99.4896 142.858 99.6363 142.022C99.783 141.186 99.8563 140.152 99.8563 138.92ZM104.138 134.982C104.138 133.911 104.446 133.075 105.062 132.474C105.693 131.858 106.499 131.55 107.482 131.55C108.465 131.55 109.264 131.858 109.88 132.474C110.511 133.075 110.826 133.911 110.826 134.982C110.826 136.052 110.511 136.896 109.88 137.512C109.264 138.128 108.465 138.436 107.482 138.436C106.499 138.436 105.693 138.128 105.062 137.512C104.446 136.896 104.138 136.052 104.138 134.982ZM117.558 131.836L108.78 147.148H106.316L115.094 131.836H117.558ZM107.482 133.068C106.558 133.068 106.096 133.706 106.096 134.982C106.096 136.272 106.558 136.918 107.482 136.918C107.922 136.918 108.259 136.764 108.494 136.456C108.743 136.133 108.868 135.642 108.868 134.982C108.868 133.706 108.406 133.068 107.482 133.068ZM113.092 143.98C113.092 142.909 113.4 142.073 114.016 141.472C114.647 140.856 115.453 140.548 116.436 140.548C117.404 140.548 118.196 140.856 118.812 141.472C119.443 142.073 119.758 142.909 119.758 143.98C119.758 145.05 119.443 145.894 118.812 146.51C118.196 147.126 117.404 147.434 116.436 147.434C115.453 147.434 114.647 147.126 114.016 146.51C113.4 145.894 113.092 145.05 113.092 143.98ZM116.414 142.066C115.49 142.066 115.028 142.704 115.028 143.98C115.028 145.256 115.49 145.894 116.414 145.894C117.338 145.894 117.8 145.256 117.8 143.98C117.8 142.704 117.338 142.066 116.414 142.066Z" fill="#1296B0"/>
<path d="M231.076 187.617H225.716V190.801C225.94 190.503 226.27 190.252 226.708 190.049C227.156 189.847 227.63 189.745 228.132 189.745C229.028 189.745 229.753 189.937 230.308 190.321C230.873 190.705 231.273 191.191 231.508 191.777C231.753 192.364 231.876 192.983 231.876 193.633C231.876 194.423 231.721 195.127 231.412 195.745C231.113 196.353 230.66 196.833 230.052 197.185C229.454 197.537 228.718 197.713 227.844 197.713C226.681 197.713 225.748 197.425 225.044 196.849C224.34 196.273 223.918 195.511 223.78 194.561H225.556C225.673 195.063 225.934 195.463 226.34 195.761C226.745 196.049 227.252 196.193 227.86 196.193C228.617 196.193 229.182 195.964 229.556 195.505C229.94 195.047 230.132 194.439 230.132 193.681C230.132 192.913 229.94 192.327 229.556 191.921C229.172 191.505 228.606 191.297 227.86 191.297C227.337 191.297 226.894 191.431 226.532 191.697C226.18 191.953 225.924 192.305 225.764 192.753H224.036V186.017H231.076V187.617ZM233.486 188.865C233.486 188.087 233.71 187.479 234.158 187.041C234.617 186.593 235.204 186.369 235.918 186.369C236.633 186.369 237.214 186.593 237.662 187.041C238.121 187.479 238.35 188.087 238.35 188.865C238.35 189.644 238.121 190.257 237.662 190.705C237.214 191.153 236.633 191.377 235.918 191.377C235.204 191.377 234.617 191.153 234.158 190.705C233.71 190.257 233.486 189.644 233.486 188.865ZM243.246 186.577L236.862 197.713H235.07L241.454 186.577H243.246ZM235.918 187.473C235.246 187.473 234.91 187.937 234.91 188.865C234.91 189.804 235.246 190.273 235.918 190.273C236.238 190.273 236.484 190.161 236.654 189.937C236.836 189.703 236.926 189.345 236.926 188.865C236.926 187.937 236.59 187.473 235.918 187.473ZM239.998 195.409C239.998 194.631 240.222 194.023 240.67 193.585C241.129 193.137 241.716 192.913 242.43 192.913C243.134 192.913 243.71 193.137 244.158 193.585C244.617 194.023 244.846 194.631 244.846 195.409C244.846 196.188 244.617 196.801 244.158 197.249C243.71 197.697 243.134 197.921 242.43 197.921C241.716 197.921 241.129 197.697 240.67 197.249C240.222 196.801 239.998 196.188 239.998 195.409ZM242.414 194.017C241.742 194.017 241.406 194.481 241.406 195.409C241.406 196.337 241.742 196.801 242.414 196.801C243.086 196.801 243.422 196.337 243.422 195.409C243.422 194.481 243.086 194.017 242.414 194.017Z" fill="#77A2C7"/>
<path d="M223.026 175.223C223.026 174.543 223.179 173.933 223.486 173.393C223.792 172.847 224.209 172.42 224.736 172.113C225.269 171.807 225.859 171.653 226.506 171.653C227.266 171.653 227.929 171.837 228.496 172.203C229.062 172.57 229.476 173.09 229.736 173.763H228.646C228.452 173.343 228.172 173.02 227.806 172.793C227.446 172.567 227.012 172.453 226.506 172.453C226.019 172.453 225.582 172.567 225.196 172.793C224.809 173.02 224.506 173.343 224.286 173.763C224.066 174.177 223.956 174.663 223.956 175.223C223.956 175.777 224.066 176.263 224.286 176.683C224.506 177.097 224.809 177.417 225.196 177.643C225.582 177.87 226.019 177.983 226.506 177.983C227.012 177.983 227.446 177.873 227.806 177.653C228.172 177.427 228.452 177.103 228.646 176.683H229.736C229.476 177.35 229.062 177.867 228.496 178.233C227.929 178.593 227.266 178.773 226.506 178.773C225.859 178.773 225.269 178.623 224.736 178.323C224.209 178.017 223.792 177.593 223.486 177.053C223.179 176.513 223.026 175.903 223.026 175.223ZM233.81 173.133C234.224 173.133 234.597 173.223 234.93 173.403C235.264 173.577 235.524 173.84 235.71 174.193C235.904 174.547 236 174.977 236 175.483V178.713H235.1V175.613C235.1 175.067 234.964 174.65 234.69 174.363C234.417 174.07 234.044 173.923 233.57 173.923C233.09 173.923 232.707 174.073 232.42 174.373C232.14 174.673 232 175.11 232 175.683V178.713H231.09V171.313H232V174.013C232.18 173.733 232.427 173.517 232.74 173.363C233.06 173.21 233.417 173.133 233.81 173.133ZM237.147 175.953C237.147 175.393 237.26 174.903 237.487 174.483C237.713 174.057 238.023 173.727 238.417 173.493C238.817 173.26 239.26 173.143 239.747 173.143C240.227 173.143 240.643 173.247 240.997 173.453C241.35 173.66 241.613 173.92 241.787 174.233V173.233H242.707V178.713H241.787V177.693C241.607 178.013 241.337 178.28 240.977 178.493C240.623 178.7 240.21 178.803 239.737 178.803C239.25 178.803 238.81 178.683 238.417 178.443C238.023 178.203 237.713 177.867 237.487 177.433C237.26 177 237.147 176.507 237.147 175.953ZM241.787 175.963C241.787 175.55 241.703 175.19 241.537 174.883C241.37 174.577 241.143 174.343 240.857 174.183C240.577 174.017 240.267 173.933 239.927 173.933C239.587 173.933 239.277 174.013 238.997 174.173C238.717 174.333 238.493 174.567 238.327 174.873C238.16 175.18 238.077 175.54 238.077 175.953C238.077 176.373 238.16 176.74 238.327 177.053C238.493 177.36 238.717 177.597 238.997 177.763C239.277 177.923 239.587 178.003 239.927 178.003C240.267 178.003 240.577 177.923 240.857 177.763C241.143 177.597 241.37 177.36 241.537 177.053C241.703 176.74 241.787 176.377 241.787 175.963ZM246.915 173.133C247.581 173.133 248.121 173.337 248.535 173.743C248.948 174.143 249.155 174.723 249.155 175.483V178.713H248.255V175.613C248.255 175.067 248.118 174.65 247.845 174.363C247.571 174.07 247.198 173.923 246.725 173.923C246.245 173.923 245.861 174.073 245.575 174.373C245.295 174.673 245.155 175.11 245.155 175.683V178.713H244.245V173.233H245.155V174.013C245.335 173.733 245.578 173.517 245.885 173.363C246.198 173.21 246.541 173.133 246.915 173.133ZM252.901 173.143C253.374 173.143 253.788 173.247 254.141 173.453C254.501 173.66 254.768 173.92 254.941 174.233V173.233H255.861V178.833C255.861 179.333 255.754 179.777 255.541 180.163C255.328 180.557 255.021 180.863 254.621 181.083C254.228 181.303 253.768 181.413 253.241 181.413C252.521 181.413 251.921 181.243 251.441 180.903C250.961 180.563 250.678 180.1 250.591 179.513H251.491C251.591 179.847 251.798 180.113 252.111 180.313C252.424 180.52 252.801 180.623 253.241 180.623C253.741 180.623 254.148 180.467 254.461 180.153C254.781 179.84 254.941 179.4 254.941 178.833V177.683C254.761 178.003 254.494 178.27 254.141 178.483C253.788 178.697 253.374 178.803 252.901 178.803C252.414 178.803 251.971 178.683 251.571 178.443C251.178 178.203 250.868 177.867 250.641 177.433C250.414 177 250.301 176.507 250.301 175.953C250.301 175.393 250.414 174.903 250.641 174.483C250.868 174.057 251.178 173.727 251.571 173.493C251.971 173.26 252.414 173.143 252.901 173.143ZM254.941 175.963C254.941 175.55 254.858 175.19 254.691 174.883C254.524 174.577 254.298 174.343 254.011 174.183C253.731 174.017 253.421 173.933 253.081 173.933C252.741 173.933 252.431 174.013 252.151 174.173C251.871 174.333 251.648 174.567 251.481 174.873C251.314 175.18 251.231 175.54 251.231 175.953C251.231 176.373 251.314 176.74 251.481 177.053C251.648 177.36 251.871 177.597 252.151 177.763C252.431 177.923 252.741 178.003 253.081 178.003C253.421 178.003 253.731 177.923 254.011 177.763C254.298 177.597 254.524 177.36 254.691 177.053C254.858 176.74 254.941 176.377 254.941 175.963ZM262.399 175.763C262.399 175.937 262.389 176.12 262.369 176.313H257.989C258.022 176.853 258.206 177.277 258.539 177.583C258.879 177.883 259.289 178.033 259.769 178.033C260.162 178.033 260.489 177.943 260.749 177.763C261.016 177.577 261.202 177.33 261.309 177.023H262.289C262.142 177.55 261.849 177.98 261.409 178.313C260.969 178.64 260.422 178.803 259.769 178.803C259.249 178.803 258.782 178.687 258.369 178.453C257.962 178.22 257.642 177.89 257.409 177.463C257.176 177.03 257.059 176.53 257.059 175.963C257.059 175.397 257.172 174.9 257.399 174.473C257.626 174.047 257.942 173.72 258.349 173.493C258.762 173.26 259.236 173.143 259.769 173.143C260.289 173.143 260.749 173.257 261.149 173.483C261.549 173.71 261.856 174.023 262.069 174.423C262.289 174.817 262.399 175.263 262.399 175.763ZM261.459 175.573C261.459 175.227 261.382 174.93 261.229 174.683C261.076 174.43 260.866 174.24 260.599 174.113C260.339 173.98 260.049 173.913 259.729 173.913C259.269 173.913 258.876 174.06 258.549 174.353C258.229 174.647 258.046 175.053 257.999 175.573H261.459Z" fill="#555555"/>
<circle cx="211.6" cy="175.061" r="3.99585" fill="#77A2C7"/>
<path d="M223.316 237.681V236.017H226.644V247.681H224.804V237.681H223.316ZM229.149 241.697C229.149 239.852 229.459 238.412 230.077 237.377C230.707 236.332 231.784 235.809 233.309 235.809C234.835 235.809 235.907 236.332 236.525 237.377C237.155 238.412 237.469 239.852 237.469 241.697C237.469 243.564 237.155 245.025 236.525 246.081C235.907 247.126 234.835 247.649 233.309 247.649C231.784 247.649 230.707 247.126 230.077 246.081C229.459 245.025 229.149 243.564 229.149 241.697ZM235.677 241.697C235.677 240.833 235.619 240.102 235.501 239.505C235.395 238.908 235.171 238.422 234.829 238.049C234.488 237.665 233.981 237.473 233.309 237.473C232.637 237.473 232.131 237.665 231.789 238.049C231.448 238.422 231.219 238.908 231.101 239.505C230.995 240.102 230.941 240.833 230.941 241.697C230.941 242.593 230.995 243.345 231.101 243.953C231.208 244.561 231.432 245.052 231.773 245.425C232.125 245.798 232.637 245.985 233.309 245.985C233.981 245.985 234.488 245.798 234.829 245.425C235.181 245.052 235.411 244.561 235.517 243.953C235.624 243.345 235.677 242.593 235.677 241.697ZM239.111 238.833C239.111 238.054 239.335 237.446 239.783 237.009C240.242 236.561 240.829 236.337 241.543 236.337C242.258 236.337 242.839 236.561 243.287 237.009C243.746 237.446 243.975 238.054 243.975 238.833C243.975 239.612 243.746 240.225 243.287 240.673C242.839 241.121 242.258 241.345 241.543 241.345C240.829 241.345 240.242 241.121 239.783 240.673C239.335 240.225 239.111 239.612 239.111 238.833ZM248.871 236.545L242.487 247.681H240.695L247.079 236.545H248.871ZM241.543 237.441C240.871 237.441 240.535 237.905 240.535 238.833C240.535 239.772 240.871 240.241 241.543 240.241C241.863 240.241 242.109 240.129 242.279 239.905C242.461 239.67 242.551 239.313 242.551 238.833C242.551 237.905 242.215 237.441 241.543 237.441ZM245.623 245.377C245.623 244.598 245.847 243.99 246.295 243.553C246.754 243.105 247.341 242.881 248.055 242.881C248.759 242.881 249.335 243.105 249.783 243.553C250.242 243.99 250.471 244.598 250.471 245.377C250.471 246.156 250.242 246.769 249.783 247.217C249.335 247.665 248.759 247.889 248.055 247.889C247.341 247.889 246.754 247.665 246.295 247.217C245.847 246.769 245.623 246.156 245.623 245.377ZM248.039 243.985C247.367 243.985 247.031 244.449 247.031 245.377C247.031 246.305 247.367 246.769 248.039 246.769C248.711 246.769 249.047 246.305 249.047 245.377C249.047 244.449 248.711 243.985 248.039 243.985Z" fill="#0DB53C"/>
<path d="M225.576 228.751C225.116 228.751 224.702 228.671 224.336 228.511C223.976 228.344 223.692 228.118 223.486 227.831C223.279 227.538 223.172 227.201 223.166 226.821H224.136C224.169 227.148 224.302 227.424 224.536 227.651C224.776 227.871 225.122 227.981 225.576 227.981C226.009 227.981 226.349 227.874 226.596 227.661C226.849 227.441 226.976 227.161 226.976 226.821C226.976 226.554 226.902 226.338 226.756 226.171C226.609 226.004 226.426 225.878 226.206 225.791C225.986 225.704 225.689 225.611 225.316 225.511C224.856 225.391 224.486 225.271 224.206 225.151C223.932 225.031 223.696 224.844 223.496 224.591C223.302 224.331 223.206 223.984 223.206 223.551C223.206 223.171 223.302 222.834 223.496 222.541C223.689 222.248 223.959 222.021 224.306 221.861C224.659 221.701 225.062 221.621 225.516 221.621C226.169 221.621 226.702 221.784 227.116 222.111C227.536 222.438 227.772 222.871 227.826 223.411H226.826C226.792 223.144 226.652 222.911 226.406 222.711C226.159 222.504 225.832 222.401 225.426 222.401C225.046 222.401 224.736 222.501 224.496 222.701C224.256 222.894 224.136 223.168 224.136 223.521C224.136 223.774 224.206 223.981 224.346 224.141C224.492 224.301 224.669 224.424 224.876 224.511C225.089 224.591 225.386 224.684 225.766 224.791C226.226 224.918 226.596 225.044 226.876 225.171C227.156 225.291 227.396 225.481 227.596 225.741C227.796 225.994 227.896 226.341 227.896 226.781C227.896 227.121 227.806 227.441 227.626 227.741C227.446 228.041 227.179 228.284 226.826 228.471C226.472 228.658 226.056 228.751 225.576 228.751ZM234.235 225.731C234.235 225.904 234.225 226.088 234.205 226.281H229.825C229.858 226.821 230.042 227.244 230.375 227.551C230.715 227.851 231.125 228.001 231.605 228.001C231.998 228.001 232.325 227.911 232.585 227.731C232.852 227.544 233.038 227.298 233.145 226.991H234.125C233.978 227.518 233.685 227.948 233.245 228.281C232.805 228.608 232.258 228.771 231.605 228.771C231.085 228.771 230.618 228.654 230.205 228.421C229.798 228.188 229.478 227.858 229.245 227.431C229.012 226.998 228.895 226.498 228.895 225.931C228.895 225.364 229.008 224.868 229.235 224.441C229.462 224.014 229.778 223.688 230.185 223.461C230.598 223.228 231.072 223.111 231.605 223.111C232.125 223.111 232.585 223.224 232.985 223.451C233.385 223.678 233.692 223.991 233.905 224.391C234.125 224.784 234.235 225.231 234.235 225.731ZM233.295 225.541C233.295 225.194 233.218 224.898 233.065 224.651C232.912 224.398 232.702 224.208 232.435 224.081C232.175 223.948 231.885 223.881 231.565 223.881C231.105 223.881 230.712 224.028 230.385 224.321C230.065 224.614 229.882 225.021 229.835 225.541H233.295ZM236.346 224.091C236.506 223.778 236.733 223.534 237.026 223.361C237.326 223.188 237.689 223.101 238.116 223.101V224.041H237.876C236.856 224.041 236.346 224.594 236.346 225.701V228.681H235.436V223.201H236.346V224.091ZM241.206 227.841L242.906 223.201H243.876L241.726 228.681H240.666L238.516 223.201H239.496L241.206 227.841ZM245.242 222.311C245.069 222.311 244.922 222.251 244.802 222.131C244.682 222.011 244.622 221.864 244.622 221.691C244.622 221.518 244.682 221.371 244.802 221.251C244.922 221.131 245.069 221.071 245.242 221.071C245.409 221.071 245.549 221.131 245.662 221.251C245.782 221.371 245.842 221.518 245.842 221.691C245.842 221.864 245.782 222.011 245.662 222.131C245.549 222.251 245.409 222.311 245.242 222.311ZM245.682 223.201V228.681H244.772V223.201H245.682ZM246.893 225.931C246.893 225.364 247.006 224.871 247.233 224.451C247.46 224.024 247.773 223.694 248.173 223.461C248.58 223.228 249.043 223.111 249.563 223.111C250.236 223.111 250.79 223.274 251.223 223.601C251.663 223.928 251.953 224.381 252.093 224.961H251.113C251.02 224.628 250.836 224.364 250.563 224.171C250.296 223.978 249.963 223.881 249.563 223.881C249.043 223.881 248.623 224.061 248.303 224.421C247.983 224.774 247.823 225.278 247.823 225.931C247.823 226.591 247.983 227.101 248.303 227.461C248.623 227.821 249.043 228.001 249.563 228.001C249.963 228.001 250.296 227.908 250.563 227.721C250.83 227.534 251.013 227.268 251.113 226.921H252.093C251.946 227.481 251.653 227.931 251.213 228.271C250.773 228.604 250.223 228.771 249.563 228.771C249.043 228.771 248.58 228.654 248.173 228.421C247.773 228.188 247.46 227.858 247.233 227.431C247.006 227.004 246.893 226.504 246.893 225.931ZM258.307 225.731C258.307 225.904 258.297 226.088 258.277 226.281H253.897C253.93 226.821 254.114 227.244 254.447 227.551C254.787 227.851 255.197 228.001 255.677 228.001C256.07 228.001 256.397 227.911 256.657 227.731C256.924 227.544 257.11 227.298 257.217 226.991H258.197C258.05 227.518 257.757 227.948 257.317 228.281C256.877 228.608 256.33 228.771 255.677 228.771C255.157 228.771 254.69 228.654 254.277 228.421C253.87 228.188 253.55 227.858 253.317 227.431C253.084 226.998 252.967 226.498 252.967 225.931C252.967 225.364 253.08 224.868 253.307 224.441C253.534 224.014 253.85 223.688 254.257 223.461C254.67 223.228 255.144 223.111 255.677 223.111C256.197 223.111 256.657 223.224 257.057 223.451C257.457 223.678 257.764 223.991 257.977 224.391C258.197 224.784 258.307 225.231 258.307 225.731ZM257.367 225.541C257.367 225.194 257.29 224.898 257.137 224.651C256.984 224.398 256.774 224.208 256.507 224.081C256.247 223.948 255.957 223.881 255.637 223.881C255.177 223.881 254.784 224.028 254.457 224.321C254.137 224.614 253.954 225.021 253.907 225.541H257.367Z" fill="#555555"/>
<circle cx="211.6" cy="225.028" r="3.99585" fill="#0DB53C"/>
<path d="M224.564 145.266C225.588 144.38 226.393 143.655 226.98 143.09C227.577 142.514 228.073 141.916 228.468 141.298C228.862 140.679 229.06 140.06 229.06 139.442C229.06 138.802 228.905 138.3 228.596 137.938C228.297 137.575 227.822 137.394 227.172 137.394C226.542 137.394 226.052 137.596 225.7 138.002C225.358 138.396 225.177 138.93 225.156 139.602H223.396C223.428 138.386 223.79 137.458 224.484 136.818C225.188 136.167 226.078 135.842 227.156 135.842C228.318 135.842 229.225 136.162 229.876 136.802C230.537 137.442 230.868 138.295 230.868 139.362C230.868 140.13 230.67 140.871 230.276 141.586C229.892 142.29 229.428 142.924 228.884 143.49C228.35 144.044 227.668 144.69 226.836 145.426L226.116 146.066H231.188V147.586H223.412V146.258L224.564 145.266ZM232.79 141.762C232.79 139.916 233.099 138.476 233.718 137.442C234.347 136.396 235.425 135.874 236.95 135.874C238.475 135.874 239.547 136.396 240.166 137.442C240.795 138.476 241.11 139.916 241.11 141.762C241.11 143.628 240.795 145.09 240.166 146.146C239.547 147.191 238.475 147.714 236.95 147.714C235.425 147.714 234.347 147.191 233.718 146.146C233.099 145.09 232.79 143.628 232.79 141.762ZM239.318 141.762C239.318 140.898 239.259 140.167 239.142 139.57C239.035 138.972 238.811 138.487 238.47 138.114C238.129 137.73 237.622 137.538 236.95 137.538C236.278 137.538 235.771 137.73 235.43 138.114C235.089 138.487 234.859 138.972 234.742 139.57C234.635 140.167 234.582 140.898 234.582 141.762C234.582 142.658 234.635 143.41 234.742 144.018C234.849 144.626 235.073 145.116 235.414 145.49C235.766 145.863 236.278 146.05 236.95 146.05C237.622 146.05 238.129 145.863 238.47 145.49C238.822 145.116 239.051 144.626 239.158 144.018C239.265 143.41 239.318 142.658 239.318 141.762ZM242.752 138.898C242.752 138.119 242.976 137.511 243.424 137.074C243.883 136.626 244.469 136.402 245.184 136.402C245.899 136.402 246.48 136.626 246.928 137.074C247.387 137.511 247.616 138.119 247.616 138.898C247.616 139.676 247.387 140.29 246.928 140.738C246.48 141.186 245.899 141.41 245.184 141.41C244.469 141.41 243.883 141.186 243.424 140.738C242.976 140.29 242.752 139.676 242.752 138.898ZM252.512 136.61L246.128 147.746H244.336L250.72 136.61H252.512ZM245.184 137.506C244.512 137.506 244.176 137.97 244.176 138.898C244.176 139.836 244.512 140.306 245.184 140.306C245.504 140.306 245.749 140.194 245.92 139.97C246.101 139.735 246.192 139.378 246.192 138.898C246.192 137.97 245.856 137.506 245.184 137.506ZM249.264 145.442C249.264 144.663 249.488 144.055 249.936 143.618C250.395 143.17 250.981 142.946 251.696 142.946C252.4 142.946 252.976 143.17 253.424 143.618C253.883 144.055 254.112 144.663 254.112 145.442C254.112 146.22 253.883 146.834 253.424 147.282C252.976 147.73 252.4 147.954 251.696 147.954C250.981 147.954 250.395 147.73 249.936 147.282C249.488 146.834 249.264 146.22 249.264 145.442ZM251.68 144.05C251.008 144.05 250.672 144.514 250.672 145.442C250.672 146.37 251.008 146.834 251.68 146.834C252.352 146.834 252.688 146.37 252.688 145.442C252.688 144.514 252.352 144.05 251.68 144.05Z" fill="#DA5DB6"/>
<path d="M224.276 121.776V128.746H223.366V121.776H224.276ZM228.497 123.166C229.163 123.166 229.703 123.369 230.117 123.776C230.53 124.176 230.737 124.756 230.737 125.516V128.746H229.837V125.646C229.837 125.099 229.7 124.682 229.427 124.396C229.153 124.102 228.78 123.956 228.307 123.956C227.827 123.956 227.443 124.106 227.157 124.406C226.877 124.706 226.737 125.142 226.737 125.716V128.746H225.827V123.266H226.737V124.046C226.917 123.766 227.16 123.549 227.467 123.396C227.78 123.242 228.123 123.166 228.497 123.166ZM231.883 125.996C231.883 125.429 231.996 124.936 232.223 124.516C232.45 124.089 232.763 123.759 233.163 123.526C233.57 123.292 234.033 123.176 234.553 123.176C235.226 123.176 235.78 123.339 236.213 123.666C236.653 123.992 236.943 124.446 237.083 125.026H236.103C236.01 124.692 235.826 124.429 235.553 124.236C235.286 124.042 234.953 123.946 234.553 123.946C234.033 123.946 233.613 124.126 233.293 124.486C232.973 124.839 232.813 125.342 232.813 125.996C232.813 126.656 232.973 127.166 233.293 127.526C233.613 127.886 234.033 128.066 234.553 128.066C234.953 128.066 235.286 127.972 235.553 127.786C235.82 127.599 236.003 127.332 236.103 126.986H237.083C236.936 127.546 236.643 127.996 236.203 128.336C235.763 128.669 235.213 128.836 234.553 128.836C234.033 128.836 233.57 128.719 233.163 128.486C232.763 128.252 232.45 127.922 232.223 127.496C231.996 127.069 231.883 126.569 231.883 125.996ZM238.767 122.376C238.594 122.376 238.447 122.316 238.327 122.196C238.207 122.076 238.147 121.929 238.147 121.756C238.147 121.582 238.207 121.436 238.327 121.316C238.447 121.196 238.594 121.136 238.767 121.136C238.934 121.136 239.074 121.196 239.187 121.316C239.307 121.436 239.367 121.582 239.367 121.756C239.367 121.929 239.307 122.076 239.187 122.196C239.074 122.316 238.934 122.376 238.767 122.376ZM239.207 123.266V128.746H238.297V123.266H239.207ZM240.418 125.986C240.418 125.426 240.532 124.936 240.758 124.516C240.985 124.089 241.295 123.759 241.688 123.526C242.088 123.292 242.535 123.176 243.028 123.176C243.455 123.176 243.852 123.276 244.218 123.476C244.585 123.669 244.865 123.926 245.058 124.246V121.346H245.978V128.746H245.058V127.716C244.878 128.042 244.612 128.312 244.258 128.526C243.905 128.732 243.492 128.836 243.018 128.836C242.532 128.836 242.088 128.716 241.688 128.476C241.295 128.236 240.985 127.899 240.758 127.466C240.532 127.032 240.418 126.539 240.418 125.986ZM245.058 125.996C245.058 125.582 244.975 125.222 244.808 124.916C244.642 124.609 244.415 124.376 244.128 124.216C243.848 124.049 243.538 123.966 243.198 123.966C242.858 123.966 242.548 124.046 242.268 124.206C241.988 124.366 241.765 124.599 241.598 124.906C241.432 125.212 241.348 125.572 241.348 125.986C241.348 126.406 241.432 126.772 241.598 127.086C241.765 127.392 241.988 127.629 242.268 127.796C242.548 127.956 242.858 128.036 243.198 128.036C243.538 128.036 243.848 127.956 244.128 127.796C244.415 127.629 244.642 127.392 244.808 127.086C244.975 126.772 245.058 126.409 245.058 125.996ZM252.516 125.796C252.516 125.969 252.506 126.152 252.486 126.346H248.106C248.139 126.886 248.323 127.309 248.656 127.616C248.996 127.916 249.406 128.066 249.886 128.066C250.279 128.066 250.606 127.976 250.866 127.796C251.133 127.609 251.319 127.362 251.426 127.056H252.406C252.259 127.582 251.966 128.012 251.526 128.346C251.086 128.672 250.539 128.836 249.886 128.836C249.366 128.836 248.899 128.719 248.486 128.486C248.079 128.252 247.759 127.922 247.526 127.496C247.293 127.062 247.176 126.562 247.176 125.996C247.176 125.429 247.289 124.932 247.516 124.506C247.743 124.079 248.059 123.752 248.466 123.526C248.879 123.292 249.353 123.176 249.886 123.176C250.406 123.176 250.866 123.289 251.266 123.516C251.666 123.742 251.973 124.056 252.186 124.456C252.406 124.849 252.516 125.296 252.516 125.796ZM251.576 125.606C251.576 125.259 251.499 124.962 251.346 124.716C251.193 124.462 250.983 124.272 250.716 124.146C250.456 124.012 250.166 123.946 249.846 123.946C249.386 123.946 248.993 124.092 248.666 124.386C248.346 124.679 248.163 125.086 248.116 125.606H251.576ZM256.387 123.166C257.054 123.166 257.594 123.369 258.007 123.776C258.421 124.176 258.627 124.756 258.627 125.516V128.746H257.727V125.646C257.727 125.099 257.591 124.682 257.317 124.396C257.044 124.102 256.671 123.956 256.197 123.956C255.717 123.956 255.334 124.106 255.047 124.406C254.767 124.706 254.627 125.142 254.627 125.716V128.746H253.717V123.266H254.627V124.046C254.807 123.766 255.051 123.549 255.357 123.396C255.671 123.242 256.014 123.166 256.387 123.166ZM261.224 124.016V127.246C261.224 127.512 261.28 127.702 261.394 127.816C261.507 127.922 261.704 127.976 261.984 127.976H262.654V128.746H261.834C261.327 128.746 260.947 128.629 260.694 128.396C260.44 128.162 260.314 127.779 260.314 127.246V124.016H259.604V123.266H260.314V121.886H261.224V123.266H262.654V124.016H261.224ZM265.696 128.836C265.276 128.836 264.9 128.766 264.566 128.626C264.233 128.479 263.97 128.279 263.776 128.026C263.583 127.766 263.476 127.469 263.456 127.136H264.396C264.423 127.409 264.55 127.632 264.776 127.806C265.01 127.979 265.313 128.066 265.686 128.066C266.033 128.066 266.306 127.989 266.506 127.836C266.706 127.682 266.806 127.489 266.806 127.256C266.806 127.016 266.7 126.839 266.486 126.726C266.273 126.606 265.943 126.489 265.496 126.376C265.09 126.269 264.756 126.162 264.496 126.056C264.243 125.942 264.023 125.779 263.836 125.566C263.656 125.346 263.566 125.059 263.566 124.706C263.566 124.426 263.65 124.169 263.816 123.936C263.983 123.702 264.22 123.519 264.526 123.386C264.833 123.246 265.183 123.176 265.576 123.176C266.183 123.176 266.673 123.329 267.046 123.636C267.42 123.942 267.62 124.362 267.646 124.896H266.736C266.716 124.609 266.6 124.379 266.386 124.206C266.18 124.032 265.9 123.946 265.546 123.946C265.22 123.946 264.96 124.016 264.766 124.156C264.573 124.296 264.476 124.479 264.476 124.706C264.476 124.886 264.533 125.036 264.646 125.156C264.766 125.269 264.913 125.362 265.086 125.436C265.266 125.502 265.513 125.579 265.826 125.666C266.22 125.772 266.54 125.879 266.786 125.986C267.033 126.086 267.243 126.239 267.416 126.446C267.596 126.652 267.69 126.922 267.696 127.256C267.696 127.556 267.613 127.826 267.446 128.066C267.28 128.306 267.043 128.496 266.736 128.636C266.436 128.769 266.09 128.836 265.696 128.836Z" fill="#555555"/>
<circle cx="211.6" cy="125.093" r="3.99585" fill="#DA5DB6"/>
<path d="M223.316 87.7778V86.1138H226.644V97.7778H224.804V87.7778H223.316ZM229.149 91.7938C229.149 89.9485 229.459 88.5085 230.077 87.4738C230.707 86.4285 231.784 85.9058 233.309 85.9058C234.835 85.9058 235.907 86.4285 236.525 87.4738C237.155 88.5085 237.469 89.9485 237.469 91.7938C237.469 93.6605 237.155 95.1218 236.525 96.1778C235.907 97.2232 234.835 97.7458 233.309 97.7458C231.784 97.7458 230.707 97.2232 230.077 96.1778C229.459 95.1218 229.149 93.6605 229.149 91.7938ZM235.677 91.7938C235.677 90.9298 235.619 90.1992 235.501 89.6018C235.395 89.0045 235.171 88.5192 234.829 88.1458C234.488 87.7618 233.981 87.5698 233.309 87.5698C232.637 87.5698 232.131 87.7618 231.789 88.1458C231.448 88.5192 231.219 89.0045 231.101 89.6018C230.995 90.1992 230.941 90.9298 230.941 91.7938C230.941 92.6898 230.995 93.4418 231.101 94.0498C231.208 94.6578 231.432 95.1485 231.773 95.5218C232.125 95.8952 232.637 96.0818 233.309 96.0818C233.981 96.0818 234.488 95.8952 234.829 95.5218C235.181 95.1485 235.411 94.6578 235.517 94.0498C235.624 93.4418 235.677 92.6898 235.677 91.7938ZM239.111 88.9298C239.111 88.1512 239.335 87.5432 239.783 87.1058C240.242 86.6578 240.829 86.4338 241.543 86.4338C242.258 86.4338 242.839 86.6578 243.287 87.1058C243.746 87.5432 243.975 88.1512 243.975 88.9298C243.975 89.7085 243.746 90.3218 243.287 90.7698C242.839 91.2178 242.258 91.4418 241.543 91.4418C240.829 91.4418 240.242 91.2178 239.783 90.7698C239.335 90.3218 239.111 89.7085 239.111 88.9298ZM248.871 86.6418L242.487 97.7778H240.695L247.079 86.6418H248.871ZM241.543 87.5378C240.871 87.5378 240.535 88.0018 240.535 88.9298C240.535 89.8685 240.871 90.3378 241.543 90.3378C241.863 90.3378 242.109 90.2258 242.279 90.0018C242.461 89.7672 242.551 89.4098 242.551 88.9298C242.551 88.0018 242.215 87.5378 241.543 87.5378ZM245.623 95.4738C245.623 94.6952 245.847 94.0872 246.295 93.6498C246.754 93.2018 247.341 92.9778 248.055 92.9778C248.759 92.9778 249.335 93.2018 249.783 93.6498C250.242 94.0872 250.471 94.6952 250.471 95.4738C250.471 96.2525 250.242 96.8658 249.783 97.3138C249.335 97.7618 248.759 97.9858 248.055 97.9858C247.341 97.9858 246.754 97.7618 246.295 97.3138C245.847 96.8658 245.623 96.2525 245.623 95.4738ZM248.039 94.0818C247.367 94.0818 247.031 94.5458 247.031 95.4738C247.031 96.4018 247.367 96.8658 248.039 96.8658C248.711 96.8658 249.047 96.4018 249.047 95.4738C249.047 94.5458 248.711 94.0818 248.039 94.0818Z" fill="#F7941D"/>
<path d="M227.486 77.2278H224.446L223.886 78.7778H222.926L225.446 71.8478H226.496L229.006 78.7778H228.046L227.486 77.2278ZM227.226 76.4878L225.966 72.9678L224.706 76.4878H227.226ZM229.764 76.0278C229.764 75.4612 229.877 74.9678 230.104 74.5478C230.331 74.1212 230.644 73.7912 231.044 73.5578C231.451 73.3245 231.914 73.2078 232.434 73.2078C233.107 73.2078 233.661 73.3712 234.094 73.6978C234.534 74.0245 234.824 74.4778 234.964 75.0578H233.984C233.891 74.7245 233.707 74.4612 233.434 74.2678C233.167 74.0745 232.834 73.9778 232.434 73.9778C231.914 73.9778 231.494 74.1578 231.174 74.5178C230.854 74.8712 230.694 75.3745 230.694 76.0278C230.694 76.6878 230.854 77.1978 231.174 77.5578C231.494 77.9178 231.914 78.0978 232.434 78.0978C232.834 78.0978 233.167 78.0045 233.434 77.8178C233.701 77.6312 233.884 77.3645 233.984 77.0178H234.964C234.817 77.5778 234.524 78.0278 234.084 78.3678C233.644 78.7012 233.094 78.8678 232.434 78.8678C231.914 78.8678 231.451 78.7512 231.044 78.5178C230.644 78.2845 230.331 77.9545 230.104 77.5278C229.877 77.1012 229.764 76.6012 229.764 76.0278ZM235.838 76.0278C235.838 75.4612 235.952 74.9678 236.178 74.5478C236.405 74.1212 236.718 73.7912 237.118 73.5578C237.525 73.3245 237.988 73.2078 238.508 73.2078C239.182 73.2078 239.735 73.3712 240.168 73.6978C240.608 74.0245 240.898 74.4778 241.038 75.0578H240.058C239.965 74.7245 239.782 74.4612 239.508 74.2678C239.242 74.0745 238.908 73.9778 238.508 73.9778C237.988 73.9778 237.568 74.1578 237.248 74.5178C236.928 74.8712 236.768 75.3745 236.768 76.0278C236.768 76.6878 236.928 77.1978 237.248 77.5578C237.568 77.9178 237.988 78.0978 238.508 78.0978C238.908 78.0978 239.242 78.0045 239.508 77.8178C239.775 77.6312 239.958 77.3645 240.058 77.0178H241.038C240.892 77.5778 240.598 78.0278 240.158 78.3678C239.718 78.7012 239.168 78.8678 238.508 78.8678C237.988 78.8678 237.525 78.7512 237.118 78.5178C236.718 78.2845 236.405 77.9545 236.178 77.5278C235.952 77.1012 235.838 76.6012 235.838 76.0278ZM247.252 75.8278C247.252 76.0012 247.242 76.1845 247.222 76.3778H242.842C242.876 76.9178 243.059 77.3412 243.392 77.6478C243.732 77.9478 244.142 78.0978 244.622 78.0978C245.016 78.0978 245.342 78.0078 245.602 77.8278C245.869 77.6412 246.056 77.3945 246.162 77.0878H247.142C246.996 77.6145 246.702 78.0445 246.262 78.3778C245.822 78.7045 245.276 78.8678 244.622 78.8678C244.102 78.8678 243.636 78.7512 243.222 78.5178C242.816 78.2845 242.496 77.9545 242.262 77.5278C242.029 77.0945 241.912 76.5945 241.912 76.0278C241.912 75.4612 242.026 74.9645 242.252 74.5378C242.479 74.1112 242.796 73.7845 243.202 73.5578C243.616 73.3245 244.089 73.2078 244.622 73.2078C245.142 73.2078 245.602 73.3212 246.002 73.5478C246.402 73.7745 246.709 74.0878 246.922 74.4878C247.142 74.8812 247.252 75.3278 247.252 75.8278ZM246.312 75.6378C246.312 75.2912 246.236 74.9945 246.082 74.7478C245.929 74.4945 245.719 74.3045 245.452 74.1778C245.192 74.0445 244.902 73.9778 244.582 73.9778C244.122 73.9778 243.729 74.1245 243.402 74.4178C243.082 74.7112 242.899 75.1178 242.852 75.6378H246.312ZM250.394 78.8678C249.974 78.8678 249.597 78.7978 249.264 78.6578C248.93 78.5112 248.667 78.3112 248.474 78.0578C248.28 77.7978 248.174 77.5012 248.154 77.1678H249.094C249.12 77.4412 249.247 77.6645 249.474 77.8378C249.707 78.0112 250.01 78.0978 250.384 78.0978C250.73 78.0978 251.004 78.0212 251.204 77.8678C251.404 77.7145 251.504 77.5212 251.504 77.2878C251.504 77.0478 251.397 76.8712 251.184 76.7578C250.97 76.6378 250.64 76.5212 250.194 76.4078C249.787 76.3012 249.454 76.1945 249.194 76.0878C248.94 75.9745 248.72 75.8112 248.534 75.5978C248.354 75.3778 248.264 75.0912 248.264 74.7378C248.264 74.4578 248.347 74.2012 248.514 73.9678C248.68 73.7345 248.917 73.5512 249.224 73.4178C249.53 73.2778 249.88 73.2078 250.274 73.2078C250.88 73.2078 251.37 73.3612 251.744 73.6678C252.117 73.9745 252.317 74.3945 252.344 74.9278H251.434C251.414 74.6412 251.297 74.4112 251.084 74.2378C250.877 74.0645 250.597 73.9778 250.244 73.9778C249.917 73.9778 249.657 74.0478 249.464 74.1878C249.27 74.3278 249.174 74.5112 249.174 74.7378C249.174 74.9178 249.23 75.0678 249.344 75.1878C249.464 75.3012 249.61 75.3945 249.784 75.4678C249.964 75.5345 250.21 75.6112 250.524 75.6978C250.917 75.8045 251.237 75.9112 251.484 76.0178C251.73 76.1178 251.94 76.2712 252.114 76.4778C252.294 76.6845 252.387 76.9545 252.394 77.2878C252.394 77.5878 252.31 77.8578 252.144 78.0978C251.977 78.3378 251.74 78.5278 251.434 78.6678C251.134 78.8012 250.787 78.8678 250.394 78.8678ZM255.618 78.8678C255.198 78.8678 254.822 78.7978 254.488 78.6578C254.155 78.5112 253.892 78.3112 253.698 78.0578C253.505 77.7978 253.398 77.5012 253.378 77.1678H254.318C254.345 77.4412 254.472 77.6645 254.698 77.8378C254.932 78.0112 255.235 78.0978 255.608 78.0978C255.955 78.0978 256.228 78.0212 256.428 77.8678C256.628 77.7145 256.728 77.5212 256.728 77.2878C256.728 77.0478 256.622 76.8712 256.408 76.7578C256.195 76.6378 255.865 76.5212 255.418 76.4078C255.012 76.3012 254.678 76.1945 254.418 76.0878C254.165 75.9745 253.945 75.8112 253.758 75.5978C253.578 75.3778 253.488 75.0912 253.488 74.7378C253.488 74.4578 253.572 74.2012 253.738 73.9678C253.905 73.7345 254.142 73.5512 254.448 73.4178C254.755 73.2778 255.105 73.2078 255.498 73.2078C256.105 73.2078 256.595 73.3612 256.968 73.6678C257.342 73.9745 257.542 74.3945 257.568 74.9278H256.658C256.638 74.6412 256.522 74.4112 256.308 74.2378C256.102 74.0645 255.822 73.9778 255.468 73.9778C255.142 73.9778 254.882 74.0478 254.688 74.1878C254.495 74.3278 254.398 74.5112 254.398 74.7378C254.398 74.9178 254.455 75.0678 254.568 75.1878C254.688 75.3012 254.835 75.3945 255.008 75.4678C255.188 75.5345 255.435 75.6112 255.748 75.6978C256.142 75.8045 256.462 75.9112 256.708 76.0178C256.955 76.1178 257.165 76.2712 257.338 76.4778C257.518 76.6845 257.612 76.9545 257.618 77.2878C257.618 77.5878 257.535 77.8578 257.368 78.0978C257.202 78.3378 256.965 78.5278 256.658 78.6678C256.358 78.8012 256.012 78.8678 255.618 78.8678Z" fill="#555555"/>
<circle cx="211.6" cy="75.125" r="3.99585" fill="#F7941D"/>
<defs>
<filter id="filter0_d_0_1" x="50.6106" y="85.8716" width="95.4952" height="95.4952" filterUnits="userSpaceOnUse" color-interpolation-filters="sRGB">
<feFlood flood-opacity="0" result="BackgroundImageFix"/>
<feColorMatrix in="SourceAlpha" type="matrix" values="0 0 0 0 0 0 0 0 0 0 0 0 0 0 0 0 0 0 127 0" result="hardAlpha"/>
<feOffset/>
<feGaussianBlur stdDeviation="4.62991"/>
<feComposite in2="hardAlpha" operator="out"/>
<feColorMatrix type="matrix" values="0 0 0 0 0 0 0 0 0 0 0 0 0 0 0 0 0 0 0.04 0"/>
<feBlend mode="normal" in2="BackgroundImageFix" result="effect1_dropShadow_0_1"/>
<feBlend mode="normal" in="SourceGraphic" in2="effect1_dropShadow_0_1" result="shape"/>
</filter>
</defs>
</svg>
