<svg width="302" height="267" viewBox="0 0 302 267" fill="none" xmlns="http://www.w3.org/2000/svg">
<rect opacity="0.2" x="301.518" y="0.64502" width="265.948" height="300" rx="4" transform="rotate(90 301.518 0.64502)" fill="#E6E6E6"/>
<path d="M214.331 52.0414V50.6654L219.707 42.9534H221.915V50.4574H223.403V52.0414H221.915V54.4734H220.123V52.0414H214.331ZM220.203 44.8094L216.427 50.4574H220.203V44.8094ZM232.435 44.3774H227.075V47.5614C227.299 47.2627 227.63 47.0121 228.067 46.8094C228.515 46.6067 228.99 46.5054 229.491 46.5054C230.387 46.5054 231.112 46.6974 231.667 47.0814C232.232 47.4654 232.632 47.9507 232.867 48.5374C233.112 49.1241 233.235 49.7427 233.235 50.3934C233.235 51.1827 233.08 51.8867 232.771 52.5054C232.472 53.1134 232.019 53.5934 231.411 53.9454C230.814 54.2974 230.078 54.4734 229.203 54.4734C228.04 54.4734 227.107 54.1854 226.403 53.6094C225.699 53.0334 225.278 52.2707 225.139 51.3214H226.915C227.032 51.8227 227.294 52.2227 227.699 52.5214C228.104 52.8094 228.611 52.9534 229.219 52.9534C229.976 52.9534 230.542 52.7241 230.915 52.2654C231.299 51.8067 231.491 51.1987 231.491 50.4414C231.491 49.6734 231.299 49.0867 230.915 48.6814C230.531 48.2654 229.966 48.0574 229.219 48.0574C228.696 48.0574 228.254 48.1907 227.891 48.4574C227.539 48.7134 227.283 49.0654 227.123 49.5134H225.395V42.7774H232.435V44.3774ZM234.846 45.6254C234.846 44.8467 235.07 44.2387 235.518 43.8014C235.976 43.3534 236.563 43.1294 237.278 43.1294C237.992 43.1294 238.574 43.3534 239.022 43.8014C239.48 44.2387 239.71 44.8467 239.71 45.6254C239.71 46.4041 239.48 47.0174 239.022 47.4654C238.574 47.9134 237.992 48.1374 237.278 48.1374C236.563 48.1374 235.976 47.9134 235.518 47.4654C235.07 47.0174 234.846 46.4041 234.846 45.6254ZM244.606 43.3374L238.222 54.4734H236.43L242.814 43.3374H244.606ZM237.278 44.2334C236.606 44.2334 236.27 44.6974 236.27 45.6254C236.27 46.5641 236.606 47.0334 237.278 47.0334C237.598 47.0334 237.843 46.9214 238.014 46.6974C238.195 46.4627 238.286 46.1054 238.286 45.6254C238.286 44.6974 237.95 44.2334 237.278 44.2334ZM241.358 52.1694C241.358 51.3907 241.582 50.7827 242.03 50.3454C242.488 49.8974 243.075 49.6734 243.79 49.6734C244.494 49.6734 245.07 49.8974 245.518 50.3454C245.976 50.7827 246.206 51.3907 246.206 52.1694C246.206 52.9481 245.976 53.5614 245.518 54.0094C245.07 54.4574 244.494 54.6814 243.79 54.6814C243.075 54.6814 242.488 54.4574 242.03 54.0094C241.582 53.5614 241.358 52.9481 241.358 52.1694ZM243.774 50.7774C243.102 50.7774 242.766 51.2414 242.766 52.1694C242.766 53.0974 243.102 53.5614 243.774 53.5614C244.446 53.5614 244.782 53.0974 244.782 52.1694C244.782 51.2414 244.446 50.7774 243.774 50.7774Z" fill="#FB7158"/>
<path d="M215.275 17.2434V19.5734H217.815V20.3234H215.275V22.7234H218.115V23.4734H214.365V16.4934H218.115V17.2434H215.275ZM226.082 17.8934C226.509 17.8934 226.889 17.9834 227.222 18.1634C227.556 18.3367 227.819 18.6001 228.012 18.9534C228.206 19.3067 228.302 19.7367 228.302 20.2434V23.4734H227.402V20.3734C227.402 19.8267 227.266 19.4101 226.992 19.1234C226.726 18.8301 226.362 18.6834 225.902 18.6834C225.429 18.6834 225.052 18.8367 224.772 19.1434C224.492 19.4434 224.352 19.8801 224.352 20.4534V23.4734H223.452V20.3734C223.452 19.8267 223.316 19.4101 223.042 19.1234C222.776 18.8301 222.412 18.6834 221.952 18.6834C221.479 18.6834 221.102 18.8367 220.822 19.1434C220.542 19.4434 220.402 19.8801 220.402 20.4534V23.4734H219.492V17.9934H220.402V18.7834C220.582 18.4967 220.822 18.2767 221.122 18.1234C221.429 17.9701 221.766 17.8934 222.132 17.8934C222.592 17.8934 222.999 17.9967 223.352 18.2034C223.706 18.4101 223.969 18.7134 224.142 19.1134C224.296 18.7267 224.549 18.4267 224.902 18.2134C225.256 18.0001 225.649 17.8934 226.082 17.8934ZM229.455 20.7134C229.455 20.1534 229.568 19.6634 229.795 19.2434C230.022 18.8167 230.332 18.4867 230.725 18.2534C231.125 18.0201 231.568 17.9034 232.055 17.9034C232.535 17.9034 232.952 18.0067 233.305 18.2134C233.658 18.4201 233.922 18.6801 234.095 18.9934V17.9934H235.015V23.4734H234.095V22.4534C233.915 22.7734 233.645 23.0401 233.285 23.2534C232.932 23.4601 232.518 23.5634 232.045 23.5634C231.558 23.5634 231.118 23.4434 230.725 23.2034C230.332 22.9634 230.022 22.6267 229.795 22.1934C229.568 21.7601 229.455 21.2667 229.455 20.7134ZM234.095 20.7234C234.095 20.3101 234.012 19.9501 233.845 19.6434C233.678 19.3367 233.452 19.1034 233.165 18.9434C232.885 18.7767 232.575 18.6934 232.235 18.6934C231.895 18.6934 231.585 18.7734 231.305 18.9334C231.025 19.0934 230.802 19.3267 230.635 19.6334C230.468 19.9401 230.385 20.3001 230.385 20.7134C230.385 21.1334 230.468 21.5001 230.635 21.8134C230.802 22.1201 231.025 22.3567 231.305 22.5234C231.585 22.6834 231.895 22.7634 232.235 22.7634C232.575 22.7634 232.885 22.6834 233.165 22.5234C233.452 22.3567 233.678 22.1201 233.845 21.8134C234.012 21.5001 234.095 21.1367 234.095 20.7234ZM237.023 17.1034C236.85 17.1034 236.703 17.0434 236.583 16.9234C236.463 16.8034 236.403 16.6567 236.403 16.4834C236.403 16.3101 236.463 16.1634 236.583 16.0434C236.703 15.9234 236.85 15.8634 237.023 15.8634C237.19 15.8634 237.33 15.9234 237.443 16.0434C237.563 16.1634 237.623 16.3101 237.623 16.4834C237.623 16.6567 237.563 16.8034 237.443 16.9234C237.33 17.0434 237.19 17.1034 237.023 17.1034ZM237.463 17.9934V23.4734H236.553V17.9934H237.463ZM239.924 16.0734V23.4734H239.014V16.0734H239.924ZM249.621 23.4734H248.711L245.051 17.9234V23.4734H244.141V16.4934H245.051L248.711 22.0334V16.4934H249.621V23.4734ZM253.562 23.5634C253.049 23.5634 252.582 23.4467 252.162 23.2134C251.749 22.9801 251.422 22.6501 251.182 22.2234C250.949 21.7901 250.832 21.2901 250.832 20.7234C250.832 20.1634 250.952 19.6701 251.192 19.2434C251.439 18.8101 251.772 18.4801 252.192 18.2534C252.612 18.0201 253.082 17.9034 253.602 17.9034C254.122 17.9034 254.592 18.0201 255.012 18.2534C255.432 18.4801 255.762 18.8067 256.002 19.2334C256.249 19.6601 256.372 20.1567 256.372 20.7234C256.372 21.2901 256.245 21.7901 255.992 22.2234C255.745 22.6501 255.409 22.9801 254.982 23.2134C254.555 23.4467 254.082 23.5634 253.562 23.5634ZM253.562 22.7634C253.889 22.7634 254.195 22.6867 254.482 22.5334C254.769 22.3801 254.999 22.1501 255.172 21.8434C255.352 21.5367 255.442 21.1634 255.442 20.7234C255.442 20.2834 255.355 19.9101 255.182 19.6034C255.009 19.2967 254.782 19.0701 254.502 18.9234C254.222 18.7701 253.919 18.6934 253.592 18.6934C253.259 18.6934 252.952 18.7701 252.672 18.9234C252.399 19.0701 252.179 19.2967 252.012 19.6034C251.845 19.9101 251.762 20.2834 251.762 20.7234C251.762 21.1701 251.842 21.5467 252.002 21.8534C252.169 22.1601 252.389 22.3901 252.662 22.5434C252.935 22.6901 253.235 22.7634 253.562 22.7634ZM258.679 18.7434V21.9734C258.679 22.2401 258.735 22.4301 258.849 22.5434C258.962 22.6501 259.159 22.7034 259.439 22.7034H260.109V23.4734H259.289C258.782 23.4734 258.402 23.3567 258.149 23.1234C257.895 22.8901 257.769 22.5067 257.769 21.9734V18.7434H257.059V17.9934H257.769V16.6134H258.679V17.9934H260.109V18.7434H258.679ZM223.125 28.5034L221.105 35.4734H220.085L218.465 29.8634L216.785 35.4734L215.775 35.4834L213.825 28.5034H214.795L216.315 34.4134L217.995 28.5034H219.015L220.615 34.3934L222.145 28.5034H223.125ZM226.511 35.5634C225.998 35.5634 225.531 35.4467 225.111 35.2134C224.698 34.9801 224.371 34.6501 224.131 34.2234C223.898 33.7901 223.781 33.2901 223.781 32.7234C223.781 32.1634 223.901 31.6701 224.141 31.2434C224.388 30.8101 224.721 30.4801 225.141 30.2534C225.561 30.0201 226.031 29.9034 226.551 29.9034C227.071 29.9034 227.541 30.0201 227.961 30.2534C228.381 30.4801 228.711 30.8067 228.951 31.2334C229.198 31.6601 229.321 32.1567 229.321 32.7234C229.321 33.2901 229.195 33.7901 228.941 34.2234C228.695 34.6501 228.358 34.9801 227.931 35.2134C227.505 35.4467 227.031 35.5634 226.511 35.5634ZM226.511 34.7634C226.838 34.7634 227.145 34.6867 227.431 34.5334C227.718 34.3801 227.948 34.1501 228.121 33.8434C228.301 33.5367 228.391 33.1634 228.391 32.7234C228.391 32.2834 228.305 31.9101 228.131 31.6034C227.958 31.2967 227.731 31.0701 227.451 30.9234C227.171 30.7701 226.868 30.6934 226.541 30.6934C226.208 30.6934 225.901 30.7701 225.621 30.9234C225.348 31.0701 225.128 31.2967 224.961 31.6034C224.795 31.9101 224.711 32.2834 224.711 32.7234C224.711 33.1701 224.791 33.5467 224.951 33.8534C225.118 34.1601 225.338 34.3901 225.611 34.5434C225.885 34.6901 226.185 34.7634 226.511 34.7634ZM231.428 30.8834C231.588 30.5701 231.814 30.3267 232.108 30.1534C232.408 29.9801 232.771 29.8934 233.198 29.8934V30.8334H232.958C231.938 30.8334 231.428 31.3867 231.428 32.4934V35.4734H230.518V29.9934H231.428V30.8834ZM237.308 35.4734L235.158 33.0534V35.4734H234.248V28.0734H235.158V32.4234L237.268 29.9934H238.538L235.958 32.7234L238.548 35.4734H237.308ZM239.865 29.1034C239.691 29.1034 239.545 29.0434 239.425 28.9234C239.305 28.8034 239.245 28.6567 239.245 28.4834C239.245 28.3101 239.305 28.1634 239.425 28.0434C239.545 27.9234 239.691 27.8634 239.865 27.8634C240.031 27.8634 240.171 27.9234 240.285 28.0434C240.405 28.1634 240.465 28.3101 240.465 28.4834C240.465 28.6567 240.405 28.8034 240.285 28.9234C240.171 29.0434 240.031 29.1034 239.865 29.1034ZM240.305 29.9934V35.4734H239.395V29.9934H240.305ZM244.526 29.8934C245.192 29.8934 245.732 30.0967 246.146 30.5034C246.559 30.9034 246.766 31.4834 246.766 32.2434V35.4734H245.866V32.3734C245.866 31.8267 245.729 31.4101 245.456 31.1234C245.182 30.8301 244.809 30.6834 244.336 30.6834C243.856 30.6834 243.472 30.8334 243.186 31.1334C242.906 31.4334 242.766 31.8701 242.766 32.4434V35.4734H241.856V29.9934H242.766V30.7734C242.946 30.4934 243.189 30.2767 243.496 30.1234C243.809 29.9701 244.152 29.8934 244.526 29.8934ZM250.512 29.9034C250.986 29.9034 251.399 30.0067 251.752 30.2134C252.112 30.4201 252.379 30.6801 252.552 30.9934V29.9934H253.472V35.5934C253.472 36.0934 253.366 36.5367 253.152 36.9234C252.939 37.3167 252.632 37.6234 252.232 37.8434C251.839 38.0634 251.379 38.1734 250.852 38.1734C250.132 38.1734 249.532 38.0034 249.052 37.6634C248.572 37.3234 248.289 36.8601 248.202 36.2734H249.102C249.202 36.6067 249.409 36.8734 249.722 37.0734C250.036 37.2801 250.412 37.3834 250.852 37.3834C251.352 37.3834 251.759 37.2267 252.072 36.9134C252.392 36.6001 252.552 36.1601 252.552 35.5934V34.4434C252.372 34.7634 252.106 35.0301 251.752 35.2434C251.399 35.4567 250.986 35.5634 250.512 35.5634C250.026 35.5634 249.582 35.4434 249.182 35.2034C248.789 34.9634 248.479 34.6267 248.252 34.1934C248.026 33.7601 247.912 33.2667 247.912 32.7134C247.912 32.1534 248.026 31.6634 248.252 31.2434C248.479 30.8167 248.789 30.4867 249.182 30.2534C249.582 30.0201 250.026 29.9034 250.512 29.9034ZM252.552 32.7234C252.552 32.3101 252.469 31.9501 252.302 31.6434C252.136 31.3367 251.909 31.1034 251.622 30.9434C251.342 30.7767 251.032 30.6934 250.692 30.6934C250.352 30.6934 250.042 30.7734 249.762 30.9334C249.482 31.0934 249.259 31.3267 249.092 31.6334C248.926 31.9401 248.842 32.3001 248.842 32.7134C248.842 33.1334 248.926 33.5001 249.092 33.8134C249.259 34.1201 249.482 34.3567 249.762 34.5234C250.042 34.6834 250.352 34.7634 250.692 34.7634C251.032 34.7634 251.342 34.6834 251.622 34.5234C251.909 34.3567 252.136 34.1201 252.302 33.8134C252.469 33.5001 252.552 33.1367 252.552 32.7234Z" fill="#555555"/>
<circle cx="202.6" cy="20.8206" r="3.99585" fill="#FB7158"/>
<path d="M214.331 192.822V191.446L219.707 183.734H221.915V191.238H223.403V192.822H221.915V195.254H220.123V192.822H214.331ZM220.203 185.59L216.427 191.238H220.203V185.59ZM232.435 185.158H227.075V188.342C227.299 188.044 227.63 187.793 228.067 187.59C228.515 187.388 228.99 187.286 229.491 187.286C230.387 187.286 231.112 187.478 231.667 187.862C232.232 188.246 232.632 188.732 232.867 189.318C233.112 189.905 233.235 190.524 233.235 191.174C233.235 191.964 233.08 192.668 232.771 193.286C232.472 193.894 232.019 194.374 231.411 194.726C230.814 195.078 230.078 195.254 229.203 195.254C228.04 195.254 227.107 194.966 226.403 194.39C225.699 193.814 225.278 193.052 225.139 192.102H226.915C227.032 192.604 227.294 193.004 227.699 193.302C228.104 193.59 228.611 193.734 229.219 193.734C229.976 193.734 230.542 193.505 230.915 193.046C231.299 192.588 231.491 191.98 231.491 191.222C231.491 190.454 231.299 189.868 230.915 189.462C230.531 189.046 229.966 188.838 229.219 188.838C228.696 188.838 228.254 188.972 227.891 189.238C227.539 189.494 227.283 189.846 227.123 190.294H225.395V183.558H232.435V185.158ZM234.846 186.406C234.846 185.628 235.07 185.02 235.518 184.582C235.976 184.134 236.563 183.91 237.278 183.91C237.992 183.91 238.574 184.134 239.022 184.582C239.48 185.02 239.71 185.628 239.71 186.406C239.71 187.185 239.48 187.798 239.022 188.246C238.574 188.694 237.992 188.918 237.278 188.918C236.563 188.918 235.976 188.694 235.518 188.246C235.07 187.798 234.846 187.185 234.846 186.406ZM244.606 184.118L238.222 195.254H236.43L242.814 184.118H244.606ZM237.278 185.014C236.606 185.014 236.27 185.478 236.27 186.406C236.27 187.345 236.606 187.814 237.278 187.814C237.598 187.814 237.843 187.702 238.014 187.478C238.195 187.244 238.286 186.886 238.286 186.406C238.286 185.478 237.95 185.014 237.278 185.014ZM241.358 192.95C241.358 192.172 241.582 191.564 242.03 191.126C242.488 190.678 243.075 190.454 243.79 190.454C244.494 190.454 245.07 190.678 245.518 191.126C245.976 191.564 246.206 192.172 246.206 192.95C246.206 193.729 245.976 194.342 245.518 194.79C245.07 195.238 244.494 195.462 243.79 195.462C243.075 195.462 242.488 195.238 242.03 194.79C241.582 194.342 241.358 193.729 241.358 192.95ZM243.774 191.558C243.102 191.558 242.766 192.022 242.766 192.95C242.766 193.878 243.102 194.342 243.774 194.342C244.446 194.342 244.782 193.878 244.782 192.95C244.782 192.022 244.446 191.558 243.774 191.558Z" fill="#DE64A1"/>
<path d="M216.575 164.324C216.115 164.324 215.702 164.244 215.335 164.084C214.975 163.918 214.692 163.691 214.485 163.404C214.279 163.111 214.172 162.774 214.165 162.394H215.135C215.169 162.721 215.302 162.998 215.535 163.224C215.775 163.444 216.122 163.554 216.575 163.554C217.009 163.554 217.349 163.448 217.595 163.234C217.849 163.014 217.975 162.734 217.975 162.394C217.975 162.128 217.902 161.911 217.755 161.744C217.609 161.578 217.425 161.451 217.205 161.364C216.985 161.278 216.689 161.184 216.315 161.084C215.855 160.964 215.485 160.844 215.205 160.724C214.932 160.604 214.695 160.418 214.495 160.164C214.302 159.904 214.205 159.558 214.205 159.124C214.205 158.744 214.302 158.408 214.495 158.114C214.689 157.821 214.959 157.594 215.305 157.434C215.659 157.274 216.062 157.194 216.515 157.194C217.169 157.194 217.702 157.358 218.115 157.684C218.535 158.011 218.772 158.444 218.825 158.984H217.825C217.792 158.718 217.652 158.484 217.405 158.284C217.159 158.078 216.832 157.974 216.425 157.974C216.045 157.974 215.735 158.074 215.495 158.274C215.255 158.468 215.135 158.741 215.135 159.094C215.135 159.348 215.205 159.554 215.345 159.714C215.492 159.874 215.669 159.998 215.875 160.084C216.089 160.164 216.385 160.258 216.765 160.364C217.225 160.491 217.595 160.618 217.875 160.744C218.155 160.864 218.395 161.054 218.595 161.314C218.795 161.568 218.895 161.914 218.895 162.354C218.895 162.694 218.805 163.014 218.625 163.314C218.445 163.614 218.179 163.858 217.825 164.044C217.472 164.231 217.055 164.324 216.575 164.324ZM224.955 158.774L221.655 166.834H220.715L221.795 164.194L219.585 158.774H220.595L222.315 163.214L224.015 158.774H224.955ZM227.809 164.344C227.389 164.344 227.013 164.274 226.679 164.134C226.346 163.988 226.083 163.788 225.889 163.534C225.696 163.274 225.589 162.978 225.569 162.644H226.509C226.536 162.918 226.663 163.141 226.889 163.314C227.123 163.488 227.426 163.574 227.799 163.574C228.146 163.574 228.419 163.498 228.619 163.344C228.819 163.191 228.919 162.998 228.919 162.764C228.919 162.524 228.813 162.348 228.599 162.234C228.386 162.114 228.056 161.998 227.609 161.884C227.203 161.778 226.869 161.671 226.609 161.564C226.356 161.451 226.136 161.288 225.949 161.074C225.769 160.854 225.679 160.568 225.679 160.214C225.679 159.934 225.763 159.678 225.929 159.444C226.096 159.211 226.333 159.028 226.639 158.894C226.946 158.754 227.296 158.684 227.689 158.684C228.296 158.684 228.786 158.838 229.159 159.144C229.533 159.451 229.733 159.871 229.759 160.404H228.849C228.829 160.118 228.713 159.888 228.499 159.714C228.293 159.541 228.013 159.454 227.659 159.454C227.333 159.454 227.073 159.524 226.879 159.664C226.686 159.804 226.589 159.988 226.589 160.214C226.589 160.394 226.646 160.544 226.759 160.664C226.879 160.778 227.026 160.871 227.199 160.944C227.379 161.011 227.626 161.088 227.939 161.174C228.333 161.281 228.653 161.388 228.899 161.494C229.146 161.594 229.356 161.748 229.529 161.954C229.709 162.161 229.803 162.431 229.809 162.764C229.809 163.064 229.726 163.334 229.559 163.574C229.393 163.814 229.156 164.004 228.849 164.144C228.549 164.278 228.203 164.344 227.809 164.344ZM232.204 159.524V162.754C232.204 163.021 232.261 163.211 232.374 163.324C232.487 163.431 232.684 163.484 232.964 163.484H233.634V164.254H232.814C232.307 164.254 231.927 164.138 231.674 163.904C231.421 163.671 231.294 163.288 231.294 162.754V159.524H230.584V158.774H231.294V157.394H232.204V158.774H233.634V159.524H232.204ZM239.737 161.304C239.737 161.478 239.727 161.661 239.707 161.854H235.327C235.36 162.394 235.543 162.818 235.877 163.124C236.217 163.424 236.627 163.574 237.107 163.574C237.5 163.574 237.827 163.484 238.087 163.304C238.353 163.118 238.54 162.871 238.647 162.564H239.627C239.48 163.091 239.187 163.521 238.747 163.854C238.307 164.181 237.76 164.344 237.107 164.344C236.587 164.344 236.12 164.228 235.707 163.994C235.3 163.761 234.98 163.431 234.747 163.004C234.513 162.571 234.397 162.071 234.397 161.504C234.397 160.938 234.51 160.441 234.737 160.014C234.963 159.588 235.28 159.261 235.687 159.034C236.1 158.801 236.573 158.684 237.107 158.684C237.627 158.684 238.087 158.798 238.487 159.024C238.887 159.251 239.193 159.564 239.407 159.964C239.627 160.358 239.737 160.804 239.737 161.304ZM238.797 161.114C238.797 160.768 238.72 160.471 238.567 160.224C238.413 159.971 238.203 159.781 237.937 159.654C237.677 159.521 237.387 159.454 237.067 159.454C236.607 159.454 236.213 159.601 235.887 159.894C235.567 160.188 235.383 160.594 235.337 161.114H238.797ZM247.528 158.674C247.954 158.674 248.334 158.764 248.668 158.944C249.001 159.118 249.264 159.381 249.458 159.734C249.651 160.088 249.748 160.518 249.748 161.024V164.254H248.848V161.154C248.848 160.608 248.711 160.191 248.438 159.904C248.171 159.611 247.808 159.464 247.348 159.464C246.874 159.464 246.498 159.618 246.218 159.924C245.938 160.224 245.798 160.661 245.798 161.234V164.254H244.898V161.154C244.898 160.608 244.761 160.191 244.488 159.904C244.221 159.611 243.858 159.464 243.398 159.464C242.924 159.464 242.548 159.618 242.268 159.924C241.988 160.224 241.848 160.661 241.848 161.234V164.254H240.938V158.774H241.848V159.564C242.028 159.278 242.268 159.058 242.568 158.904C242.874 158.751 243.211 158.674 243.578 158.674C244.038 158.674 244.444 158.778 244.798 158.984C245.151 159.191 245.414 159.494 245.588 159.894C245.741 159.508 245.994 159.208 246.348 158.994C246.701 158.781 247.094 158.674 247.528 158.674ZM254.376 157.884C254.203 157.884 254.056 157.824 253.936 157.704C253.816 157.584 253.756 157.438 253.756 157.264C253.756 157.091 253.816 156.944 253.936 156.824C254.056 156.704 254.203 156.644 254.376 156.644C254.543 156.644 254.683 156.704 254.796 156.824C254.916 156.944 254.976 157.091 254.976 157.264C254.976 157.438 254.916 157.584 254.796 157.704C254.683 157.824 254.543 157.884 254.376 157.884ZM254.816 158.774V164.254H253.906V158.774H254.816ZM258.307 164.344C257.887 164.344 257.511 164.274 257.177 164.134C256.844 163.988 256.581 163.788 256.387 163.534C256.194 163.274 256.087 162.978 256.067 162.644H257.007C257.034 162.918 257.161 163.141 257.387 163.314C257.621 163.488 257.924 163.574 258.297 163.574C258.644 163.574 258.917 163.498 259.117 163.344C259.317 163.191 259.417 162.998 259.417 162.764C259.417 162.524 259.311 162.348 259.097 162.234C258.884 162.114 258.554 161.998 258.107 161.884C257.701 161.778 257.367 161.671 257.107 161.564C256.854 161.451 256.634 161.288 256.447 161.074C256.267 160.854 256.177 160.568 256.177 160.214C256.177 159.934 256.261 159.678 256.427 159.444C256.594 159.211 256.831 159.028 257.137 158.894C257.444 158.754 257.794 158.684 258.187 158.684C258.794 158.684 259.284 158.838 259.657 159.144C260.031 159.451 260.231 159.871 260.257 160.404H259.347C259.327 160.118 259.211 159.888 258.997 159.714C258.791 159.541 258.511 159.454 258.157 159.454C257.831 159.454 257.571 159.524 257.377 159.664C257.184 159.804 257.087 159.988 257.087 160.214C257.087 160.394 257.144 160.544 257.257 160.664C257.377 160.778 257.524 160.871 257.697 160.944C257.877 161.011 258.124 161.088 258.437 161.174C258.831 161.281 259.151 161.388 259.397 161.494C259.644 161.594 259.854 161.748 260.027 161.954C260.207 162.161 260.301 162.431 260.307 162.764C260.307 163.064 260.224 163.334 260.057 163.574C259.891 163.814 259.654 164.004 259.347 164.144C259.047 164.278 258.701 164.344 258.307 164.344ZM266.928 158.674C267.595 158.674 268.135 158.878 268.548 159.284C268.961 159.684 269.168 160.264 269.168 161.024V164.254H268.268V161.154C268.268 160.608 268.131 160.191 267.858 159.904C267.585 159.611 267.211 159.464 266.738 159.464C266.258 159.464 265.875 159.614 265.588 159.914C265.308 160.214 265.168 160.651 265.168 161.224V164.254H264.258V158.774H265.168V159.554C265.348 159.274 265.591 159.058 265.898 158.904C266.211 158.751 266.555 158.674 266.928 158.674ZM273.045 164.344C272.531 164.344 272.065 164.228 271.645 163.994C271.231 163.761 270.905 163.431 270.665 163.004C270.431 162.571 270.315 162.071 270.315 161.504C270.315 160.944 270.435 160.451 270.675 160.024C270.921 159.591 271.255 159.261 271.675 159.034C272.095 158.801 272.565 158.684 273.085 158.684C273.605 158.684 274.075 158.801 274.495 159.034C274.915 159.261 275.245 159.588 275.485 160.014C275.731 160.441 275.855 160.938 275.855 161.504C275.855 162.071 275.728 162.571 275.475 163.004C275.228 163.431 274.891 163.761 274.465 163.994C274.038 164.228 273.565 164.344 273.045 164.344ZM273.045 163.544C273.371 163.544 273.678 163.468 273.965 163.314C274.251 163.161 274.481 162.931 274.655 162.624C274.835 162.318 274.925 161.944 274.925 161.504C274.925 161.064 274.838 160.691 274.665 160.384C274.491 160.078 274.265 159.851 273.985 159.704C273.705 159.551 273.401 159.474 273.075 159.474C272.741 159.474 272.435 159.551 272.155 159.704C271.881 159.851 271.661 160.078 271.495 160.384C271.328 160.691 271.245 161.064 271.245 161.504C271.245 161.951 271.325 162.328 271.485 162.634C271.651 162.941 271.871 163.171 272.145 163.324C272.418 163.471 272.718 163.544 273.045 163.544ZM278.161 159.524V162.754C278.161 163.021 278.218 163.211 278.331 163.324C278.444 163.431 278.641 163.484 278.921 163.484H279.591V164.254H278.771C278.264 164.254 277.884 164.138 277.631 163.904C277.378 163.671 277.251 163.288 277.251 162.754V159.524H276.541V158.774H277.251V157.394H278.161V158.774H279.591V159.524H278.161ZM223.125 169.284L221.105 176.254H220.085L218.465 170.644L216.785 176.254L215.775 176.264L213.825 169.284H214.795L216.315 175.194L217.995 169.284H219.015L220.615 175.174L222.145 169.284H223.125ZM226.511 176.344C225.998 176.344 225.531 176.228 225.111 175.994C224.698 175.761 224.371 175.431 224.131 175.004C223.898 174.571 223.781 174.071 223.781 173.504C223.781 172.944 223.901 172.451 224.141 172.024C224.388 171.591 224.721 171.261 225.141 171.034C225.561 170.801 226.031 170.684 226.551 170.684C227.071 170.684 227.541 170.801 227.961 171.034C228.381 171.261 228.711 171.588 228.951 172.014C229.198 172.441 229.321 172.938 229.321 173.504C229.321 174.071 229.195 174.571 228.941 175.004C228.695 175.431 228.358 175.761 227.931 175.994C227.505 176.228 227.031 176.344 226.511 176.344ZM226.511 175.544C226.838 175.544 227.145 175.468 227.431 175.314C227.718 175.161 227.948 174.931 228.121 174.624C228.301 174.318 228.391 173.944 228.391 173.504C228.391 173.064 228.305 172.691 228.131 172.384C227.958 172.078 227.731 171.851 227.451 171.704C227.171 171.551 226.868 171.474 226.541 171.474C226.208 171.474 225.901 171.551 225.621 171.704C225.348 171.851 225.128 172.078 224.961 172.384C224.795 172.691 224.711 173.064 224.711 173.504C224.711 173.951 224.791 174.328 224.951 174.634C225.118 174.941 225.338 175.171 225.611 175.324C225.885 175.471 226.185 175.544 226.511 175.544ZM231.428 171.664C231.588 171.351 231.814 171.108 232.108 170.934C232.408 170.761 232.771 170.674 233.198 170.674V171.614H232.958C231.938 171.614 231.428 172.168 231.428 173.274V176.254H230.518V170.774H231.428V171.664ZM237.308 176.254L235.158 173.834V176.254H234.248V168.854H235.158V173.204L237.268 170.774H238.538L235.958 173.504L238.548 176.254H237.308ZM239.865 169.884C239.691 169.884 239.545 169.824 239.425 169.704C239.305 169.584 239.245 169.438 239.245 169.264C239.245 169.091 239.305 168.944 239.425 168.824C239.545 168.704 239.691 168.644 239.865 168.644C240.031 168.644 240.171 168.704 240.285 168.824C240.405 168.944 240.465 169.091 240.465 169.264C240.465 169.438 240.405 169.584 240.285 169.704C240.171 169.824 240.031 169.884 239.865 169.884ZM240.305 170.774V176.254H239.395V170.774H240.305ZM244.526 170.674C245.192 170.674 245.732 170.878 246.146 171.284C246.559 171.684 246.766 172.264 246.766 173.024V176.254H245.866V173.154C245.866 172.608 245.729 172.191 245.456 171.904C245.182 171.611 244.809 171.464 244.336 171.464C243.856 171.464 243.472 171.614 243.186 171.914C242.906 172.214 242.766 172.651 242.766 173.224V176.254H241.856V170.774H242.766V171.554C242.946 171.274 243.189 171.058 243.496 170.904C243.809 170.751 244.152 170.674 244.526 170.674ZM250.512 170.684C250.986 170.684 251.399 170.788 251.752 170.994C252.112 171.201 252.379 171.461 252.552 171.774V170.774H253.472V176.374C253.472 176.874 253.366 177.318 253.152 177.704C252.939 178.098 252.632 178.404 252.232 178.624C251.839 178.844 251.379 178.954 250.852 178.954C250.132 178.954 249.532 178.784 249.052 178.444C248.572 178.104 248.289 177.641 248.202 177.054H249.102C249.202 177.388 249.409 177.654 249.722 177.854C250.036 178.061 250.412 178.164 250.852 178.164C251.352 178.164 251.759 178.008 252.072 177.694C252.392 177.381 252.552 176.941 252.552 176.374V175.224C252.372 175.544 252.106 175.811 251.752 176.024C251.399 176.238 250.986 176.344 250.512 176.344C250.026 176.344 249.582 176.224 249.182 175.984C248.789 175.744 248.479 175.408 248.252 174.974C248.026 174.541 247.912 174.048 247.912 173.494C247.912 172.934 248.026 172.444 248.252 172.024C248.479 171.598 248.789 171.268 249.182 171.034C249.582 170.801 250.026 170.684 250.512 170.684ZM252.552 173.504C252.552 173.091 252.469 172.731 252.302 172.424C252.136 172.118 251.909 171.884 251.622 171.724C251.342 171.558 251.032 171.474 250.692 171.474C250.352 171.474 250.042 171.554 249.762 171.714C249.482 171.874 249.259 172.108 249.092 172.414C248.926 172.721 248.842 173.081 248.842 173.494C248.842 173.914 248.926 174.281 249.092 174.594C249.259 174.901 249.482 175.138 249.762 175.304C250.042 175.464 250.352 175.544 250.692 175.544C251.032 175.544 251.342 175.464 251.622 175.304C251.909 175.138 252.136 174.901 252.302 174.594C252.469 174.281 252.552 173.918 252.552 173.504Z" fill="#555555"/>
<circle cx="202.6" cy="161.602" r="3.99585" fill="#DE64A1"/>
<path d="M214.331 247.749V246.373L219.707 238.661H221.915V246.165H223.403V247.749H221.915V250.181H220.123V247.749H214.331ZM220.203 240.517L216.427 246.165H220.203V240.517ZM232.435 240.085H227.075V243.269C227.299 242.97 227.63 242.72 228.067 242.517C228.515 242.314 228.99 242.213 229.491 242.213C230.387 242.213 231.112 242.405 231.667 242.789C232.232 243.173 232.632 243.658 232.867 244.245C233.112 244.832 233.235 245.45 233.235 246.101C233.235 246.89 233.08 247.594 232.771 248.213C232.472 248.821 232.019 249.301 231.411 249.653C230.814 250.005 230.078 250.181 229.203 250.181C228.04 250.181 227.107 249.893 226.403 249.317C225.699 248.741 225.278 247.978 225.139 247.029H226.915C227.032 247.53 227.294 247.93 227.699 248.229C228.104 248.517 228.611 248.661 229.219 248.661C229.976 248.661 230.542 248.432 230.915 247.973C231.299 247.514 231.491 246.906 231.491 246.149C231.491 245.381 231.299 244.794 230.915 244.389C230.531 243.973 229.966 243.765 229.219 243.765C228.696 243.765 228.254 243.898 227.891 244.165C227.539 244.421 227.283 244.773 227.123 245.221H225.395V238.485H232.435V240.085ZM234.846 241.333C234.846 240.554 235.07 239.946 235.518 239.509C235.976 239.061 236.563 238.837 237.278 238.837C237.992 238.837 238.574 239.061 239.022 239.509C239.48 239.946 239.71 240.554 239.71 241.333C239.71 242.112 239.48 242.725 239.022 243.173C238.574 243.621 237.992 243.845 237.278 243.845C236.563 243.845 235.976 243.621 235.518 243.173C235.07 242.725 234.846 242.112 234.846 241.333ZM244.606 239.045L238.222 250.181H236.43L242.814 239.045H244.606ZM237.278 239.941C236.606 239.941 236.27 240.405 236.27 241.333C236.27 242.272 236.606 242.741 237.278 242.741C237.598 242.741 237.843 242.629 238.014 242.405C238.195 242.17 238.286 241.813 238.286 241.333C238.286 240.405 237.95 239.941 237.278 239.941ZM241.358 247.877C241.358 247.098 241.582 246.49 242.03 246.053C242.488 245.605 243.075 245.381 243.79 245.381C244.494 245.381 245.07 245.605 245.518 246.053C245.976 246.49 246.206 247.098 246.206 247.877C246.206 248.656 245.976 249.269 245.518 249.717C245.07 250.165 244.494 250.389 243.79 250.389C243.075 250.389 242.488 250.165 242.03 249.717C241.582 249.269 241.358 248.656 241.358 247.877ZM243.774 246.485C243.102 246.485 242.766 246.949 242.766 247.877C242.766 248.805 243.102 249.269 243.774 249.269C244.446 249.269 244.782 248.805 244.782 247.877C244.782 246.949 244.446 246.485 243.774 246.485Z" fill="#77A2C7"/>
<path d="M215.275 212.951V215.281H217.815V216.031H215.275V218.431H218.115V219.181H214.365V212.201H218.115V212.951H215.275ZM226.082 213.601C226.509 213.601 226.889 213.691 227.222 213.871C227.556 214.044 227.819 214.308 228.012 214.661C228.206 215.014 228.302 215.444 228.302 215.951V219.181H227.402V216.081C227.402 215.534 227.266 215.118 226.992 214.831C226.726 214.538 226.362 214.391 225.902 214.391C225.429 214.391 225.052 214.544 224.772 214.851C224.492 215.151 224.352 215.588 224.352 216.161V219.181H223.452V216.081C223.452 215.534 223.316 215.118 223.042 214.831C222.776 214.538 222.412 214.391 221.952 214.391C221.479 214.391 221.102 214.544 220.822 214.851C220.542 215.151 220.402 215.588 220.402 216.161V219.181H219.492V213.701H220.402V214.491C220.582 214.204 220.822 213.984 221.122 213.831C221.429 213.678 221.766 213.601 222.132 213.601C222.592 213.601 222.999 213.704 223.352 213.911C223.706 214.118 223.969 214.421 224.142 214.821C224.296 214.434 224.549 214.134 224.902 213.921C225.256 213.708 225.649 213.601 226.082 213.601ZM229.455 216.421C229.455 215.861 229.568 215.371 229.795 214.951C230.022 214.524 230.332 214.194 230.725 213.961C231.125 213.728 231.568 213.611 232.055 213.611C232.535 213.611 232.952 213.714 233.305 213.921C233.658 214.128 233.922 214.388 234.095 214.701V213.701H235.015V219.181H234.095V218.161C233.915 218.481 233.645 218.748 233.285 218.961C232.932 219.168 232.518 219.271 232.045 219.271C231.558 219.271 231.118 219.151 230.725 218.911C230.332 218.671 230.022 218.334 229.795 217.901C229.568 217.468 229.455 216.974 229.455 216.421ZM234.095 216.431C234.095 216.018 234.012 215.658 233.845 215.351C233.678 215.044 233.452 214.811 233.165 214.651C232.885 214.484 232.575 214.401 232.235 214.401C231.895 214.401 231.585 214.481 231.305 214.641C231.025 214.801 230.802 215.034 230.635 215.341C230.468 215.648 230.385 216.008 230.385 216.421C230.385 216.841 230.468 217.208 230.635 217.521C230.802 217.828 231.025 218.064 231.305 218.231C231.585 218.391 231.895 218.471 232.235 218.471C232.575 218.471 232.885 218.391 233.165 218.231C233.452 218.064 233.678 217.828 233.845 217.521C234.012 217.208 234.095 216.844 234.095 216.431ZM237.023 212.811C236.85 212.811 236.703 212.751 236.583 212.631C236.463 212.511 236.403 212.364 236.403 212.191C236.403 212.018 236.463 211.871 236.583 211.751C236.703 211.631 236.85 211.571 237.023 211.571C237.19 211.571 237.33 211.631 237.443 211.751C237.563 211.871 237.623 212.018 237.623 212.191C237.623 212.364 237.563 212.511 237.443 212.631C237.33 212.751 237.19 212.811 237.023 212.811ZM237.463 213.701V219.181H236.553V213.701H237.463ZM239.924 211.781V219.181H239.014V211.781H239.924ZM247.301 219.251C246.654 219.251 246.064 219.101 245.531 218.801C244.998 218.494 244.574 218.071 244.261 217.531C243.954 216.984 243.801 216.371 243.801 215.691C243.801 215.011 243.954 214.401 244.261 213.861C244.574 213.314 244.998 212.891 245.531 212.591C246.064 212.284 246.654 212.131 247.301 212.131C247.954 212.131 248.548 212.284 249.081 212.591C249.614 212.891 250.034 213.311 250.341 213.851C250.648 214.391 250.801 215.004 250.801 215.691C250.801 216.378 250.648 216.991 250.341 217.531C250.034 218.071 249.614 218.494 249.081 218.801C248.548 219.101 247.954 219.251 247.301 219.251ZM247.301 218.461C247.788 218.461 248.224 218.348 248.611 218.121C249.004 217.894 249.311 217.571 249.531 217.151C249.758 216.731 249.871 216.244 249.871 215.691C249.871 215.131 249.758 214.644 249.531 214.231C249.311 213.811 249.008 213.488 248.621 213.261C248.234 213.034 247.794 212.921 247.301 212.921C246.808 212.921 246.368 213.034 245.981 213.261C245.594 213.488 245.288 213.811 245.061 214.231C244.841 214.644 244.731 215.131 244.731 215.691C244.731 216.244 244.841 216.731 245.061 217.151C245.288 217.571 245.594 217.894 245.981 218.121C246.374 218.348 246.814 218.461 247.301 218.461ZM256.862 213.701V219.181H255.952V218.371C255.779 218.651 255.536 218.871 255.222 219.031C254.916 219.184 254.576 219.261 254.202 219.261C253.776 219.261 253.392 219.174 253.052 219.001C252.712 218.821 252.442 218.554 252.242 218.201C252.049 217.848 251.952 217.418 251.952 216.911V213.701H252.852V216.791C252.852 217.331 252.989 217.748 253.262 218.041C253.536 218.328 253.909 218.471 254.382 218.471C254.869 218.471 255.252 218.321 255.532 218.021C255.812 217.721 255.952 217.284 255.952 216.711V213.701H256.862ZM259.509 214.451V217.681C259.509 217.948 259.565 218.138 259.679 218.251C259.792 218.358 259.989 218.411 260.269 218.411H260.939V219.181H260.119C259.612 219.181 259.232 219.064 258.979 218.831C258.725 218.598 258.599 218.214 258.599 217.681V214.451H257.889V213.701H258.599V212.321H259.509V213.701H260.939V214.451H259.509ZM216.755 231.271C216.242 231.271 215.775 231.154 215.355 230.921C214.942 230.688 214.615 230.358 214.375 229.931C214.142 229.498 214.025 228.998 214.025 228.431C214.025 227.871 214.145 227.378 214.385 226.951C214.632 226.518 214.965 226.188 215.385 225.961C215.805 225.728 216.275 225.611 216.795 225.611C217.315 225.611 217.785 225.728 218.205 225.961C218.625 226.188 218.955 226.514 219.195 226.941C219.442 227.368 219.565 227.864 219.565 228.431C219.565 228.998 219.439 229.498 219.185 229.931C218.939 230.358 218.602 230.688 218.175 230.921C217.749 231.154 217.275 231.271 216.755 231.271ZM216.755 230.471C217.082 230.471 217.389 230.394 217.675 230.241C217.962 230.088 218.192 229.858 218.365 229.551C218.545 229.244 218.635 228.871 218.635 228.431C218.635 227.991 218.549 227.618 218.375 227.311C218.202 227.004 217.975 226.778 217.695 226.631C217.415 226.478 217.112 226.401 216.785 226.401C216.452 226.401 216.145 226.478 215.865 226.631C215.592 226.778 215.372 227.004 215.205 227.311C215.039 227.618 214.955 227.991 214.955 228.431C214.955 228.878 215.035 229.254 215.195 229.561C215.362 229.868 215.582 230.098 215.855 230.251C216.129 230.398 216.429 230.471 216.755 230.471ZM222.992 226.451H221.842V231.181H220.932V226.451H220.222V225.701H220.932V225.311C220.932 224.698 221.089 224.251 221.402 223.971C221.722 223.684 222.232 223.541 222.932 223.541V224.301C222.532 224.301 222.249 224.381 222.082 224.541C221.922 224.694 221.842 224.951 221.842 225.311V225.701H222.992V226.451ZM232.309 232.501L230.919 231.111C230.579 231.204 230.232 231.251 229.879 231.251C229.232 231.251 228.642 231.101 228.109 230.801C227.576 230.494 227.152 230.071 226.839 229.531C226.532 228.984 226.379 228.371 226.379 227.691C226.379 227.011 226.532 226.401 226.839 225.861C227.152 225.314 227.576 224.891 228.109 224.591C228.642 224.284 229.232 224.131 229.879 224.131C230.532 224.131 231.126 224.284 231.659 224.591C232.192 224.891 232.612 225.311 232.919 225.851C233.226 226.391 233.379 227.004 233.379 227.691C233.379 228.358 233.232 228.958 232.939 229.491C232.646 230.024 232.242 230.444 231.729 230.751L233.489 232.501H232.309ZM227.309 227.691C227.309 228.244 227.419 228.731 227.639 229.151C227.866 229.571 228.172 229.894 228.559 230.121C228.952 230.348 229.392 230.461 229.879 230.461C230.366 230.461 230.802 230.348 231.189 230.121C231.582 229.894 231.889 229.571 232.109 229.151C232.336 228.731 232.449 228.244 232.449 227.691C232.449 227.131 232.336 226.644 232.109 226.231C231.889 225.811 231.586 225.488 231.199 225.261C230.812 225.034 230.372 224.921 229.879 224.921C229.386 224.921 228.946 225.034 228.559 225.261C228.172 225.488 227.866 225.811 227.639 226.231C227.419 226.644 227.309 227.131 227.309 227.691ZM239.46 225.701V231.181H238.55V230.371C238.377 230.651 238.133 230.871 237.82 231.031C237.513 231.184 237.173 231.261 236.8 231.261C236.373 231.261 235.99 231.174 235.65 231.001C235.31 230.821 235.04 230.554 234.84 230.201C234.647 229.848 234.55 229.418 234.55 228.911V225.701H235.45V228.791C235.45 229.331 235.587 229.748 235.86 230.041C236.133 230.328 236.507 230.471 236.98 230.471C237.467 230.471 237.85 230.321 238.13 230.021C238.41 229.721 238.55 229.284 238.55 228.711V225.701H239.46ZM243.386 231.271C242.873 231.271 242.406 231.154 241.986 230.921C241.573 230.688 241.246 230.358 241.006 229.931C240.773 229.498 240.656 228.998 240.656 228.431C240.656 227.871 240.776 227.378 241.016 226.951C241.263 226.518 241.596 226.188 242.016 225.961C242.436 225.728 242.906 225.611 243.426 225.611C243.946 225.611 244.416 225.728 244.836 225.961C245.256 226.188 245.586 226.514 245.826 226.941C246.073 227.368 246.196 227.864 246.196 228.431C246.196 228.998 246.07 229.498 245.816 229.931C245.57 230.358 245.233 230.688 244.806 230.921C244.38 231.154 243.906 231.271 243.386 231.271ZM243.386 230.471C243.713 230.471 244.02 230.394 244.306 230.241C244.593 230.088 244.823 229.858 244.996 229.551C245.176 229.244 245.266 228.871 245.266 228.431C245.266 227.991 245.18 227.618 245.006 227.311C244.833 227.004 244.606 226.778 244.326 226.631C244.046 226.478 243.743 226.401 243.416 226.401C243.083 226.401 242.776 226.478 242.496 226.631C242.223 226.778 242.003 227.004 241.836 227.311C241.67 227.618 241.586 227.991 241.586 228.431C241.586 228.878 241.666 229.254 241.826 229.561C241.993 229.868 242.213 230.098 242.486 230.251C242.76 230.398 243.06 230.471 243.386 230.471ZM248.503 226.451V229.681C248.503 229.948 248.559 230.138 248.673 230.251C248.786 230.358 248.983 230.411 249.263 230.411H249.933V231.181H249.113C248.606 231.181 248.226 231.064 247.973 230.831C247.719 230.598 247.593 230.214 247.593 229.681V226.451H246.883V225.701H247.593V224.321H248.503V225.701H249.933V226.451H248.503ZM250.695 228.421C250.695 227.861 250.809 227.371 251.035 226.951C251.262 226.524 251.572 226.194 251.965 225.961C252.365 225.728 252.809 225.611 253.295 225.611C253.775 225.611 254.192 225.714 254.545 225.921C254.899 226.128 255.162 226.388 255.335 226.701V225.701H256.255V231.181H255.335V230.161C255.155 230.481 254.885 230.748 254.525 230.961C254.172 231.168 253.759 231.271 253.285 231.271C252.799 231.271 252.359 231.151 251.965 230.911C251.572 230.671 251.262 230.334 251.035 229.901C250.809 229.468 250.695 228.974 250.695 228.421ZM255.335 228.431C255.335 228.018 255.252 227.658 255.085 227.351C254.919 227.044 254.692 226.811 254.405 226.651C254.125 226.484 253.815 226.401 253.475 226.401C253.135 226.401 252.825 226.481 252.545 226.641C252.265 226.801 252.042 227.034 251.875 227.341C251.709 227.648 251.625 228.008 251.625 228.421C251.625 228.841 251.709 229.208 251.875 229.521C252.042 229.828 252.265 230.064 252.545 230.231C252.825 230.391 253.135 230.471 253.475 230.471C253.815 230.471 254.125 230.391 254.405 230.231C254.692 230.064 254.919 229.828 255.085 229.521C255.252 229.208 255.335 228.844 255.335 228.431Z" fill="#555555"/>
<circle cx="202.6" cy="216.528" r="3.99585" fill="#77A2C7"/>
<path d="M214.331 94.9684V93.5924L219.707 85.8804H221.915V93.3844H223.403V94.9684H221.915V97.4004H220.123V94.9684H214.331ZM220.203 87.7364L216.427 93.3844H220.203V87.7364ZM232.435 87.3044H227.075V90.4884C227.299 90.1897 227.63 89.9391 228.067 89.7364C228.515 89.5337 228.99 89.4324 229.491 89.4324C230.387 89.4324 231.112 89.6244 231.667 90.0084C232.232 90.3924 232.632 90.8777 232.867 91.4644C233.112 92.0511 233.235 92.6697 233.235 93.3204C233.235 94.1097 233.08 94.8137 232.771 95.4324C232.472 96.0404 232.019 96.5204 231.411 96.8724C230.814 97.2244 230.078 97.4004 229.203 97.4004C228.04 97.4004 227.107 97.1124 226.403 96.5364C225.699 95.9604 225.278 95.1977 225.139 94.2484H226.915C227.032 94.7497 227.294 95.1497 227.699 95.4484C228.104 95.7364 228.611 95.8804 229.219 95.8804C229.976 95.8804 230.542 95.6511 230.915 95.1924C231.299 94.7337 231.491 94.1257 231.491 93.3684C231.491 92.6004 231.299 92.0137 230.915 91.6084C230.531 91.1924 229.966 90.9844 229.219 90.9844C228.696 90.9844 228.254 91.1177 227.891 91.3844C227.539 91.6404 227.283 91.9924 227.123 92.4404H225.395V85.7044H232.435V87.3044ZM234.846 88.5524C234.846 87.7737 235.07 87.1657 235.518 86.7284C235.976 86.2804 236.563 86.0564 237.278 86.0564C237.992 86.0564 238.574 86.2804 239.022 86.7284C239.48 87.1657 239.71 87.7737 239.71 88.5524C239.71 89.3311 239.48 89.9444 239.022 90.3924C238.574 90.8404 237.992 91.0644 237.278 91.0644C236.563 91.0644 235.976 90.8404 235.518 90.3924C235.07 89.9444 234.846 89.3311 234.846 88.5524ZM244.606 86.2644L238.222 97.4004H236.43L242.814 86.2644H244.606ZM237.278 87.1604C236.606 87.1604 236.27 87.6244 236.27 88.5524C236.27 89.4911 236.606 89.9604 237.278 89.9604C237.598 89.9604 237.843 89.8484 238.014 89.6244C238.195 89.3897 238.286 89.0324 238.286 88.5524C238.286 87.6244 237.95 87.1604 237.278 87.1604ZM241.358 95.0964C241.358 94.3177 241.582 93.7097 242.03 93.2724C242.488 92.8244 243.075 92.6004 243.79 92.6004C244.494 92.6004 245.07 92.8244 245.518 93.2724C245.976 93.7097 246.206 94.3177 246.206 95.0964C246.206 95.8751 245.976 96.4884 245.518 96.9364C245.07 97.3844 244.494 97.6084 243.79 97.6084C243.075 97.6084 242.488 97.3844 242.03 96.9364C241.582 96.4884 241.358 95.8751 241.358 95.0964ZM243.774 93.7044C243.102 93.7044 242.766 94.1684 242.766 95.0964C242.766 96.0244 243.102 96.4884 243.774 96.4884C244.446 96.4884 244.782 96.0244 244.782 95.0964C244.782 94.1684 244.446 93.7044 243.774 93.7044Z" fill="#5BC4BF"/>
<path d="M215.275 71.4304V78.4004H214.365V71.4304H215.275ZM219.496 72.8204C220.163 72.8204 220.703 73.0237 221.116 73.4304C221.53 73.8304 221.736 74.4104 221.736 75.1704V78.4004H220.836V75.3004C220.836 74.7537 220.7 74.3371 220.426 74.0504C220.153 73.7571 219.78 73.6104 219.306 73.6104C218.826 73.6104 218.443 73.7604 218.156 74.0604C217.876 74.3604 217.736 74.7971 217.736 75.3704V78.4004H216.826V72.9204H217.736V73.7004C217.916 73.4204 218.16 73.2037 218.466 73.0504C218.78 72.8971 219.123 72.8204 219.496 72.8204ZM224.333 73.6704V76.9004C224.333 77.1671 224.39 77.3571 224.503 77.4704C224.616 77.5771 224.813 77.6304 225.093 77.6304H225.763V78.4004H224.943C224.436 78.4004 224.056 78.2837 223.803 78.0504C223.55 77.8171 223.423 77.4337 223.423 76.9004V73.6704H222.713V72.9204H223.423V71.5404H224.333V72.9204H225.763V73.6704H224.333ZM231.865 75.4504C231.865 75.6237 231.855 75.8071 231.835 76.0004H227.455C227.489 76.5404 227.672 76.9637 228.005 77.2704C228.345 77.5704 228.755 77.7204 229.235 77.7204C229.629 77.7204 229.955 77.6304 230.215 77.4504C230.482 77.2637 230.669 77.0171 230.775 76.7104H231.755C231.609 77.2371 231.315 77.6671 230.875 78.0004C230.435 78.3271 229.889 78.4904 229.235 78.4904C228.715 78.4904 228.249 78.3737 227.835 78.1404C227.429 77.9071 227.109 77.5771 226.875 77.1504C226.642 76.7171 226.525 76.2171 226.525 75.6504C226.525 75.0837 226.639 74.5871 226.865 74.1604C227.092 73.7337 227.409 73.4071 227.815 73.1804C228.229 72.9471 228.702 72.8304 229.235 72.8304C229.755 72.8304 230.215 72.9437 230.615 73.1704C231.015 73.3971 231.322 73.7104 231.535 74.1104C231.755 74.5037 231.865 74.9504 231.865 75.4504ZM230.925 75.2604C230.925 74.9137 230.849 74.6171 230.695 74.3704C230.542 74.1171 230.332 73.9271 230.065 73.8004C229.805 73.6671 229.515 73.6004 229.195 73.6004C228.735 73.6004 228.342 73.7471 228.015 74.0404C227.695 74.3337 227.512 74.7404 227.465 75.2604H230.925ZM233.977 73.8104C234.137 73.4971 234.363 73.2537 234.657 73.0804C234.957 72.9071 235.32 72.8204 235.747 72.8204V73.7604H235.507C234.487 73.7604 233.977 74.3137 233.977 75.4204V78.4004H233.067V72.9204H233.977V73.8104ZM239.467 72.8204C240.134 72.8204 240.674 73.0237 241.087 73.4304C241.5 73.8304 241.707 74.4104 241.707 75.1704V78.4004H240.807V75.3004C240.807 74.7537 240.67 74.3371 240.397 74.0504C240.124 73.7571 239.75 73.6104 239.277 73.6104C238.797 73.6104 238.414 73.7604 238.127 74.0604C237.847 74.3604 237.707 74.7971 237.707 75.3704V78.4004H236.797V72.9204H237.707V73.7004C237.887 73.4204 238.13 73.2037 238.437 73.0504C238.75 72.8971 239.094 72.8204 239.467 72.8204ZM248.194 75.4504C248.194 75.6237 248.184 75.8071 248.164 76.0004H243.784C243.817 76.5404 244 76.9637 244.334 77.2704C244.674 77.5704 245.084 77.7204 245.564 77.7204C245.957 77.7204 246.284 77.6304 246.544 77.4504C246.81 77.2637 246.997 77.0171 247.104 76.7104H248.084C247.937 77.2371 247.644 77.6671 247.204 78.0004C246.764 78.3271 246.217 78.4904 245.564 78.4904C245.044 78.4904 244.577 78.3737 244.164 78.1404C243.757 77.9071 243.437 77.5771 243.204 77.1504C242.97 76.7171 242.854 76.2171 242.854 75.6504C242.854 75.0837 242.967 74.5871 243.194 74.1604C243.42 73.7337 243.737 73.4071 244.144 73.1804C244.557 72.9471 245.03 72.8304 245.564 72.8304C246.084 72.8304 246.544 72.9437 246.944 73.1704C247.344 73.3971 247.65 73.7104 247.864 74.1104C248.084 74.5037 248.194 74.9504 248.194 75.4504ZM247.254 75.2604C247.254 74.9137 247.177 74.6171 247.024 74.3704C246.87 74.1171 246.66 73.9271 246.394 73.8004C246.134 73.6671 245.844 73.6004 245.524 73.6004C245.064 73.6004 244.67 73.7471 244.344 74.0404C244.024 74.3337 243.84 74.7404 243.794 75.2604H247.254ZM250.505 73.6704V76.9004C250.505 77.1671 250.561 77.3571 250.675 77.4704C250.788 77.5771 250.985 77.6304 251.265 77.6304H251.935V78.4004H251.115C250.608 78.4004 250.228 78.2837 249.975 78.0504C249.721 77.8171 249.595 77.4337 249.595 76.9004V73.6704H248.885V72.9204H249.595V71.5404H250.505V72.9204H251.935V73.6704H250.505ZM256.173 72.0304C256 72.0304 255.853 71.9704 255.733 71.8504C255.613 71.7304 255.553 71.5837 255.553 71.4104C255.553 71.2371 255.613 71.0904 255.733 70.9704C255.853 70.8504 256 70.7904 256.173 70.7904C256.34 70.7904 256.48 70.8504 256.593 70.9704C256.713 71.0904 256.773 71.2371 256.773 71.4104C256.773 71.5837 256.713 71.7304 256.593 71.8504C256.48 71.9704 256.34 72.0304 256.173 72.0304ZM256.613 72.9204V78.4004H255.703V72.9204H256.613ZM260.104 78.4904C259.684 78.4904 259.308 78.4204 258.974 78.2804C258.641 78.1337 258.378 77.9337 258.184 77.6804C257.991 77.4204 257.884 77.1237 257.864 76.7904H258.804C258.831 77.0637 258.958 77.2871 259.184 77.4604C259.418 77.6337 259.721 77.7204 260.094 77.7204C260.441 77.7204 260.714 77.6437 260.914 77.4904C261.114 77.3371 261.214 77.1437 261.214 76.9104C261.214 76.6704 261.108 76.4937 260.894 76.3804C260.681 76.2604 260.351 76.1437 259.904 76.0304C259.498 75.9237 259.164 75.8171 258.904 75.7104C258.651 75.5971 258.431 75.4337 258.244 75.2204C258.064 75.0004 257.974 74.7137 257.974 74.3604C257.974 74.0804 258.058 73.8237 258.224 73.5904C258.391 73.3571 258.628 73.1737 258.934 73.0404C259.241 72.9004 259.591 72.8304 259.984 72.8304C260.591 72.8304 261.081 72.9837 261.454 73.2904C261.828 73.5971 262.028 74.0171 262.054 74.5504H261.144C261.124 74.2637 261.008 74.0337 260.794 73.8604C260.588 73.6871 260.308 73.6004 259.954 73.6004C259.628 73.6004 259.368 73.6704 259.174 73.8104C258.981 73.9504 258.884 74.1337 258.884 74.3604C258.884 74.5404 258.941 74.6904 259.054 74.8104C259.174 74.9237 259.321 75.0171 259.494 75.0904C259.674 75.1571 259.921 75.2337 260.234 75.3204C260.628 75.4271 260.948 75.5337 261.194 75.6404C261.441 75.7404 261.651 75.8937 261.824 76.1004C262.004 76.3071 262.098 76.5771 262.104 76.9104C262.104 77.2104 262.021 77.4804 261.854 77.7204C261.688 77.9604 261.451 78.1504 261.144 78.2904C260.844 78.4237 260.498 78.4904 260.104 78.4904ZM268.265 78.4704C267.805 78.4704 267.392 78.3904 267.025 78.2304C266.665 78.0637 266.382 77.8371 266.175 77.5504C265.968 77.2571 265.862 76.9204 265.855 76.5404H266.825C266.858 76.8671 266.992 77.1437 267.225 77.3704C267.465 77.5904 267.812 77.7004 268.265 77.7004C268.698 77.7004 269.038 77.5937 269.285 77.3804C269.538 77.1604 269.665 76.8804 269.665 76.5404C269.665 76.2737 269.592 76.0571 269.445 75.8904C269.298 75.7237 269.115 75.5971 268.895 75.5104C268.675 75.4237 268.378 75.3304 268.005 75.2304C267.545 75.1104 267.175 74.9904 266.895 74.8704C266.622 74.7504 266.385 74.5637 266.185 74.3104C265.992 74.0504 265.895 73.7037 265.895 73.2704C265.895 72.8904 265.992 72.5537 266.185 72.2604C266.378 71.9671 266.648 71.7404 266.995 71.5804C267.348 71.4204 267.752 71.3404 268.205 71.3404C268.858 71.3404 269.392 71.5037 269.805 71.8304C270.225 72.1571 270.462 72.5904 270.515 73.1304H269.515C269.482 72.8637 269.342 72.6304 269.095 72.4304C268.848 72.2237 268.522 72.1204 268.115 72.1204C267.735 72.1204 267.425 72.2204 267.185 72.4204C266.945 72.6137 266.825 72.8871 266.825 73.2404C266.825 73.4937 266.895 73.7004 267.035 73.8604C267.182 74.0204 267.358 74.1437 267.565 74.2304C267.778 74.3104 268.075 74.4037 268.455 74.5104C268.915 74.6371 269.285 74.7637 269.565 74.8904C269.845 75.0104 270.085 75.2004 270.285 75.4604C270.485 75.7137 270.585 76.0604 270.585 76.5004C270.585 76.8404 270.495 77.1604 270.315 77.4604C270.135 77.7604 269.868 78.0037 269.515 78.1904C269.162 78.3771 268.745 78.4704 268.265 78.4704ZM272.834 71.0004V78.4004H271.924V71.0004H272.834ZM276.775 78.4904C276.262 78.4904 275.795 78.3737 275.375 78.1404C274.962 77.9071 274.635 77.5771 274.395 77.1504C274.162 76.7171 274.045 76.2171 274.045 75.6504C274.045 75.0904 274.165 74.5971 274.405 74.1704C274.652 73.7371 274.985 73.4071 275.405 73.1804C275.825 72.9471 276.295 72.8304 276.815 72.8304C277.335 72.8304 277.805 72.9471 278.225 73.1804C278.645 73.4071 278.975 73.7337 279.215 74.1604C279.462 74.5871 279.585 75.0837 279.585 75.6504C279.585 76.2171 279.458 76.7171 279.205 77.1504C278.958 77.5771 278.622 77.9071 278.195 78.1404C277.768 78.3737 277.295 78.4904 276.775 78.4904ZM276.775 77.6904C277.102 77.6904 277.408 77.6137 277.695 77.4604C277.982 77.3071 278.212 77.0771 278.385 76.7704C278.565 76.4637 278.655 76.0904 278.655 75.6504C278.655 75.2104 278.568 74.8371 278.395 74.5304C278.222 74.2237 277.995 73.9971 277.715 73.8504C277.435 73.6971 277.132 73.6204 276.805 73.6204C276.472 73.6204 276.165 73.6971 275.885 73.8504C275.612 73.9971 275.392 74.2237 275.225 74.5304C275.058 74.8371 274.975 75.2104 274.975 75.6504C274.975 76.0971 275.055 76.4737 275.215 76.7804C275.382 77.0871 275.602 77.3171 275.875 77.4704C276.148 77.6171 276.448 77.6904 276.775 77.6904ZM288.081 72.9204L286.371 78.4004H285.431L284.111 74.0504L282.791 78.4004H281.851L280.131 72.9204H281.061L282.321 77.5204L283.681 72.9204H284.611L285.941 77.5304L287.181 72.9204H288.081Z" fill="#555555"/>
<circle cx="202.6" cy="74.7476" r="3.99585" fill="#5BC4BF"/>
<path d="M214.331 137.895V136.519L219.707 128.807H221.915V136.311H223.403V137.895H221.915V140.327H220.123V137.895H214.331ZM220.203 130.663L216.427 136.311H220.203V130.663ZM232.435 130.231H227.075V133.415C227.299 133.117 227.63 132.866 228.067 132.663C228.515 132.461 228.99 132.359 229.491 132.359C230.387 132.359 231.112 132.551 231.667 132.935C232.232 133.319 232.632 133.805 232.867 134.391C233.112 134.978 233.235 135.597 233.235 136.247C233.235 137.037 233.08 137.741 232.771 138.359C232.472 138.967 232.019 139.447 231.411 139.799C230.814 140.151 230.078 140.327 229.203 140.327C228.04 140.327 227.107 140.039 226.403 139.463C225.699 138.887 225.278 138.125 225.139 137.175H226.915C227.032 137.677 227.294 138.077 227.699 138.375C228.104 138.663 228.611 138.807 229.219 138.807C229.976 138.807 230.542 138.578 230.915 138.119C231.299 137.661 231.491 137.053 231.491 136.295C231.491 135.527 231.299 134.941 230.915 134.535C230.531 134.119 229.966 133.911 229.219 133.911C228.696 133.911 228.254 134.045 227.891 134.311C227.539 134.567 227.283 134.919 227.123 135.367H225.395V128.631H232.435V130.231ZM234.846 131.479C234.846 130.701 235.07 130.093 235.518 129.655C235.976 129.207 236.563 128.983 237.278 128.983C237.992 128.983 238.574 129.207 239.022 129.655C239.48 130.093 239.71 130.701 239.71 131.479C239.71 132.258 239.48 132.871 239.022 133.319C238.574 133.767 237.992 133.991 237.278 133.991C236.563 133.991 235.976 133.767 235.518 133.319C235.07 132.871 234.846 132.258 234.846 131.479ZM244.606 129.191L238.222 140.327H236.43L242.814 129.191H244.606ZM237.278 130.087C236.606 130.087 236.27 130.551 236.27 131.479C236.27 132.418 236.606 132.887 237.278 132.887C237.598 132.887 237.843 132.775 238.014 132.551C238.195 132.317 238.286 131.959 238.286 131.479C238.286 130.551 237.95 130.087 237.278 130.087ZM241.358 138.023C241.358 137.245 241.582 136.637 242.03 136.199C242.488 135.751 243.075 135.527 243.79 135.527C244.494 135.527 245.07 135.751 245.518 136.199C245.976 136.637 246.206 137.245 246.206 138.023C246.206 138.802 245.976 139.415 245.518 139.863C245.07 140.311 244.494 140.535 243.79 140.535C243.075 140.535 242.488 140.311 242.03 139.863C241.582 139.415 241.358 138.802 241.358 138.023ZM243.774 136.631C243.102 136.631 242.766 137.095 242.766 138.023C242.766 138.951 243.102 139.415 243.774 139.415C244.446 139.415 244.782 138.951 244.782 138.023C244.782 137.095 244.446 136.631 243.774 136.631Z" fill="#8A88ED"/>
<path d="M215.275 120.587H217.715V121.327H214.365V114.357H215.275V120.587ZM218.342 118.567C218.342 118.007 218.455 117.517 218.682 117.097C218.909 116.671 219.219 116.341 219.612 116.107C220.012 115.874 220.455 115.757 220.942 115.757C221.422 115.757 221.839 115.861 222.192 116.067C222.545 116.274 222.809 116.534 222.982 116.847V115.847H223.902V121.327H222.982V120.307C222.802 120.627 222.532 120.894 222.172 121.107C221.819 121.314 221.405 121.417 220.932 121.417C220.445 121.417 220.005 121.297 219.612 121.057C219.219 120.817 218.909 120.481 218.682 120.047C218.455 119.614 218.342 119.121 218.342 118.567ZM222.982 118.577C222.982 118.164 222.899 117.804 222.732 117.497C222.565 117.191 222.339 116.957 222.052 116.797C221.772 116.631 221.462 116.547 221.122 116.547C220.782 116.547 220.472 116.627 220.192 116.787C219.912 116.947 219.689 117.181 219.522 117.487C219.355 117.794 219.272 118.154 219.272 118.567C219.272 118.987 219.355 119.354 219.522 119.667C219.689 119.974 219.912 120.211 220.192 120.377C220.472 120.537 220.782 120.617 221.122 120.617C221.462 120.617 221.772 120.537 222.052 120.377C222.339 120.211 222.565 119.974 222.732 119.667C222.899 119.354 222.982 118.991 222.982 118.577ZM226.35 116.857C226.53 116.544 226.796 116.284 227.15 116.077C227.51 115.864 227.926 115.757 228.4 115.757C228.886 115.757 229.326 115.874 229.72 116.107C230.12 116.341 230.433 116.671 230.66 117.097C230.886 117.517 231 118.007 231 118.567C231 119.121 230.886 119.614 230.66 120.047C230.433 120.481 230.12 120.817 229.72 121.057C229.326 121.297 228.886 121.417 228.4 121.417C227.933 121.417 227.52 121.314 227.16 121.107C226.806 120.894 226.536 120.631 226.35 120.317V123.927H225.44V115.847H226.35V116.857ZM230.07 118.567C230.07 118.154 229.986 117.794 229.82 117.487C229.653 117.181 229.426 116.947 229.14 116.787C228.86 116.627 228.55 116.547 228.21 116.547C227.876 116.547 227.566 116.631 227.28 116.797C227 116.957 226.773 117.194 226.6 117.507C226.433 117.814 226.35 118.171 226.35 118.577C226.35 118.991 226.433 119.354 226.6 119.667C226.773 119.974 227 120.211 227.28 120.377C227.566 120.537 227.876 120.617 228.21 120.617C228.55 120.617 228.86 120.537 229.14 120.377C229.426 120.211 229.653 119.974 229.82 119.667C229.986 119.354 230.07 118.987 230.07 118.567ZM233.307 116.597V119.827C233.307 120.094 233.364 120.284 233.477 120.397C233.591 120.504 233.787 120.557 234.067 120.557H234.737V121.327H233.917C233.411 121.327 233.031 121.211 232.777 120.977C232.524 120.744 232.397 120.361 232.397 119.827V116.597H231.687V115.847H232.397V114.467H233.307V115.847H234.737V116.597H233.307ZM238.23 121.417C237.717 121.417 237.25 121.301 236.83 121.067C236.417 120.834 236.09 120.504 235.85 120.077C235.617 119.644 235.5 119.144 235.5 118.577C235.5 118.017 235.62 117.524 235.86 117.097C236.107 116.664 236.44 116.334 236.86 116.107C237.28 115.874 237.75 115.757 238.27 115.757C238.79 115.757 239.26 115.874 239.68 116.107C240.1 116.334 240.43 116.661 240.67 117.087C240.917 117.514 241.04 118.011 241.04 118.577C241.04 119.144 240.913 119.644 240.66 120.077C240.413 120.504 240.077 120.834 239.65 121.067C239.223 121.301 238.75 121.417 238.23 121.417ZM238.23 120.617C238.557 120.617 238.863 120.541 239.15 120.387C239.437 120.234 239.667 120.004 239.84 119.697C240.02 119.391 240.11 119.017 240.11 118.577C240.11 118.137 240.023 117.764 239.85 117.457C239.677 117.151 239.45 116.924 239.17 116.777C238.89 116.624 238.587 116.547 238.26 116.547C237.927 116.547 237.62 116.624 237.34 116.777C237.067 116.924 236.847 117.151 236.68 117.457C236.513 117.764 236.43 118.137 236.43 118.577C236.43 119.024 236.51 119.401 236.67 119.707C236.837 120.014 237.057 120.244 237.33 120.397C237.603 120.544 237.903 120.617 238.23 120.617ZM243.147 116.857C243.327 116.544 243.593 116.284 243.947 116.077C244.307 115.864 244.723 115.757 245.197 115.757C245.683 115.757 246.123 115.874 246.517 116.107C246.917 116.341 247.23 116.671 247.457 117.097C247.683 117.517 247.797 118.007 247.797 118.567C247.797 119.121 247.683 119.614 247.457 120.047C247.23 120.481 246.917 120.817 246.517 121.057C246.123 121.297 245.683 121.417 245.197 121.417C244.73 121.417 244.317 121.314 243.957 121.107C243.603 120.894 243.333 120.631 243.147 120.317V123.927H242.237V115.847H243.147V116.857ZM246.867 118.567C246.867 118.154 246.783 117.794 246.617 117.487C246.45 117.181 246.223 116.947 245.937 116.787C245.657 116.627 245.347 116.547 245.007 116.547C244.673 116.547 244.363 116.631 244.077 116.797C243.797 116.957 243.57 117.194 243.397 117.507C243.23 117.814 243.147 118.171 243.147 118.577C243.147 118.991 243.23 119.354 243.397 119.667C243.57 119.974 243.797 120.211 244.077 120.377C244.363 120.537 244.673 120.617 245.007 120.617C245.347 120.617 245.657 120.537 245.937 120.377C246.223 120.211 246.45 119.974 246.617 119.667C246.783 119.354 246.867 118.987 246.867 118.567ZM252.13 114.957C251.957 114.957 251.81 114.897 251.69 114.777C251.57 114.657 251.51 114.511 251.51 114.337C251.51 114.164 251.57 114.017 251.69 113.897C251.81 113.777 251.957 113.717 252.13 113.717C252.297 113.717 252.437 113.777 252.55 113.897C252.67 114.017 252.73 114.164 252.73 114.337C252.73 114.511 252.67 114.657 252.55 114.777C252.437 114.897 252.297 114.957 252.13 114.957ZM252.57 115.847V121.327H251.66V115.847H252.57ZM256.061 121.417C255.641 121.417 255.265 121.347 254.931 121.207C254.598 121.061 254.335 120.861 254.141 120.607C253.948 120.347 253.841 120.051 253.821 119.717H254.761C254.788 119.991 254.915 120.214 255.141 120.387C255.375 120.561 255.678 120.647 256.051 120.647C256.398 120.647 256.671 120.571 256.871 120.417C257.071 120.264 257.171 120.071 257.171 119.837C257.171 119.597 257.065 119.421 256.851 119.307C256.638 119.187 256.308 119.071 255.861 118.957C255.455 118.851 255.121 118.744 254.861 118.637C254.608 118.524 254.388 118.361 254.201 118.147C254.021 117.927 253.931 117.641 253.931 117.287C253.931 117.007 254.015 116.751 254.181 116.517C254.348 116.284 254.585 116.101 254.891 115.967C255.198 115.827 255.548 115.757 255.941 115.757C256.548 115.757 257.038 115.911 257.411 116.217C257.785 116.524 257.985 116.944 258.011 117.477H257.101C257.081 117.191 256.965 116.961 256.751 116.787C256.545 116.614 256.265 116.527 255.911 116.527C255.585 116.527 255.325 116.597 255.131 116.737C254.938 116.877 254.841 117.061 254.841 117.287C254.841 117.467 254.898 117.617 255.011 117.737C255.131 117.851 255.278 117.944 255.451 118.017C255.631 118.084 255.878 118.161 256.191 118.247C256.585 118.354 256.905 118.461 257.151 118.567C257.398 118.667 257.608 118.821 257.781 119.027C257.961 119.234 258.055 119.504 258.061 119.837C258.061 120.137 257.978 120.407 257.811 120.647C257.645 120.887 257.408 121.077 257.101 121.217C256.801 121.351 256.455 121.417 256.061 121.417ZM264.222 121.397C263.762 121.397 263.349 121.317 262.982 121.157C262.622 120.991 262.339 120.764 262.132 120.477C261.925 120.184 261.819 119.847 261.812 119.467H262.782C262.815 119.794 262.949 120.071 263.182 120.297C263.422 120.517 263.769 120.627 264.222 120.627C264.655 120.627 264.995 120.521 265.242 120.307C265.495 120.087 265.622 119.807 265.622 119.467C265.622 119.201 265.549 118.984 265.402 118.817C265.255 118.651 265.072 118.524 264.852 118.437C264.632 118.351 264.335 118.257 263.962 118.157C263.502 118.037 263.132 117.917 262.852 117.797C262.579 117.677 262.342 117.491 262.142 117.237C261.949 116.977 261.852 116.631 261.852 116.197C261.852 115.817 261.949 115.481 262.142 115.187C262.335 114.894 262.605 114.667 262.952 114.507C263.305 114.347 263.709 114.267 264.162 114.267C264.815 114.267 265.349 114.431 265.762 114.757C266.182 115.084 266.419 115.517 266.472 116.057H265.472C265.439 115.791 265.299 115.557 265.052 115.357C264.805 115.151 264.479 115.047 264.072 115.047C263.692 115.047 263.382 115.147 263.142 115.347C262.902 115.541 262.782 115.814 262.782 116.167C262.782 116.421 262.852 116.627 262.992 116.787C263.139 116.947 263.315 117.071 263.522 117.157C263.735 117.237 264.032 117.331 264.412 117.437C264.872 117.564 265.242 117.691 265.522 117.817C265.802 117.937 266.042 118.127 266.242 118.387C266.442 118.641 266.542 118.987 266.542 119.427C266.542 119.767 266.452 120.087 266.272 120.387C266.092 120.687 265.825 120.931 265.472 121.117C265.119 121.304 264.702 121.397 264.222 121.397ZM268.791 113.927V121.327H267.881V113.927H268.791ZM272.732 121.417C272.219 121.417 271.752 121.301 271.332 121.067C270.919 120.834 270.592 120.504 270.352 120.077C270.119 119.644 270.002 119.144 270.002 118.577C270.002 118.017 270.122 117.524 270.362 117.097C270.609 116.664 270.942 116.334 271.362 116.107C271.782 115.874 272.252 115.757 272.772 115.757C273.292 115.757 273.762 115.874 274.182 116.107C274.602 116.334 274.932 116.661 275.172 117.087C275.419 117.514 275.542 118.011 275.542 118.577C275.542 119.144 275.415 119.644 275.162 120.077C274.915 120.504 274.579 120.834 274.152 121.067C273.725 121.301 273.252 121.417 272.732 121.417ZM272.732 120.617C273.059 120.617 273.365 120.541 273.652 120.387C273.939 120.234 274.169 120.004 274.342 119.697C274.522 119.391 274.612 119.017 274.612 118.577C274.612 118.137 274.525 117.764 274.352 117.457C274.179 117.151 273.952 116.924 273.672 116.777C273.392 116.624 273.089 116.547 272.762 116.547C272.429 116.547 272.122 116.624 271.842 116.777C271.569 116.924 271.349 117.151 271.182 117.457C271.015 117.764 270.932 118.137 270.932 118.577C270.932 119.024 271.012 119.401 271.172 119.707C271.339 120.014 271.559 120.244 271.832 120.397C272.105 120.544 272.405 120.617 272.732 120.617ZM284.039 115.847L282.329 121.327H281.389L280.069 116.977L278.749 121.327H277.809L276.089 115.847H277.019L278.279 120.447L279.639 115.847H280.569L281.899 120.457L283.139 115.847H284.039Z" fill="#555555"/>
<circle cx="202.6" cy="117.675" r="3.99585" fill="#8A88ED"/>
<path d="M104.71 202.444C94.7314 203.365 84.6719 202.105 75.2287 198.752C65.7855 195.399 57.1844 190.032 50.0215 183.024" stroke="#5BC4BF" stroke-width="14.8157" stroke-linecap="round"/>
<path d="M30.4068 146.264C33.0914 160.69 40.2974 173.887 50.9815 183.945" stroke="#8A88ED" stroke-width="14.8157" stroke-linecap="round"/>
<path d="M29.9913 143.78C28.1602 131.46 29.6922 118.874 34.4254 107.353" stroke="#DE64A1" stroke-width="14.8157" stroke-linecap="round"/>
<path d="M34.3888 107.443C39.7066 94.4471 48.8564 83.3795 60.6201 75.7129C72.3839 68.0464 86.2037 64.1446 100.24 64.5269" stroke="#77A2C7" stroke-width="14.8157" stroke-linecap="round"/>
<path d="M101.734 64.5838C119.151 65.4355 135.601 72.8386 147.789 85.3091C159.977 97.7796 167.001 114.396 167.453 131.827C167.905 149.258 161.752 166.216 150.227 179.302C138.702 192.387 122.657 200.633 105.308 202.386" stroke="#FB7158" stroke-width="14.8157" stroke-linecap="round"/>
<g filter="url(#filter0_d_0_1)">
<circle cx="98.3581" cy="133.619" r="38.4878" transform="rotate(45.3926 98.3581 133.619)" fill="white"/>
</g>
<path d="M91.0199 116.713V117.643H89.1699V123.663H88.0299V117.643H86.1699V116.713H91.0199ZM94.5644 123.753C94.0444 123.753 93.5744 123.636 93.1544 123.403C92.7344 123.163 92.4044 122.829 92.1644 122.403C91.9244 121.969 91.8044 121.469 91.8044 120.903C91.8044 120.343 91.9278 119.846 92.1744 119.413C92.4211 118.979 92.7578 118.646 93.1844 118.413C93.6111 118.179 94.0878 118.063 94.6144 118.063C95.1411 118.063 95.6178 118.179 96.0444 118.413C96.4711 118.646 96.8078 118.979 97.0544 119.413C97.3011 119.846 97.4244 120.343 97.4244 120.903C97.4244 121.463 97.2978 121.959 97.0444 122.393C96.7911 122.826 96.4444 123.163 96.0044 123.403C95.5711 123.636 95.0911 123.753 94.5644 123.753ZM94.5644 122.763C94.8578 122.763 95.1311 122.693 95.3844 122.553C95.6444 122.413 95.8544 122.203 96.0144 121.923C96.1744 121.643 96.2544 121.303 96.2544 120.903C96.2544 120.503 96.1778 120.166 96.0244 119.893C95.8711 119.613 95.6678 119.403 95.4144 119.263C95.1611 119.123 94.8878 119.053 94.5944 119.053C94.3011 119.053 94.0278 119.123 93.7744 119.263C93.5278 119.403 93.3311 119.613 93.1844 119.893C93.0378 120.166 92.9644 120.503 92.9644 120.903C92.9644 121.496 93.1144 121.956 93.4144 122.283C93.7211 122.603 94.1044 122.763 94.5644 122.763ZM99.8814 119.083V122.133C99.8814 122.339 99.9281 122.489 100.021 122.583C100.121 122.669 100.288 122.713 100.521 122.713H101.221V123.663H100.321C99.8081 123.663 99.4147 123.543 99.1414 123.303C98.8681 123.063 98.7314 122.673 98.7314 122.133V119.083H98.0814V118.153H98.7314V116.783H99.8814V118.153H101.221V119.083H99.8814ZM101.892 120.883C101.892 120.329 102.005 119.839 102.232 119.413C102.465 118.986 102.779 118.656 103.172 118.423C103.572 118.183 104.012 118.063 104.492 118.063C104.925 118.063 105.302 118.149 105.622 118.323C105.949 118.489 106.209 118.699 106.402 118.953V118.153H107.552V123.663H106.402V122.843C106.209 123.103 105.945 123.319 105.612 123.493C105.279 123.666 104.899 123.753 104.472 123.753C103.999 123.753 103.565 123.633 103.172 123.393C102.779 123.146 102.465 122.806 102.232 122.373C102.005 121.933 101.892 121.436 101.892 120.883ZM106.402 120.903C106.402 120.523 106.322 120.193 106.162 119.913C106.009 119.633 105.805 119.419 105.552 119.273C105.299 119.126 105.025 119.053 104.732 119.053C104.439 119.053 104.165 119.126 103.912 119.273C103.659 119.413 103.452 119.623 103.292 119.903C103.139 120.176 103.062 120.503 103.062 120.883C103.062 121.263 103.139 121.596 103.292 121.883C103.452 122.169 103.659 122.389 103.912 122.543C104.172 122.689 104.445 122.763 104.732 122.763C105.025 122.763 105.299 122.689 105.552 122.543C105.805 122.396 106.009 122.183 106.162 121.903C106.322 121.616 106.402 121.283 106.402 120.903ZM110.189 116.263V123.663H109.049V116.263H110.189Z" fill="#555555"/>
<path d="M80.4793 142.792C80.626 143.525 80.9413 144.082 81.4253 144.464C81.9093 144.845 82.562 145.036 83.3833 145.036C84.4247 145.036 85.1873 144.625 85.6713 143.804C86.1553 142.982 86.3973 141.582 86.3973 139.602C86.0453 140.1 85.5467 140.489 84.9013 140.768C84.2707 141.032 83.5813 141.164 82.8333 141.164C81.88 141.164 81.0147 140.973 80.2373 140.592C79.46 140.196 78.844 139.616 78.3893 138.854C77.9493 138.076 77.7293 137.138 77.7293 136.038C77.7293 134.424 78.1987 133.141 79.1373 132.188C80.0907 131.22 81.396 130.736 83.0533 130.736C85.048 130.736 86.4633 131.403 87.2993 132.738C88.15 134.058 88.5753 136.089 88.5753 138.832C88.5753 140.724 88.414 142.271 88.0913 143.474C87.7833 144.676 87.2407 145.586 86.4633 146.202C85.686 146.818 84.608 147.126 83.2293 147.126C81.66 147.126 80.45 146.715 79.5993 145.894C78.7487 145.072 78.272 144.038 78.1693 142.792H80.4793ZM83.2733 139.052C84.1533 139.052 84.8427 138.78 85.3413 138.238C85.8547 137.68 86.1113 136.947 86.1113 136.038C86.1113 135.026 85.84 134.241 85.2973 133.684C84.7693 133.112 84.0433 132.826 83.1193 132.826C82.1953 132.826 81.462 133.119 80.9193 133.706C80.3913 134.278 80.1273 135.033 80.1273 135.972C80.1273 136.866 80.384 137.607 80.8973 138.194C81.4253 138.766 82.2173 139.052 83.2733 139.052ZM90.8802 138.92C90.8802 136.382 91.3055 134.402 92.1562 132.98C93.0215 131.542 94.5028 130.824 96.6002 130.824C98.6975 130.824 100.172 131.542 101.022 132.98C101.888 134.402 102.32 136.382 102.32 138.92C102.32 141.486 101.888 143.496 101.022 144.948C100.172 146.385 98.6975 147.104 96.6002 147.104C94.5028 147.104 93.0215 146.385 92.1562 144.948C91.3055 143.496 90.8802 141.486 90.8802 138.92ZM99.8562 138.92C99.8562 137.732 99.7755 136.727 99.6142 135.906C99.4675 135.084 99.1595 134.417 98.6902 133.904C98.2208 133.376 97.5242 133.112 96.6002 133.112C95.6762 133.112 94.9795 133.376 94.5102 133.904C94.0408 134.417 93.7255 135.084 93.5642 135.906C93.4175 136.727 93.3442 137.732 93.3442 138.92C93.3442 140.152 93.4175 141.186 93.5642 142.022C93.7108 142.858 94.0188 143.532 94.4882 144.046C94.9722 144.559 95.6762 144.816 96.6002 144.816C97.5242 144.816 98.2208 144.559 98.6902 144.046C99.1742 143.532 99.4895 142.858 99.6362 142.022C99.7828 141.186 99.8562 140.152 99.8562 138.92ZM104.138 134.982C104.138 133.911 104.446 133.075 105.062 132.474C105.693 131.858 106.499 131.55 107.482 131.55C108.465 131.55 109.264 131.858 109.88 132.474C110.511 133.075 110.826 133.911 110.826 134.982C110.826 136.052 110.511 136.896 109.88 137.512C109.264 138.128 108.465 138.436 107.482 138.436C106.499 138.436 105.693 138.128 105.062 137.512C104.446 136.896 104.138 136.052 104.138 134.982ZM117.558 131.836L108.78 147.148H106.316L115.094 131.836H117.558ZM107.482 133.068C106.558 133.068 106.096 133.706 106.096 134.982C106.096 136.272 106.558 136.918 107.482 136.918C107.922 136.918 108.259 136.764 108.494 136.456C108.743 136.133 108.868 135.642 108.868 134.982C108.868 133.706 108.406 133.068 107.482 133.068ZM113.092 143.98C113.092 142.909 113.4 142.073 114.016 141.472C114.647 140.856 115.453 140.548 116.436 140.548C117.404 140.548 118.196 140.856 118.812 141.472C119.443 142.073 119.758 142.909 119.758 143.98C119.758 145.05 119.443 145.894 118.812 146.51C118.196 147.126 117.404 147.434 116.436 147.434C115.453 147.434 114.647 147.126 114.016 146.51C113.4 145.894 113.092 145.05 113.092 143.98ZM116.414 142.066C115.49 142.066 115.028 142.704 115.028 143.98C115.028 145.256 115.49 145.894 116.414 145.894C117.338 145.894 117.8 145.256 117.8 143.98C117.8 142.704 117.338 142.066 116.414 142.066Z" fill="#1296B0"/>
<defs>
<filter id="filter0_d_0_1" x="50.6104" y="85.8716" width="95.4952" height="95.4952" filterUnits="userSpaceOnUse" color-interpolation-filters="sRGB">
<feFlood flood-opacity="0" result="BackgroundImageFix"/>
<feColorMatrix in="SourceAlpha" type="matrix" values="0 0 0 0 0 0 0 0 0 0 0 0 0 0 0 0 0 0 127 0" result="hardAlpha"/>
<feOffset/>
<feGaussianBlur stdDeviation="4.62991"/>
<feComposite in2="hardAlpha" operator="out"/>
<feColorMatrix type="matrix" values="0 0 0 0 0 0 0 0 0 0 0 0 0 0 0 0 0 0 0.04 0"/>
<feBlend mode="normal" in2="BackgroundImageFix" result="effect1_dropShadow_0_1"/>
<feBlend mode="normal" in="SourceGraphic" in2="effect1_dropShadow_0_1" result="shape"/>
</filter>
</defs>
</svg>
