<svg width="14" height="18" viewBox="0 0 14 18" fill="none" xmlns="http://www.w3.org/2000/svg">
<path opacity="0.8" d="M12.8893 10.1974L7.4337 3.01455C6.89107 2.30012 6.08687 1.83052 5.198 1.70904C4.30913 1.58756 3.40841 1.82416 2.69398 2.36679C1.97956 2.90942 1.50995 3.71362 1.38848 4.60249C1.267 5.49136 1.5036 6.39208 2.04623 7.10651L8.52524 15.6354C8.79955 15.9839 9.19972 16.2106 9.63958 16.2668C10.0794 16.323 10.5238 16.2043 10.8769 15.9361C11.23 15.6678 11.4637 15.2717 11.5276 14.8328C11.5914 14.394 11.4804 13.9477 11.2183 13.59L5.42228 5.95886C5.33171 5.8398 5.29215 5.68964 5.31231 5.54141C5.33246 5.39318 5.41067 5.25902 5.52973 5.16846C5.64879 5.0779 5.79896 5.03834 5.94718 5.05849C6.09541 5.07864 6.22957 5.15685 6.32013 5.27591L12.1162 12.907C12.5645 13.5025 12.7587 14.2514 12.6563 14.9897C12.5538 15.728 12.1631 16.3957 11.5696 16.8467C10.976 17.2976 10.228 17.4951 9.48925 17.3959C8.75047 17.2967 8.08107 16.9088 7.62754 16.3173L1.14852 7.78834C0.424916 6.83581 0.109335 5.63484 0.271205 4.44963C0.433076 3.26443 1.05914 2.19206 2.01167 1.46845C2.9642 0.744844 4.16516 0.429262 5.35037 0.591133C6.53558 0.753003 7.60794 1.37907 8.33155 2.33159L13.7881 9.51574C13.8755 9.63499 13.9125 9.78377 13.8912 9.93004C13.8699 10.0763 13.792 10.2084 13.6743 10.2978C13.5566 10.3872 13.4085 10.4268 13.2619 10.408C13.1153 10.3893 12.9819 10.3137 12.8904 10.1976L12.8893 10.1974Z" fill="#1296B0"/>
</svg>
