<svg width="279" height="73" viewBox="0 0 279 73" fill="none" xmlns="http://www.w3.org/2000/svg">
<path d="M16.232 19.0635C21.1605 19.5262 26.1091 20.009 31.0376 20.4717C32.6469 19.0836 38.1186 14.7183 46.2456 14.5171C48.3377 14.4769 54.2117 14.4166 59.6431 18.3594C67.5488 24.0927 68.1322 33.628 68.1724 34.4528C68.7156 46.4625 57.9332 55.2736 58.8988 56.0582C59.5626 56.6013 64.6722 52.3969 68.1523 46.6435C70.3852 42.9421 71.4111 39.482 71.9342 37.0479C71.9744 34.5534 71.9342 21.8195 61.8961 11.5801C53.7691 3.27191 43.9523 1.62234 40.8946 1.22C38.0783 1.54187 32.667 2.52759 27.1149 6.24918C20.4966 10.6749 17.3987 16.4886 16.232 19.0635Z" fill="#5BC4BF"/>
<path d="M23.4133 34.4118C23.1316 34.3112 24.0369 28.8596 26.6922 24.9972C28.4424 22.4826 31.0374 20.2698 31.0374 20.2698C31.0776 20.2497 31.0977 20.2094 31.1178 20.2094C33.6525 20.8129 35.7044 21.5371 37.2131 22.1205C42.4434 24.2127 44.3142 26.164 45.0786 27.0491C45.9637 28.0751 46.6678 29.2217 46.4867 29.4028C46.1246 29.7447 43.1072 25.3794 38.1183 24.4339C35.0003 23.8304 32.3852 24.8162 31.6208 25.138C28.6033 26.3249 26.9336 28.3768 26.1491 29.3424C23.9967 32.0179 23.5943 34.4722 23.4133 34.4118Z" fill="#87236A"/>
<path d="M23.514 34.3116C24.4997 34.1104 24.8216 44.6918 31.4398 47.8501C35.5235 49.8014 41.2365 48.5944 44.6965 45.1746C49.0014 40.9099 49.444 33.0845 44.9379 26.9891C47.4927 29.0611 51.3751 32.7626 54.4328 38.4556C58.3756 45.7781 58.8987 52.5977 58.9389 56.1181C58.5366 56.3595 57.9532 56.6814 57.2491 57.0233C48.3979 61.3283 39.245 58.3913 38.6415 58.1901C36.5494 57.486 29.2673 54.7099 25.3848 47.3271C22.1058 41.111 22.7295 34.4725 23.514 34.3116Z" fill="#87236A"/>
<path d="M2.89478 23.4085C4.4035 22.4831 6.3749 21.4773 8.74864 20.6525C11.6655 19.6467 14.2806 19.2242 16.2923 19.0432C17.4188 16.5487 20.215 11.2781 26.1091 6.95304C32.1238 2.54748 38.1588 1.52153 40.8946 1.21977C38.2392 0.797323 27.4166 -0.65108 16.7348 6.12825C7.42096 12.0426 3.90059 20.6324 2.89478 23.4085Z" fill="#1296B0"/>
<path d="M58.9191 56.1181C60.9911 54.7703 64.0488 52.4367 66.7645 48.7352C70.1642 44.0883 71.4315 39.5218 71.9545 36.9066C71.9746 40.0448 71.6125 46.3816 67.9916 53.2414C64.7931 59.2965 60.5083 62.9779 58.034 64.8085C58.3156 61.9318 58.6174 59.035 58.9191 56.1181Z" fill="#1296B0"/>
<path d="M16.2926 19.0635C16.8558 19.0031 17.4996 18.9227 18.2237 18.8824C18.5657 18.8623 19.31 18.802 20.2756 18.802C20.8389 18.802 21.8849 18.7819 23.1925 18.8623C24.5403 18.9428 25.526 19.1037 26.4111 19.2445C27.6382 19.4457 29.2676 19.7475 31.1183 20.2303C30.4746 20.7734 21.7039 28.5586 23.3735 40.2263C24.4598 47.8907 29.5493 53.8453 35.1215 56.6616C45.24 61.7713 57.169 56.9835 57.169 57.0439C57.2696 57.406 49.2432 61.3287 39.3459 59.8401C36.59 59.4176 23.6552 57.0841 17.0369 44.833C10.4186 32.5216 15.6489 20.4717 16.2926 19.0635Z" fill="#BF2070"/>
<path d="M2.87487 23.4282L2.89499 23.3879C4.48418 22.4022 6.65674 21.2757 9.35234 20.4106C12.0278 19.5456 14.4418 19.1835 16.2925 19.0427C15.6488 20.5313 10.4386 33.225 17.5397 45.4761C17.8414 45.9991 23.5947 55.5545 35.0812 58.8134C44.7772 61.5493 53.4072 58.5922 53.4072 58.6324C53.4072 58.8738 44.8175 62.3138 34.2363 60.7648C31.0177 60.3021 18.8473 58.3306 10.2777 47.3469C2.53289 37.4294 2.71394 26.5865 2.87487 23.4885C2.85475 23.4684 2.87487 23.4684 2.87487 23.4282Z" fill="#F04E30"/>
<path d="M2.89469 23.4082C-2.93905 38.0532 1.48655 54.8104 13.6368 64.5067C26.3705 74.6656 44.777 74.8668 58.0135 64.8286C58.3153 61.9318 58.617 59.035 58.9188 56.118C55.8208 57.8078 50.3693 60.2822 43.1878 60.9058C39.9691 61.1874 30.3535 61.8714 20.416 55.9571C17.6802 54.3276 9.63367 49.0369 5.40924 38.536C2.85446 32.2596 2.71364 26.6269 2.89469 23.4082Z" fill="#F7941D"/>
<path d="M36.0064 49.1174C43.0946 49.1174 48.8407 43.4252 48.8407 36.4036C48.8407 29.382 43.0946 23.6898 36.0064 23.6898C28.9183 23.6898 23.1722 29.382 23.1722 36.4036C23.1722 43.4252 28.9183 49.1174 36.0064 49.1174Z" fill="#F1F2F2"/>
<path d="M61.3932 19.4855C67.2471 24.4744 68.5144 30.8715 68.8564 32.843C70.0432 39.5016 67.9712 44.6716 67.3678 46.0798C64.8532 51.8935 60.6288 55.0116 58.8988 56.1381C58.8585 52.9999 58.3355 41.4127 49.3837 31.4147C42.6045 23.8307 34.5379 21.135 31.098 20.2097C32.6067 18.9423 35.0005 17.2525 38.2795 15.9852C39.7882 15.4018 43.1477 14.1344 47.5531 14.2551C55.2979 14.4563 60.5483 18.7613 61.3932 19.4855Z" fill="#104573"/>
<path d="M92.8551 43.9478V53.9861H88.1478V26.9291H98.5078C101.525 26.9291 103.939 27.7136 105.709 29.2827C107.48 30.8518 108.385 32.944 108.385 35.539C108.385 38.1944 107.52 40.2665 105.77 41.735C104.02 43.2035 101.586 43.9478 98.4675 43.9478H92.8551ZM92.8551 40.1659H98.5078C100.177 40.1659 101.465 39.7635 102.33 38.979C103.215 38.1944 103.658 37.0478 103.658 35.5591C103.658 34.0906 103.215 32.9239 102.31 32.0588C101.425 31.1938 100.198 30.7311 98.6285 30.711H92.8551V40.1659Z" fill="black"/>
<path d="M120.837 54.3685C117.98 54.3685 115.647 53.4632 113.876 51.6729C112.106 49.8624 111.201 47.4685 111.201 44.4711V43.9078C111.201 41.8961 111.583 40.1058 112.368 38.5367C113.132 36.9474 114.238 35.7203 115.626 34.8553C117.035 33.9702 118.584 33.5276 120.314 33.5276C123.049 33.5276 125.162 34.3926 126.65 36.1428C128.139 37.8929 128.883 40.3673 128.883 43.5658V45.3964H115.747C115.888 47.0661 116.431 48.3737 117.417 49.3393C118.382 50.3049 119.609 50.7877 121.078 50.7877C123.15 50.7877 124.84 49.9428 126.127 48.2731L128.561 50.5866C127.757 51.7936 126.69 52.7189 125.343 53.3828C124.015 54.0265 122.506 54.3685 120.837 54.3685ZM120.314 37.1285C119.066 37.1285 118.081 37.571 117.316 38.4361C116.552 39.3011 116.069 40.5081 115.848 42.0571H124.457V41.7151C124.357 40.2063 123.955 39.0597 123.251 38.2952C122.526 37.5308 121.561 37.1285 120.314 37.1285Z" fill="black"/>
<path d="M131.76 43.7472C131.76 41.7758 132.142 40.0055 132.927 38.4163C133.711 36.8271 134.798 35.6201 136.226 34.7752C137.634 33.9303 139.263 33.5078 141.094 33.5078C143.81 33.5078 146.002 34.3729 147.692 36.123C149.382 37.8732 150.287 40.1866 150.428 43.0633L150.448 44.1295C150.448 46.121 150.066 47.8913 149.301 49.4403C148.537 51.0094 147.451 52.2164 146.022 53.0613C144.594 53.9062 142.965 54.3488 141.114 54.3488C138.278 54.3488 136.005 53.4033 134.295 51.5123C132.585 49.6213 131.74 47.1067 131.74 43.9685V43.7472H131.76ZM136.266 44.1496C136.266 46.2216 136.688 47.8309 137.553 49.0178C138.418 50.2047 139.605 50.768 141.114 50.768C142.623 50.768 143.83 50.1645 144.675 48.9776C145.52 47.7907 145.942 46.0406 145.942 43.7472C145.942 41.7155 145.499 40.1061 144.634 38.9192C143.769 37.7324 142.583 37.1289 141.074 37.1289C139.605 37.1289 138.439 37.7122 137.553 38.879C136.668 40.0458 136.266 41.816 136.266 44.1496Z" fill="black"/>
<path d="M172.052 44.1492C172.052 47.2673 171.348 49.7417 169.94 51.5924C168.532 53.4431 166.641 54.3685 164.247 54.3685C162.035 54.3685 160.284 53.6443 158.957 52.1959V61.7312H154.451V33.8897H158.615L158.796 35.9416C160.124 34.3323 161.914 33.5276 164.207 33.5276C166.661 33.5276 168.592 34.4328 169.981 36.2635C171.369 38.0941 172.073 40.6288 172.073 43.8676V44.1492H172.052ZM167.567 43.7469C167.567 41.7352 167.164 40.146 166.36 38.9792C165.555 37.8124 164.408 37.2089 162.94 37.2089C161.089 37.2089 159.761 37.9734 158.957 39.5023V48.414C159.782 49.9831 161.109 50.7475 162.98 50.7475C164.408 50.7475 165.535 50.1641 166.36 49.0175C167.164 47.8708 167.567 46.1005 167.567 43.7469Z" fill="black"/>
<path d="M180.884 53.986H176.358V25.4404H180.864V53.986H180.884Z" fill="black"/>
<path d="M194.825 54.3685C191.968 54.3685 189.635 53.4632 187.864 51.6729C186.094 49.8624 185.189 47.4685 185.189 44.4711V43.9078C185.189 41.8961 185.571 40.1058 186.356 38.5367C187.12 36.9474 188.226 35.7203 189.614 34.8553C191.023 33.9702 192.572 33.5276 194.302 33.5276C197.037 33.5276 199.15 34.3926 200.638 36.1428C202.127 37.8929 202.871 40.3673 202.871 43.5658V45.3964H189.735C189.876 47.0661 190.419 48.3737 191.405 49.3393C192.37 50.3049 193.597 50.7877 195.066 50.7877C197.138 50.7877 198.828 49.9428 200.115 48.2731L202.549 50.5866C201.745 51.7936 200.678 52.7189 199.331 53.3828C198.023 54.0265 196.514 54.3685 194.825 54.3685ZM194.302 37.1285C193.054 37.1285 192.069 37.571 191.304 38.4361C190.54 39.3011 190.057 40.5081 189.836 42.0571H198.446V41.7151C198.345 40.2063 197.943 39.0597 197.239 38.2952C196.534 37.5308 195.549 37.1285 194.302 37.1285Z" fill="black"/>
<path d="M221.177 47.0263C221.177 45.8395 220.755 44.9141 219.93 44.2703C219.085 43.6266 217.576 42.9829 215.404 42.319C213.231 41.6552 211.481 40.931 210.193 40.1263C207.719 38.5773 206.492 36.5656 206.492 34.0712C206.492 31.8986 207.377 30.0881 209.167 28.6799C210.938 27.2717 213.251 26.5676 216.088 26.5676C217.978 26.5676 219.648 26.9096 221.117 27.6137C222.585 28.2977 223.752 29.3035 224.597 30.5709C225.442 31.8583 225.864 33.2665 225.864 34.8356H221.177C221.177 33.4274 220.734 32.321 219.849 31.5164C218.964 30.7117 217.697 30.3093 216.047 30.3093C214.518 30.3093 213.311 30.6312 212.467 31.2951C211.622 31.9589 211.199 32.8642 211.199 34.0511C211.199 35.0368 211.662 35.8616 212.567 36.5254C213.493 37.1893 215.001 37.833 217.093 38.4566C219.206 39.0802 220.895 39.8044 222.163 40.589C223.43 41.3937 224.375 42.2989 224.959 43.345C225.562 44.3709 225.844 45.5981 225.844 46.9861C225.844 49.2392 224.979 51.0296 223.249 52.3573C221.519 53.685 219.185 54.3488 216.208 54.3488C214.257 54.3488 212.446 53.9867 210.817 53.2625C209.168 52.5383 207.9 51.5325 206.995 50.2651C206.09 48.9978 205.627 47.5091 205.627 45.7992H210.334C210.334 47.3281 210.837 48.515 211.863 49.3599C212.869 50.2048 214.337 50.6272 216.228 50.6272C217.858 50.6272 219.085 50.3054 219.91 49.6415C220.755 48.9978 221.177 48.1126 221.177 47.0263Z" fill="black"/>
<path d="M228.902 43.7472C228.902 41.7758 229.284 40.0055 230.069 38.4163C230.853 36.8271 231.939 35.6201 233.368 34.7752C234.776 33.9303 236.405 33.5078 238.236 33.5078C240.952 33.5078 243.144 34.3729 244.834 36.123C246.524 37.8732 247.429 40.1866 247.57 43.0633L247.59 44.1295C247.59 46.121 247.208 47.8913 246.443 49.4403C245.679 51.0094 244.593 52.2164 243.164 53.0613C241.736 53.9062 240.107 54.3488 238.256 54.3488C235.42 54.3488 233.146 53.4033 231.437 51.5123C229.727 49.6213 228.882 47.1067 228.882 43.9685V43.7472H228.902ZM233.428 44.1496C233.428 46.2216 233.851 47.8309 234.716 49.0178C235.581 50.2047 236.767 50.768 238.276 50.768C239.785 50.768 240.992 50.1645 241.837 48.9776C242.682 47.7907 243.104 46.0406 243.104 43.7472C243.104 41.7155 242.661 40.1061 241.796 38.9192C240.931 37.7324 239.745 37.1289 238.236 37.1289C236.767 37.1289 235.601 37.7122 234.716 38.879C233.83 40.0458 233.428 41.816 233.428 44.1496Z" fill="black"/>
<path d="M256.401 53.986H251.895V25.4404H256.401V53.986Z" fill="black"/>
<path d="M266.58 17.1728H263.502V25.662H261.792V17.1728H258.734V15.7847H266.56V17.1728H266.58Z" fill="black"/>
<path d="M270.161 15.7847L273.017 23.3486L275.854 15.7847H278.066V25.662H276.356V22.4031L276.517 18.0579L273.601 25.662H272.373L269.457 18.0579L269.617 22.4031V25.662H267.908V15.7847H270.161Z" fill="black"/>
</svg>
