<svg width="256" height="145" viewBox="0 0 256 145" fill="none" xmlns="http://www.w3.org/2000/svg">
<path d="M5.49466 1.36396V2.29396H2.54466V4.34396H4.84466V5.27396H2.54466V8.31396H1.40466V1.36396H5.49466ZM7.13115 2.07396C6.92448 2.07396 6.75115 2.00396 6.61115 1.86396C6.47115 1.72396 6.40115 1.55063 6.40115 1.34396C6.40115 1.1373 6.47115 0.963965 6.61115 0.823965C6.75115 0.683965 6.92448 0.613964 7.13115 0.613964C7.33115 0.613964 7.50115 0.683965 7.64115 0.823965C7.78115 0.963965 7.85115 1.1373 7.85115 1.34396C7.85115 1.55063 7.78115 1.72396 7.64115 1.86396C7.50115 2.00396 7.33115 2.07396 7.13115 2.07396ZM7.69115 2.80396V8.31396H6.55115V2.80396H7.69115ZM11.9679 2.71396C12.4012 2.71396 12.7879 2.80396 13.1279 2.98396C13.4745 3.16396 13.7445 3.43063 13.9379 3.78396C14.1312 4.1373 14.2279 4.56396 14.2279 5.06396V8.31396H13.0979V5.23396C13.0979 4.74063 12.9745 4.36396 12.7279 4.10396C12.4812 3.8373 12.1445 3.70396 11.7179 3.70396C11.2912 3.70396 10.9512 3.8373 10.6979 4.10396C10.4512 4.36396 10.3279 4.74063 10.3279 5.23396V8.31396H9.18787V2.80396H10.3279V3.43396C10.5145 3.2073 10.7512 3.03063 11.0379 2.90396C11.3312 2.7773 11.6412 2.71396 11.9679 2.71396ZM15.302 5.53396C15.302 4.98063 15.4153 4.49063 15.642 4.06396C15.8753 3.6373 16.1887 3.3073 16.582 3.07396C16.982 2.83396 17.422 2.71396 17.902 2.71396C18.3353 2.71396 18.712 2.80063 19.032 2.97396C19.3587 3.14063 19.6187 3.35063 19.812 3.60396V2.80396H20.962V8.31396H19.812V7.49396C19.6187 7.75396 19.3553 7.97063 19.022 8.14396C18.6887 8.3173 18.3087 8.40396 17.882 8.40396C17.4087 8.40396 16.9753 8.28396 16.582 8.04396C16.1887 7.7973 15.8753 7.4573 15.642 7.02396C15.4153 6.58396 15.302 6.0873 15.302 5.53396ZM19.812 5.55396C19.812 5.17396 19.732 4.84396 19.572 4.56396C19.4187 4.28396 19.2153 4.07063 18.962 3.92396C18.7087 3.7773 18.4353 3.70396 18.142 3.70396C17.8487 3.70396 17.5753 3.7773 17.322 3.92396C17.0687 4.06396 16.862 4.27396 16.702 4.55396C16.5487 4.8273 16.472 5.15396 16.472 5.53396C16.472 5.91396 16.5487 6.2473 16.702 6.53396C16.862 6.82063 17.0687 7.04063 17.322 7.19396C17.582 7.34063 17.8553 7.41396 18.142 7.41396C18.4353 7.41396 18.7087 7.34063 18.962 7.19396C19.2153 7.0473 19.4187 6.83396 19.572 6.55396C19.732 6.2673 19.812 5.93396 19.812 5.55396ZM23.5994 0.913965V8.31396H22.4594V0.913965H23.5994ZM30.8637 8.38396C30.2171 8.38396 29.6204 8.23396 29.0737 7.93396C28.5337 7.6273 28.1037 7.20396 27.7837 6.66396C27.4704 6.1173 27.3137 5.50396 27.3137 4.82396C27.3137 4.14396 27.4704 3.53396 27.7837 2.99396C28.1037 2.45396 28.5337 2.03396 29.0737 1.73396C29.6204 1.4273 30.2171 1.27396 30.8637 1.27396C31.5171 1.27396 32.1137 1.4273 32.6537 1.73396C33.2004 2.03396 33.6304 2.45396 33.9437 2.99396C34.2571 3.53396 34.4137 4.14396 34.4137 4.82396C34.4137 5.50396 34.2571 6.1173 33.9437 6.66396C33.6304 7.20396 33.2004 7.6273 32.6537 7.93396C32.1137 8.23396 31.5171 8.38396 30.8637 8.38396ZM30.8637 7.39396C31.3237 7.39396 31.7337 7.29063 32.0937 7.08396C32.4537 6.87063 32.7337 6.57063 32.9337 6.18396C33.1404 5.79063 33.2437 5.3373 33.2437 4.82396C33.2437 4.31063 33.1404 3.86063 32.9337 3.47396C32.7337 3.0873 32.4537 2.79063 32.0937 2.58396C31.7337 2.3773 31.3237 2.27396 30.8637 2.27396C30.4037 2.27396 29.9937 2.3773 29.6337 2.58396C29.2737 2.79063 28.9904 3.0873 28.7837 3.47396C28.5837 3.86063 28.4837 4.31063 28.4837 4.82396C28.4837 5.3373 28.5837 5.79063 28.7837 6.18396C28.9904 6.57063 29.2737 6.87063 29.6337 7.08396C29.9937 7.29063 30.4037 7.39396 30.8637 7.39396ZM36.6755 3.61396C36.8689 3.36063 37.1322 3.1473 37.4655 2.97396C37.7989 2.80063 38.1755 2.71396 38.5955 2.71396C39.0755 2.71396 39.5122 2.83396 39.9055 3.07396C40.3055 3.3073 40.6189 3.6373 40.8455 4.06396C41.0722 4.49063 41.1855 4.98063 41.1855 5.53396C41.1855 6.0873 41.0722 6.58396 40.8455 7.02396C40.6189 7.4573 40.3055 7.7973 39.9055 8.04396C39.5122 8.28396 39.0755 8.40396 38.5955 8.40396C38.1755 8.40396 37.8022 8.32063 37.4755 8.15396C37.1489 7.98063 36.8822 7.7673 36.6755 7.51396V10.934H35.5355V2.80396H36.6755V3.61396ZM40.0255 5.53396C40.0255 5.15396 39.9455 4.8273 39.7855 4.55396C39.6322 4.27396 39.4255 4.06396 39.1655 3.92396C38.9122 3.7773 38.6389 3.70396 38.3455 3.70396C38.0589 3.70396 37.7855 3.7773 37.5255 3.92396C37.2722 4.07063 37.0655 4.28396 36.9055 4.56396C36.7522 4.84396 36.6755 5.17396 36.6755 5.55396C36.6755 5.93396 36.7522 6.2673 36.9055 6.55396C37.0655 6.83396 37.2722 7.0473 37.5255 7.19396C37.7855 7.34063 38.0589 7.41396 38.3455 7.41396C38.6389 7.41396 38.9122 7.34063 39.1655 7.19396C39.4255 7.04063 39.6322 6.82063 39.7855 6.53396C39.9455 6.2473 40.0255 5.91396 40.0255 5.53396ZM44.3129 8.40396C43.8795 8.40396 43.4895 8.3273 43.1429 8.17396C42.8029 8.01396 42.5329 7.80063 42.3329 7.53396C42.1329 7.26063 42.0262 6.9573 42.0129 6.62396H43.1929C43.2129 6.8573 43.3229 7.05396 43.5229 7.21396C43.7295 7.3673 43.9862 7.44396 44.2929 7.44396C44.6129 7.44396 44.8595 7.38396 45.0329 7.26396C45.2129 7.1373 45.3029 6.9773 45.3029 6.78396C45.3029 6.5773 45.2029 6.42396 45.0029 6.32396C44.8095 6.22396 44.4995 6.11396 44.0729 5.99396C43.6595 5.88063 43.3229 5.77063 43.0629 5.66396C42.8029 5.5573 42.5762 5.39396 42.3829 5.17396C42.1962 4.95396 42.1029 4.66396 42.1029 4.30396C42.1029 4.01063 42.1895 3.74396 42.3629 3.50396C42.5362 3.2573 42.7829 3.06396 43.1029 2.92396C43.4295 2.78396 43.8029 2.71396 44.2229 2.71396C44.8495 2.71396 45.3529 2.87396 45.7329 3.19396C46.1195 3.5073 46.3262 3.9373 46.3529 4.48396H45.2129C45.1929 4.2373 45.0929 4.04063 44.9129 3.89396C44.7329 3.7473 44.4895 3.67396 44.1829 3.67396C43.8829 3.67396 43.6529 3.73063 43.4929 3.84396C43.3329 3.9573 43.2529 4.1073 43.2529 4.29396C43.2529 4.44063 43.3062 4.56396 43.4129 4.66396C43.5195 4.76396 43.6495 4.84396 43.8029 4.90396C43.9562 4.9573 44.1829 5.0273 44.4829 5.11396C44.8829 5.22063 45.2095 5.33063 45.4629 5.44396C45.7229 5.55063 45.9462 5.71063 46.1329 5.92396C46.3195 6.1373 46.4162 6.42063 46.4229 6.77396C46.4229 7.0873 46.3362 7.3673 46.1629 7.61396C45.9895 7.86063 45.7429 8.05396 45.4229 8.19396C45.1095 8.33396 44.7395 8.40396 44.3129 8.40396ZM53.8623 8.31396L52.2623 5.53396H51.3923V8.31396H50.2523V1.36396H52.6523C53.1857 1.36396 53.6357 1.4573 54.0023 1.64396C54.3757 1.83063 54.6523 2.08063 54.8323 2.39396C55.019 2.7073 55.1123 3.0573 55.1123 3.44396C55.1123 3.8973 54.979 4.31063 54.7123 4.68396C54.4523 5.05063 54.049 5.30063 53.5023 5.43396L55.2223 8.31396H53.8623ZM51.3923 4.62396H52.6523C53.079 4.62396 53.399 4.5173 53.6123 4.30396C53.8323 4.09063 53.9423 3.80396 53.9423 3.44396C53.9423 3.08396 53.8357 2.80396 53.6223 2.60396C53.409 2.3973 53.0857 2.29396 52.6523 2.29396H51.3923V4.62396ZM56.1907 5.53396C56.1907 4.98063 56.304 4.49063 56.5307 4.06396C56.764 3.6373 57.0773 3.3073 57.4707 3.07396C57.8707 2.83396 58.3107 2.71396 58.7907 2.71396C59.224 2.71396 59.6007 2.80063 59.9207 2.97396C60.2473 3.14063 60.5073 3.35063 60.7007 3.60396V2.80396H61.8507V8.31396H60.7007V7.49396C60.5073 7.75396 60.244 7.97063 59.9107 8.14396C59.5773 8.3173 59.1973 8.40396 58.7707 8.40396C58.2973 8.40396 57.864 8.28396 57.4707 8.04396C57.0773 7.7973 56.764 7.4573 56.5307 7.02396C56.304 6.58396 56.1907 6.0873 56.1907 5.53396ZM60.7007 5.55396C60.7007 5.17396 60.6207 4.84396 60.4607 4.56396C60.3073 4.28396 60.104 4.07063 59.8507 3.92396C59.5973 3.7773 59.324 3.70396 59.0307 3.70396C58.7373 3.70396 58.464 3.7773 58.2107 3.92396C57.9573 4.06396 57.7507 4.27396 57.5907 4.55396C57.4373 4.8273 57.3607 5.15396 57.3607 5.53396C57.3607 5.91396 57.4373 6.2473 57.5907 6.53396C57.7507 6.82063 57.9573 7.04063 58.2107 7.19396C58.4707 7.34063 58.744 7.41396 59.0307 7.41396C59.324 7.41396 59.5973 7.34063 59.8507 7.19396C60.104 7.0473 60.3073 6.83396 60.4607 6.55396C60.6207 6.2673 60.7007 5.93396 60.7007 5.55396ZM64.678 3.73396V6.78396C64.678 6.99063 64.7247 7.14063 64.818 7.23396C64.918 7.32063 65.0847 7.36396 65.318 7.36396H66.018V8.31396H65.118C64.6047 8.31396 64.2114 8.19396 63.938 7.95396C63.6647 7.71396 63.528 7.32396 63.528 6.78396V3.73396H62.878V2.80396H63.528V1.43396H64.678V2.80396H66.018V3.73396H64.678ZM67.6487 2.07396C67.4421 2.07396 67.2687 2.00396 67.1287 1.86396C66.9887 1.72396 66.9187 1.55063 66.9187 1.34396C66.9187 1.1373 66.9887 0.963965 67.1287 0.823965C67.2687 0.683965 67.4421 0.613964 67.6487 0.613964C67.8487 0.613964 68.0187 0.683965 68.1587 0.823965C68.2987 0.963965 68.3687 1.1373 68.3687 1.34396C68.3687 1.55063 68.2987 1.72396 68.1587 1.86396C68.0187 2.00396 67.8487 2.07396 67.6487 2.07396ZM68.2087 2.80396V8.31396H67.0687V2.80396H68.2087ZM72.4854 2.71396C72.9188 2.71396 73.3054 2.80396 73.6454 2.98396C73.9921 3.16396 74.2621 3.43063 74.4554 3.78396C74.6488 4.1373 74.7454 4.56396 74.7454 5.06396V8.31396H73.6154V5.23396C73.6154 4.74063 73.4921 4.36396 73.2454 4.10396C72.9988 3.8373 72.6621 3.70396 72.2354 3.70396C71.8088 3.70396 71.4688 3.8373 71.2154 4.10396C70.9688 4.36396 70.8454 4.74063 70.8454 5.23396V8.31396H69.7054V2.80396H70.8454V3.43396C71.0321 3.2073 71.2688 3.03063 71.5554 2.90396C71.8488 2.7773 72.1588 2.71396 72.4854 2.71396ZM78.4196 2.71396C78.8463 2.71396 79.2229 2.80063 79.5496 2.97396C79.8829 3.14063 80.1429 3.35063 80.3296 3.60396V2.80396H81.4796V8.40396C81.4796 8.91063 81.3729 9.36063 81.1596 9.75396C80.9463 10.154 80.6363 10.4673 80.2296 10.694C79.8296 10.9206 79.3496 11.034 78.7896 11.034C78.0429 11.034 77.4229 10.8573 76.9296 10.504C76.4363 10.1573 76.1563 9.68396 76.0896 9.08396H77.2196C77.3063 9.37063 77.4896 9.60063 77.7696 9.77396C78.0563 9.95396 78.3963 10.044 78.7896 10.044C79.2496 10.044 79.6196 9.90396 79.8996 9.62396C80.1863 9.34396 80.3296 8.9373 80.3296 8.40396V7.48396C80.1363 7.74396 79.8729 7.96396 79.5396 8.14396C79.2129 8.3173 78.8396 8.40396 78.4196 8.40396C77.9396 8.40396 77.4996 8.28396 77.0996 8.04396C76.7063 7.7973 76.3929 7.4573 76.1596 7.02396C75.9329 6.58396 75.8196 6.0873 75.8196 5.53396C75.8196 4.98063 75.9329 4.49063 76.1596 4.06396C76.3929 3.6373 76.7063 3.3073 77.0996 3.07396C77.4996 2.83396 77.9396 2.71396 78.4196 2.71396ZM80.3296 5.55396C80.3296 5.17396 80.2496 4.84396 80.0896 4.56396C79.9363 4.28396 79.7329 4.07063 79.4796 3.92396C79.2263 3.7773 78.9529 3.70396 78.6596 3.70396C78.3663 3.70396 78.0929 3.7773 77.8396 3.92396C77.5863 4.06396 77.3796 4.27396 77.2196 4.55396C77.0663 4.8273 76.9896 5.15396 76.9896 5.53396C76.9896 5.91396 77.0663 6.2473 77.2196 6.53396C77.3796 6.82063 77.5863 7.04063 77.8396 7.19396C78.0996 7.34063 78.3729 7.41396 78.6596 7.41396C78.9529 7.41396 79.2263 7.34063 79.4796 7.19396C79.7329 7.0473 79.9363 6.83396 80.0896 6.55396C80.2496 6.2673 80.3296 5.93396 80.3296 5.55396Z" fill="#555555"/>
<path d="M170.278 8.38396C169.631 8.38396 169.035 8.23396 168.488 7.93396C167.948 7.6273 167.518 7.20396 167.198 6.66396C166.885 6.1173 166.728 5.50396 166.728 4.82396C166.728 4.14396 166.885 3.53396 167.198 2.99396C167.518 2.45396 167.948 2.03396 168.488 1.73396C169.035 1.4273 169.631 1.27396 170.278 1.27396C170.931 1.27396 171.528 1.4273 172.068 1.73396C172.615 2.03396 173.045 2.45396 173.358 2.99396C173.671 3.53396 173.828 4.14396 173.828 4.82396C173.828 5.50396 173.671 6.1173 173.358 6.66396C173.045 7.20396 172.615 7.6273 172.068 7.93396C171.528 8.23396 170.931 8.38396 170.278 8.38396ZM170.278 7.39396C170.738 7.39396 171.148 7.29063 171.508 7.08396C171.868 6.87063 172.148 6.57063 172.348 6.18396C172.555 5.79063 172.658 5.3373 172.658 4.82396C172.658 4.31063 172.555 3.86063 172.348 3.47396C172.148 3.0873 171.868 2.79063 171.508 2.58396C171.148 2.3773 170.738 2.27396 170.278 2.27396C169.818 2.27396 169.408 2.3773 169.048 2.58396C168.688 2.79063 168.405 3.0873 168.198 3.47396C167.998 3.86063 167.898 4.31063 167.898 4.82396C167.898 5.3373 167.998 5.79063 168.198 6.18396C168.405 6.57063 168.688 6.87063 169.048 7.08396C169.408 7.29063 169.818 7.39396 170.278 7.39396ZM177.08 7.29396L178.64 2.80396H179.85L177.75 8.31396H176.39L174.3 2.80396H175.52L177.08 7.29396ZM185.761 5.42396C185.761 5.63063 185.748 5.8173 185.721 5.98396H181.511C181.545 6.42396 181.708 6.7773 182.001 7.04396C182.295 7.31063 182.655 7.44396 183.081 7.44396C183.695 7.44396 184.128 7.1873 184.381 6.67396H185.611C185.445 7.18063 185.141 7.5973 184.701 7.92396C184.268 8.24396 183.728 8.40396 183.081 8.40396C182.555 8.40396 182.081 8.2873 181.661 8.05396C181.248 7.81396 180.921 7.48063 180.681 7.05396C180.448 6.62063 180.331 6.12063 180.331 5.55396C180.331 4.9873 180.445 4.49063 180.671 4.06396C180.905 3.63063 181.228 3.2973 181.641 3.06396C182.061 2.83063 182.541 2.71396 183.081 2.71396C183.601 2.71396 184.065 2.8273 184.471 3.05396C184.878 3.28063 185.195 3.60063 185.421 4.01396C185.648 4.42063 185.761 4.89063 185.761 5.42396ZM184.571 5.06396C184.565 4.64396 184.415 4.3073 184.121 4.05396C183.828 3.80063 183.465 3.67396 183.031 3.67396C182.638 3.67396 182.301 3.80063 182.021 4.05396C181.741 4.30063 181.575 4.6373 181.521 5.06396H184.571ZM188.023 3.60396C188.19 3.32396 188.41 3.1073 188.683 2.95396C188.963 2.79396 189.293 2.71396 189.673 2.71396V3.89396H189.383C188.937 3.89396 188.597 4.0073 188.363 4.23396C188.137 4.46063 188.023 4.85396 188.023 5.41396V8.31396H186.883V2.80396H188.023V3.60396ZM190.341 5.53396C190.341 4.98063 190.455 4.49063 190.681 4.06396C190.915 3.6373 191.228 3.3073 191.621 3.07396C192.021 2.83396 192.461 2.71396 192.941 2.71396C193.375 2.71396 193.751 2.80063 194.071 2.97396C194.398 3.14063 194.658 3.35063 194.851 3.60396V2.80396H196.001V8.31396H194.851V7.49396C194.658 7.75396 194.395 7.97063 194.061 8.14396C193.728 8.3173 193.348 8.40396 192.921 8.40396C192.448 8.40396 192.015 8.28396 191.621 8.04396C191.228 7.7973 190.915 7.4573 190.681 7.02396C190.455 6.58396 190.341 6.0873 190.341 5.53396ZM194.851 5.55396C194.851 5.17396 194.771 4.84396 194.611 4.56396C194.458 4.28396 194.255 4.07063 194.001 3.92396C193.748 3.7773 193.475 3.70396 193.181 3.70396C192.888 3.70396 192.615 3.7773 192.361 3.92396C192.108 4.06396 191.901 4.27396 191.741 4.55396C191.588 4.8273 191.511 5.15396 191.511 5.53396C191.511 5.91396 191.588 6.2473 191.741 6.53396C191.901 6.82063 192.108 7.04063 192.361 7.19396C192.621 7.34063 192.895 7.41396 193.181 7.41396C193.475 7.41396 193.748 7.34063 194.001 7.19396C194.255 7.0473 194.458 6.83396 194.611 6.55396C194.771 6.2673 194.851 5.93396 194.851 5.55396ZM198.639 0.913965V8.31396H197.499V0.913965H198.639ZM201.275 0.913965V8.31396H200.135V0.913965H201.275ZM208.98 8.31396L207.38 5.53396H206.51V8.31396H205.37V1.36396H207.77C208.303 1.36396 208.753 1.4573 209.12 1.64396C209.493 1.83063 209.77 2.08063 209.95 2.39396C210.136 2.7073 210.23 3.0573 210.23 3.44396C210.23 3.8973 210.096 4.31063 209.83 4.68396C209.57 5.05063 209.166 5.30063 208.62 5.43396L210.34 8.31396H208.98ZM206.51 4.62396H207.77C208.196 4.62396 208.516 4.5173 208.73 4.30396C208.95 4.09063 209.06 3.80396 209.06 3.44396C209.06 3.08396 208.953 2.80396 208.74 2.60396C208.526 2.3973 208.203 2.29396 207.77 2.29396H206.51V4.62396ZM211.308 5.53396C211.308 4.98063 211.421 4.49063 211.648 4.06396C211.881 3.6373 212.195 3.3073 212.588 3.07396C212.988 2.83396 213.428 2.71396 213.908 2.71396C214.341 2.71396 214.718 2.80063 215.038 2.97396C215.365 3.14063 215.625 3.35063 215.818 3.60396V2.80396H216.968V8.31396H215.818V7.49396C215.625 7.75396 215.361 7.97063 215.028 8.14396C214.695 8.3173 214.315 8.40396 213.888 8.40396C213.415 8.40396 212.981 8.28396 212.588 8.04396C212.195 7.7973 211.881 7.4573 211.648 7.02396C211.421 6.58396 211.308 6.0873 211.308 5.53396ZM215.818 5.55396C215.818 5.17396 215.738 4.84396 215.578 4.56396C215.425 4.28396 215.221 4.07063 214.968 3.92396C214.715 3.7773 214.441 3.70396 214.148 3.70396C213.855 3.70396 213.581 3.7773 213.328 3.92396C213.075 4.06396 212.868 4.27396 212.708 4.55396C212.555 4.8273 212.478 5.15396 212.478 5.53396C212.478 5.91396 212.555 6.2473 212.708 6.53396C212.868 6.82063 213.075 7.04063 213.328 7.19396C213.588 7.34063 213.861 7.41396 214.148 7.41396C214.441 7.41396 214.715 7.34063 214.968 7.19396C215.221 7.0473 215.425 6.83396 215.578 6.55396C215.738 6.2673 215.818 5.93396 215.818 5.55396ZM219.795 3.73396V6.78396C219.795 6.99063 219.842 7.14063 219.935 7.23396C220.035 7.32063 220.202 7.36396 220.435 7.36396H221.135V8.31396H220.235C219.722 8.31396 219.329 8.19396 219.055 7.95396C218.782 7.71396 218.645 7.32396 218.645 6.78396V3.73396H217.995V2.80396H218.645V1.43396H219.795V2.80396H221.135V3.73396H219.795ZM222.766 2.07396C222.559 2.07396 222.386 2.00396 222.246 1.86396C222.106 1.72396 222.036 1.55063 222.036 1.34396C222.036 1.1373 222.106 0.963965 222.246 0.823965C222.386 0.683965 222.559 0.613964 222.766 0.613964C222.966 0.613964 223.136 0.683965 223.276 0.823965C223.416 0.963965 223.486 1.1373 223.486 1.34396C223.486 1.55063 223.416 1.72396 223.276 1.86396C223.136 2.00396 222.966 2.07396 222.766 2.07396ZM223.326 2.80396V8.31396H222.186V2.80396H223.326ZM227.603 2.71396C228.036 2.71396 228.423 2.80396 228.763 2.98396C229.109 3.16396 229.379 3.43063 229.573 3.78396C229.766 4.1373 229.863 4.56396 229.863 5.06396V8.31396H228.733V5.23396C228.733 4.74063 228.609 4.36396 228.363 4.10396C228.116 3.8373 227.779 3.70396 227.353 3.70396C226.926 3.70396 226.586 3.8373 226.333 4.10396C226.086 4.36396 225.963 4.74063 225.963 5.23396V8.31396H224.823V2.80396H225.963V3.43396C226.149 3.2073 226.386 3.03063 226.673 2.90396C226.966 2.7773 227.276 2.71396 227.603 2.71396ZM233.537 2.71396C233.964 2.71396 234.34 2.80063 234.667 2.97396C235 3.14063 235.26 3.35063 235.447 3.60396V2.80396H236.597V8.40396C236.597 8.91063 236.49 9.36063 236.277 9.75396C236.064 10.154 235.754 10.4673 235.347 10.694C234.947 10.9206 234.467 11.034 233.907 11.034C233.16 11.034 232.54 10.8573 232.047 10.504C231.554 10.1573 231.274 9.68396 231.207 9.08396H232.337C232.424 9.37063 232.607 9.60063 232.887 9.77396C233.174 9.95396 233.514 10.044 233.907 10.044C234.367 10.044 234.737 9.90396 235.017 9.62396C235.304 9.34396 235.447 8.9373 235.447 8.40396V7.48396C235.254 7.74396 234.99 7.96396 234.657 8.14396C234.33 8.3173 233.957 8.40396 233.537 8.40396C233.057 8.40396 232.617 8.28396 232.217 8.04396C231.824 7.7973 231.51 7.4573 231.277 7.02396C231.05 6.58396 230.937 6.0873 230.937 5.53396C230.937 4.98063 231.05 4.49063 231.277 4.06396C231.51 3.6373 231.824 3.3073 232.217 3.07396C232.617 2.83396 233.057 2.71396 233.537 2.71396ZM235.447 5.55396C235.447 5.17396 235.367 4.84396 235.207 4.56396C235.054 4.28396 234.85 4.07063 234.597 3.92396C234.344 3.7773 234.07 3.70396 233.777 3.70396C233.484 3.70396 233.21 3.7773 232.957 3.92396C232.704 4.06396 232.497 4.27396 232.337 4.55396C232.184 4.8273 232.107 5.15396 232.107 5.53396C232.107 5.91396 232.184 6.2473 232.337 6.53396C232.497 6.82063 232.704 7.04063 232.957 7.19396C233.217 7.34063 233.49 7.41396 233.777 7.41396C234.07 7.41396 234.344 7.34063 234.597 7.19396C234.85 7.0473 235.054 6.83396 235.207 6.55396C235.367 6.2673 235.447 5.93396 235.447 5.55396ZM238.554 8.38396C238.348 8.38396 238.174 8.31396 238.034 8.17396C237.894 8.03396 237.824 7.86063 237.824 7.65396C237.824 7.4473 237.894 7.27396 238.034 7.13396C238.174 6.99396 238.348 6.92396 238.554 6.92396C238.754 6.92396 238.924 6.99396 239.064 7.13396C239.204 7.27396 239.274 7.4473 239.274 7.65396C239.274 7.86063 239.204 8.03396 239.064 8.17396C238.924 8.31396 238.754 8.38396 238.554 8.38396ZM238.554 4.18396C238.348 4.18396 238.174 4.11396 238.034 3.97396C237.894 3.83396 237.824 3.66063 237.824 3.45396C237.824 3.2473 237.894 3.07396 238.034 2.93396C238.174 2.79396 238.348 2.72396 238.554 2.72396C238.754 2.72396 238.924 2.79396 239.064 2.93396C239.204 3.07396 239.274 3.2473 239.274 3.45396C239.274 3.66063 239.204 3.83396 239.064 3.97396C238.924 4.11396 238.754 4.18396 238.554 4.18396ZM243.623 6.76396C244.263 6.21063 244.766 5.7573 245.133 5.40396C245.506 5.04396 245.816 4.67063 246.063 4.28396C246.31 3.8973 246.433 3.51063 246.433 3.12396C246.433 2.72396 246.336 2.41063 246.143 2.18396C245.956 1.9573 245.66 1.84396 245.253 1.84396C244.86 1.84396 244.553 1.97063 244.333 2.22396C244.12 2.47063 244.006 2.80396 243.993 3.22396H242.893C242.913 2.46396 243.14 1.88396 243.573 1.48396C244.013 1.0773 244.57 0.873965 245.243 0.873965C245.97 0.873965 246.536 1.07396 246.943 1.47396C247.356 1.87396 247.563 2.4073 247.563 3.07396C247.563 3.55396 247.44 4.0173 247.193 4.46396C246.953 4.90396 246.663 5.30063 246.323 5.65396C245.99 6.00063 245.563 6.40396 245.043 6.86396L244.593 7.26396H247.763V8.21396H242.903V7.38396L243.623 6.76396ZM253.385 1.90396L250.605 8.31396H249.455L252.265 2.02396H248.565V1.05396H253.385V1.90396Z" fill="#555555"/>
<path d="M6.8008 32.242H2.7808V34.63C2.9488 34.406 3.1968 34.218 3.5248 34.066C3.8608 33.914 4.2168 33.838 4.5928 33.838C5.2648 33.838 5.8088 33.982 6.2248 34.27C6.6488 34.558 6.9488 34.922 7.1248 35.362C7.3088 35.802 7.4008 36.266 7.4008 36.754C7.4008 37.346 7.2848 37.874 7.0528 38.338C6.8288 38.794 6.4888 39.154 6.0328 39.418C5.5848 39.682 5.0328 39.814 4.3768 39.814C3.5048 39.814 2.8048 39.598 2.2768 39.166C1.7488 38.734 1.4328 38.162 1.3288 37.45H2.6608C2.7488 37.826 2.9448 38.126 3.2488 38.35C3.5528 38.566 3.9328 38.674 4.3888 38.674C4.9568 38.674 5.3808 38.502 5.6608 38.158C5.9488 37.814 6.0928 37.358 6.0928 36.79C6.0928 36.214 5.9488 35.774 5.6608 35.47C5.3728 35.158 4.9488 35.002 4.3888 35.002C3.9968 35.002 3.6648 35.102 3.3928 35.302C3.1288 35.494 2.9368 35.758 2.8168 36.094H1.5208V31.042H6.8008V32.242ZM14.87 39.898C14.31 39.898 13.806 39.802 13.358 39.61C12.91 39.41 12.558 39.13 12.302 38.77C12.046 38.41 11.918 37.99 11.918 37.51H13.382C13.414 37.87 13.554 38.166 13.802 38.398C14.058 38.63 14.414 38.746 14.87 38.746C15.342 38.746 15.71 38.634 15.974 38.41C16.238 38.178 16.37 37.882 16.37 37.522C16.37 37.242 16.286 37.014 16.118 36.838C15.958 36.662 15.754 36.526 15.506 36.43C15.266 36.334 14.93 36.23 14.498 36.118C13.954 35.974 13.51 35.83 13.166 35.686C12.83 35.534 12.542 35.302 12.302 34.99C12.062 34.678 11.942 34.262 11.942 33.742C11.942 33.262 12.062 32.842 12.302 32.482C12.542 32.122 12.878 31.846 13.31 31.654C13.742 31.462 14.242 31.366 14.81 31.366C15.618 31.366 16.278 31.57 16.79 31.978C17.31 32.378 17.598 32.93 17.654 33.634H16.142C16.118 33.33 15.974 33.07 15.71 32.854C15.446 32.638 15.098 32.53 14.666 32.53C14.274 32.53 13.954 32.63 13.706 32.83C13.458 33.03 13.334 33.318 13.334 33.694C13.334 33.95 13.41 34.162 13.562 34.33C13.722 34.49 13.922 34.618 14.162 34.714C14.402 34.81 14.73 34.914 15.146 35.026C15.698 35.178 16.146 35.33 16.49 35.482C16.842 35.634 17.138 35.87 17.378 36.19C17.626 36.502 17.75 36.922 17.75 37.45C17.75 37.874 17.634 38.274 17.402 38.65C17.178 39.026 16.846 39.33 16.406 39.562C15.974 39.786 15.462 39.898 14.87 39.898ZM20.9602 34.318V37.978C20.9602 38.226 21.0162 38.406 21.1282 38.518C21.2482 38.622 21.4482 38.674 21.7282 38.674H22.5682V39.814H21.4882C20.8722 39.814 20.4002 39.67 20.0722 39.382C19.7442 39.094 19.5802 38.626 19.5802 37.978V34.318H18.8002V33.202H19.5802V31.558H20.9602V33.202H22.5682V34.318H20.9602ZM23.3731 36.478C23.3731 35.814 23.5091 35.226 23.7811 34.714C24.0611 34.202 24.4371 33.806 24.9091 33.526C25.3891 33.238 25.9171 33.094 26.4931 33.094C27.0131 33.094 27.4651 33.198 27.8491 33.406C28.2411 33.606 28.5531 33.858 28.7851 34.162V33.202H30.1651V39.814H28.7851V38.83C28.5531 39.142 28.2371 39.402 27.8371 39.61C27.4371 39.818 26.9811 39.922 26.4691 39.922C25.9011 39.922 25.3811 39.778 24.9091 39.49C24.4371 39.194 24.0611 38.786 23.7811 38.266C23.5091 37.738 23.3731 37.142 23.3731 36.478ZM28.7851 36.502C28.7851 36.046 28.6891 35.65 28.4971 35.314C28.3131 34.978 28.0691 34.722 27.7651 34.546C27.4611 34.37 27.1331 34.282 26.7811 34.282C26.4291 34.282 26.1011 34.37 25.7971 34.546C25.4931 34.714 25.2451 34.966 25.0531 35.302C24.8691 35.63 24.7771 36.022 24.7771 36.478C24.7771 36.934 24.8691 37.334 25.0531 37.678C25.2451 38.022 25.4931 38.286 25.7971 38.47C26.1091 38.646 26.4371 38.734 26.7811 38.734C27.1331 38.734 27.4611 38.646 27.7651 38.47C28.0691 38.294 28.3131 38.038 28.4971 37.702C28.6891 37.358 28.7851 36.958 28.7851 36.502ZM33.3299 34.162C33.5299 33.826 33.7939 33.566 34.1219 33.382C34.4579 33.19 34.8539 33.094 35.3099 33.094V34.51H34.9619C34.4259 34.51 34.0179 34.646 33.7379 34.918C33.4659 35.19 33.3299 35.662 33.3299 36.334V39.814H31.9619V33.202H33.3299V34.162Z" fill="#555555"/>
<path d="M239.599 32.314V31.066H242.095V39.814H240.715V32.314H239.599ZM243.974 35.326C243.974 33.942 244.206 32.862 244.67 32.086C245.142 31.302 245.95 30.91 247.094 30.91C248.238 30.91 249.042 31.302 249.506 32.086C249.978 32.862 250.214 33.942 250.214 35.326C250.214 36.726 249.978 37.822 249.506 38.614C249.042 39.398 248.238 39.79 247.094 39.79C245.95 39.79 245.142 39.398 244.67 38.614C244.206 37.822 243.974 36.726 243.974 35.326ZM248.87 35.326C248.87 34.678 248.826 34.13 248.738 33.682C248.658 33.234 248.49 32.87 248.234 32.59C247.978 32.302 247.598 32.158 247.094 32.158C246.59 32.158 246.21 32.302 245.954 32.59C245.698 32.87 245.526 33.234 245.438 33.682C245.358 34.13 245.318 34.678 245.318 35.326C245.318 35.998 245.358 36.562 245.438 37.018C245.518 37.474 245.686 37.842 245.942 38.122C246.206 38.402 246.59 38.542 247.094 38.542C247.598 38.542 247.978 38.402 248.234 38.122C248.498 37.842 248.67 37.474 248.75 37.018C248.83 36.562 248.87 35.998 248.87 35.326Z" fill="#555555"/>
<path d="M65.9153 28.1774C65.9886 28.0287 66.2006 28.0287 66.274 28.1774L68.2523 32.1859C68.2814 32.2449 68.3377 32.2858 68.4029 32.2953L72.8265 32.9381C72.9905 32.9619 73.056 33.1635 72.9373 33.2792L69.7364 36.3994C69.6892 36.4453 69.6677 36.5115 69.6788 36.5764L70.4345 40.9822C70.4625 41.1456 70.291 41.2702 70.1443 41.193L66.1877 39.1129C66.1294 39.0823 66.0598 39.0823 66.0015 39.1129L62.0449 41.193C61.8982 41.2702 61.7267 41.1456 61.7547 40.9822L62.5104 36.5764C62.5215 36.5115 62.5 36.4453 62.4529 36.3994L59.2519 33.2792C59.1332 33.1635 59.1987 32.9619 59.3627 32.9381L63.7864 32.2953C63.8515 32.2858 63.9078 32.2449 63.937 32.1859L65.9153 28.1774Z" fill="#F7941D"/>
<path d="M85.3723 28.1774C85.4457 28.0287 85.6576 28.0287 85.731 28.1774L87.7093 32.1859C87.7384 32.2449 87.7948 32.2858 87.8599 32.2953L92.2835 32.9381C92.4476 32.9619 92.5131 33.1635 92.3944 33.2792L89.1934 36.3994C89.1463 36.4453 89.1248 36.5115 89.1359 36.5764L89.8915 40.9822C89.9196 41.1456 89.7481 41.2702 89.6013 41.193L85.6447 39.1129C85.5864 39.0823 85.5168 39.0823 85.4586 39.1129L81.5019 41.193C81.3552 41.2702 81.1837 41.1456 81.2118 40.9822L81.9674 36.5764C81.9785 36.5115 81.957 36.4453 81.9099 36.3994L78.7089 33.2792C78.5902 33.1635 78.6557 32.9619 78.8198 32.9381L83.2434 32.2953C83.3085 32.2858 83.3649 32.2449 83.394 32.1859L85.3723 28.1774Z" fill="#F7941D"/>
<path d="M104.828 28.1774C104.902 28.0287 105.114 28.0287 105.187 28.1774L107.165 32.1859C107.194 32.2449 107.251 32.2858 107.316 32.2953L111.74 32.9381C111.904 32.9619 111.969 33.1635 111.85 33.2792L108.649 36.3994C108.602 36.4453 108.581 36.5115 108.592 36.5764L109.348 40.9822C109.376 41.1456 109.204 41.2702 109.057 41.193L105.101 39.1129C105.043 39.0823 104.973 39.0823 104.915 39.1129L100.958 41.193C100.811 41.2702 100.64 41.1456 100.668 40.9822L101.423 36.5764C101.435 36.5115 101.413 36.4453 101.366 36.3994L98.165 33.2792C98.0463 33.1635 98.1118 32.9619 98.2758 32.9381L102.699 32.2953C102.765 32.2858 102.821 32.2449 102.85 32.1859L104.828 28.1774Z" fill="#F7941D"/>
<path d="M124.286 28.1774C124.359 28.0287 124.571 28.0287 124.644 28.1774L126.623 32.1859C126.652 32.2449 126.708 32.2858 126.773 32.2953L131.197 32.9381C131.361 32.9619 131.426 33.1635 131.308 33.2792L128.107 36.3994C128.059 36.4453 128.038 36.5115 128.049 36.5764L128.805 40.9822C128.833 41.1456 128.661 41.2702 128.515 41.193L124.558 39.1129C124.5 39.0823 124.43 39.0823 124.372 39.1129L120.415 41.193C120.268 41.2702 120.097 41.1456 120.125 40.9822L120.881 36.5764C120.892 36.5115 120.87 36.4453 120.823 36.3994L117.622 33.2792C117.503 33.1635 117.569 32.9619 117.733 32.9381L122.157 32.2953C122.222 32.2858 122.278 32.2449 122.307 32.1859L124.286 28.1774Z" fill="#F7941D"/>
<path d="M143.742 28.1774C143.816 28.0287 144.028 28.0287 144.101 28.1774L146.079 32.1859C146.108 32.2449 146.165 32.2858 146.23 32.2953L150.654 32.9381C150.818 32.9619 150.883 33.1635 150.764 33.2792L147.563 36.3994C147.516 36.4453 147.495 36.5115 147.506 36.5764L148.262 40.9822C148.29 41.1456 148.118 41.2702 147.971 41.193L144.015 39.1129C143.956 39.0823 143.887 39.0823 143.829 39.1129L139.872 41.193C139.725 41.2702 139.554 41.1456 139.582 40.9822L140.337 36.5764C140.349 36.5115 140.327 36.4453 140.28 36.3994L137.079 33.2792C136.96 33.1635 137.026 32.9619 137.19 32.9381L141.613 32.2953C141.679 32.2858 141.735 32.2449 141.764 32.1859L143.742 28.1774Z" fill="#F7941D"/>
<line x1="163.104" y1="35.4307" x2="229.485" y2="35.4307" stroke="#E6E6E6" stroke-width="4" stroke-linecap="round"/>
<path d="M0.992796 78.99V77.958L5.0248 72.174H6.6808V77.802H7.7968V78.99H6.6808V80.814H5.3368V78.99H0.992796ZM5.3968 73.566L2.5648 77.802H5.3968V73.566ZM14.9755 80.898C14.4155 80.898 13.9115 80.802 13.4635 80.61C13.0155 80.41 12.6635 80.13 12.4075 79.77C12.1515 79.41 12.0235 78.99 12.0235 78.51H13.4875C13.5195 78.87 13.6595 79.166 13.9075 79.398C14.1635 79.63 14.5195 79.746 14.9755 79.746C15.4475 79.746 15.8155 79.634 16.0795 79.41C16.3435 79.178 16.4755 78.882 16.4755 78.522C16.4755 78.242 16.3915 78.014 16.2235 77.838C16.0635 77.662 15.8595 77.526 15.6115 77.43C15.3715 77.334 15.0355 77.23 14.6035 77.118C14.0595 76.974 13.6155 76.83 13.2715 76.686C12.9355 76.534 12.6475 76.302 12.4075 75.99C12.1675 75.678 12.0475 75.262 12.0475 74.742C12.0475 74.262 12.1675 73.842 12.4075 73.482C12.6475 73.122 12.9835 72.846 13.4155 72.654C13.8475 72.462 14.3475 72.366 14.9155 72.366C15.7235 72.366 16.3835 72.57 16.8955 72.978C17.4155 73.378 17.7035 73.93 17.7595 74.634H16.2475C16.2235 74.33 16.0795 74.07 15.8155 73.854C15.5515 73.638 15.2035 73.53 14.7715 73.53C14.3795 73.53 14.0595 73.63 13.8115 73.83C13.5635 74.03 13.4395 74.318 13.4395 74.694C13.4395 74.95 13.5155 75.162 13.6675 75.33C13.8275 75.49 14.0275 75.618 14.2675 75.714C14.5075 75.81 14.8355 75.914 15.2515 76.026C15.8035 76.178 16.2515 76.33 16.5955 76.482C16.9475 76.634 17.2435 76.87 17.4835 77.19C17.7315 77.502 17.8555 77.922 17.8555 78.45C17.8555 78.874 17.7395 79.274 17.5075 79.65C17.2835 80.026 16.9515 80.33 16.5115 80.562C16.0795 80.786 15.5675 80.898 14.9755 80.898ZM21.0657 75.318V78.978C21.0657 79.226 21.1217 79.406 21.2337 79.518C21.3537 79.622 21.5537 79.674 21.8337 79.674H22.6737V80.814H21.5937C20.9777 80.814 20.5057 80.67 20.1777 80.382C19.8497 80.094 19.6857 79.626 19.6857 78.978V75.318H18.9057V74.202H19.6857V72.558H21.0657V74.202H22.6737V75.318H21.0657ZM23.4785 77.478C23.4785 76.814 23.6145 76.226 23.8865 75.714C24.1665 75.202 24.5425 74.806 25.0145 74.526C25.4945 74.238 26.0225 74.094 26.5985 74.094C27.1185 74.094 27.5705 74.198 27.9545 74.406C28.3465 74.606 28.6585 74.858 28.8905 75.162V74.202H30.2705V80.814H28.8905V79.83C28.6585 80.142 28.3425 80.402 27.9425 80.61C27.5425 80.818 27.0865 80.922 26.5745 80.922C26.0065 80.922 25.4865 80.778 25.0145 80.49C24.5425 80.194 24.1665 79.786 23.8865 79.266C23.6145 78.738 23.4785 78.142 23.4785 77.478ZM28.8905 77.502C28.8905 77.046 28.7945 76.65 28.6025 76.314C28.4185 75.978 28.1745 75.722 27.8705 75.546C27.5665 75.37 27.2385 75.282 26.8865 75.282C26.5345 75.282 26.2065 75.37 25.9025 75.546C25.5985 75.714 25.3505 75.966 25.1585 76.302C24.9745 76.63 24.8825 77.022 24.8825 77.478C24.8825 77.934 24.9745 78.334 25.1585 78.678C25.3505 79.022 25.5985 79.286 25.9025 79.47C26.2145 79.646 26.5425 79.734 26.8865 79.734C27.2385 79.734 27.5665 79.646 27.8705 79.47C28.1745 79.294 28.4185 79.038 28.6025 78.702C28.7945 78.358 28.8905 77.958 28.8905 77.502ZM33.4354 75.162C33.6354 74.826 33.8994 74.566 34.2274 74.382C34.5634 74.19 34.9594 74.094 35.4154 74.094V75.51H35.0674C34.5314 75.51 34.1234 75.646 33.8434 75.918C33.5714 76.19 33.4354 76.662 33.4354 77.334V80.814H32.0674V74.202H33.4354V75.162Z" fill="#555555"/>
<path d="M239.779 76.326C239.779 74.942 240.011 73.862 240.475 73.086C240.947 72.302 241.755 71.91 242.899 71.91C244.043 71.91 244.847 72.302 245.311 73.086C245.783 73.862 246.019 74.942 246.019 76.326C246.019 77.726 245.783 78.822 245.311 79.614C244.847 80.398 244.043 80.79 242.899 80.79C241.755 80.79 240.947 80.398 240.475 79.614C240.011 78.822 239.779 77.726 239.779 76.326ZM244.675 76.326C244.675 75.678 244.631 75.13 244.543 74.682C244.463 74.234 244.295 73.87 244.039 73.59C243.783 73.302 243.403 73.158 242.899 73.158C242.395 73.158 242.015 73.302 241.759 73.59C241.503 73.87 241.331 74.234 241.243 74.682C241.163 75.13 241.123 75.678 241.123 76.326C241.123 76.998 241.163 77.562 241.243 78.018C241.323 78.474 241.491 78.842 241.747 79.122C242.011 79.402 242.395 79.542 242.899 79.542C243.403 79.542 243.783 79.402 244.039 79.122C244.303 78.842 244.475 78.474 244.555 78.018C244.635 77.562 244.675 76.998 244.675 76.326ZM253.107 73.242H249.087V75.63C249.255 75.406 249.503 75.218 249.831 75.066C250.167 74.914 250.523 74.838 250.899 74.838C251.571 74.838 252.115 74.982 252.531 75.27C252.955 75.558 253.255 75.922 253.431 76.362C253.615 76.802 253.707 77.266 253.707 77.754C253.707 78.346 253.591 78.874 253.359 79.338C253.135 79.794 252.795 80.154 252.339 80.418C251.891 80.682 251.339 80.814 250.683 80.814C249.811 80.814 249.111 80.598 248.583 80.166C248.055 79.734 247.739 79.162 247.635 78.45H248.967C249.055 78.826 249.251 79.126 249.555 79.35C249.859 79.566 250.239 79.674 250.695 79.674C251.263 79.674 251.687 79.502 251.967 79.158C252.255 78.814 252.399 78.358 252.399 77.79C252.399 77.214 252.255 76.774 251.967 76.47C251.679 76.158 251.255 76.002 250.695 76.002C250.303 76.002 249.971 76.102 249.699 76.302C249.435 76.494 249.243 76.758 249.123 77.094H247.827V72.042H253.107V73.242Z" fill="#555555"/>
<path d="M65.9153 69.1774C65.9886 69.0287 66.2006 69.0287 66.274 69.1774L68.2523 73.1859C68.2814 73.2449 68.3377 73.2858 68.4029 73.2953L72.8265 73.9381C72.9905 73.9619 73.056 74.1635 72.9373 74.2792L69.7364 77.3994C69.6892 77.4453 69.6677 77.5115 69.6788 77.5764L70.4345 81.9822C70.4625 82.1456 70.291 82.2702 70.1443 82.193L66.1877 80.1129C66.1294 80.0823 66.0598 80.0823 66.0015 80.1129L62.0449 82.193C61.8982 82.2702 61.7267 82.1456 61.7547 81.9822L62.5104 77.5764C62.5215 77.5115 62.5 77.4453 62.4529 77.3994L59.2519 74.2792C59.1332 74.1635 59.1987 73.9619 59.3627 73.9381L63.7864 73.2953C63.8515 73.2858 63.9078 73.2449 63.937 73.1859L65.9153 69.1774Z" fill="#F7941D"/>
<path d="M85.3723 69.1774C85.4457 69.0287 85.6576 69.0287 85.731 69.1774L87.7093 73.1859C87.7384 73.2449 87.7948 73.2858 87.8599 73.2953L92.2835 73.9381C92.4476 73.9619 92.5131 74.1635 92.3944 74.2792L89.1934 77.3994C89.1463 77.4453 89.1248 77.5115 89.1359 77.5764L89.8915 81.9822C89.9196 82.1456 89.7481 82.2702 89.6013 82.193L85.6447 80.1129C85.5864 80.0823 85.5168 80.0823 85.4586 80.1129L81.5019 82.193C81.3552 82.2702 81.1837 82.1456 81.2118 81.9822L81.9674 77.5764C81.9785 77.5115 81.957 77.4453 81.9099 77.3994L78.7089 74.2792C78.5902 74.1635 78.6557 73.9619 78.8198 73.9381L83.2434 73.2953C83.3085 73.2858 83.3649 73.2449 83.394 73.1859L85.3723 69.1774Z" fill="#F7941D"/>
<path d="M104.828 69.1774C104.902 69.0287 105.114 69.0287 105.187 69.1774L107.165 73.1859C107.194 73.2449 107.251 73.2858 107.316 73.2953L111.74 73.9381C111.904 73.9619 111.969 74.1635 111.85 74.2792L108.649 77.3994C108.602 77.4453 108.581 77.5115 108.592 77.5764L109.348 81.9822C109.376 82.1456 109.204 82.2702 109.057 82.193L105.101 80.1129C105.043 80.0823 104.973 80.0823 104.915 80.1129L100.958 82.193C100.811 82.2702 100.64 82.1456 100.668 81.9822L101.423 77.5764C101.435 77.5115 101.413 77.4453 101.366 77.3994L98.165 74.2792C98.0463 74.1635 98.1118 73.9619 98.2758 73.9381L102.699 73.2953C102.765 73.2858 102.821 73.2449 102.85 73.1859L104.828 69.1774Z" fill="#F7941D"/>
<path d="M124.286 69.1774C124.359 69.0287 124.571 69.0287 124.644 69.1774L126.623 73.1859C126.652 73.2449 126.708 73.2858 126.773 73.2953L131.197 73.9381C131.361 73.9619 131.426 74.1635 131.308 74.2792L128.107 77.3994C128.059 77.4453 128.038 77.5115 128.049 77.5764L128.805 81.9822C128.833 82.1456 128.661 82.2702 128.515 82.193L124.558 80.1129C124.5 80.0823 124.43 80.0823 124.372 80.1129L120.415 82.193C120.268 82.2702 120.097 82.1456 120.125 81.9822L120.881 77.5764C120.892 77.5115 120.87 77.4453 120.823 77.3994L117.622 74.2792C117.503 74.1635 117.569 73.9619 117.733 73.9381L122.157 73.2953C122.222 73.2858 122.278 73.2449 122.307 73.1859L124.286 69.1774Z" fill="#F7941D"/>
<path d="M143.742 69.1774C143.816 69.0287 144.028 69.0287 144.101 69.1774L146.079 73.1859C146.108 73.2449 146.165 73.2858 146.23 73.2953L150.654 73.9381C150.818 73.9619 150.883 74.1635 150.764 74.2792L147.563 77.3994C147.516 77.4453 147.495 77.5115 147.506 77.5764L148.262 81.9822C148.29 82.1456 148.118 82.2702 147.971 82.193L144.015 80.1129C143.956 80.0823 143.887 80.0823 143.829 80.1129L139.872 82.193C139.725 82.2702 139.554 82.1456 139.582 81.9822L140.337 77.5764C140.349 77.5115 140.327 77.4453 140.28 77.3994L137.079 74.2792C136.96 74.1635 137.026 73.9619 137.19 73.9381L141.613 73.2953C141.679 73.2858 141.735 73.2449 141.764 73.1859L143.742 69.1774Z" fill="#BFBFBF"/>
<line x1="163.104" y1="76.4307" x2="229.485" y2="76.4307" stroke="#E6E6E6" stroke-width="4" stroke-linecap="round"/>
<path d="M1.1368 115.226C1.1848 114.482 1.4688 113.902 1.9888 113.486C2.5168 113.07 3.1888 112.862 4.0048 112.862C4.5648 112.862 5.0488 112.962 5.4568 113.162C5.8648 113.362 6.1728 113.634 6.3808 113.978C6.5888 114.322 6.6928 114.71 6.6928 115.142C6.6928 115.638 6.5608 116.062 6.2968 116.414C6.0328 116.766 5.7168 117.002 5.3488 117.122V117.17C5.8208 117.314 6.1888 117.578 6.4528 117.962C6.7168 118.338 6.8488 118.822 6.8488 119.414C6.8488 119.886 6.7408 120.306 6.5248 120.674C6.3088 121.042 5.9888 121.334 5.5648 121.55C5.1408 121.758 4.6328 121.862 4.0408 121.862C3.1768 121.862 2.4648 121.642 1.9048 121.202C1.3528 120.754 1.0568 120.114 1.0168 119.282H2.3368C2.3688 119.706 2.5328 120.054 2.8288 120.326C3.1248 120.59 3.5248 120.722 4.0288 120.722C4.5168 120.722 4.8928 120.59 5.1568 120.326C5.4208 120.054 5.5528 119.706 5.5528 119.282C5.5528 118.722 5.3728 118.326 5.0128 118.094C4.6608 117.854 4.1168 117.734 3.3808 117.734H3.0688V116.606H3.3928C4.0408 116.598 4.5328 116.49 4.8688 116.282C5.2128 116.074 5.3848 115.746 5.3848 115.298C5.3848 114.914 5.2608 114.61 5.0128 114.386C4.7648 114.154 4.4128 114.038 3.9568 114.038C3.5088 114.038 3.1608 114.154 2.9128 114.386C2.6648 114.61 2.5168 114.89 2.4688 115.226H1.1368ZM14.331 121.898C13.771 121.898 13.267 121.802 12.819 121.61C12.371 121.41 12.019 121.13 11.763 120.77C11.507 120.41 11.379 119.99 11.379 119.51H12.843C12.875 119.87 13.015 120.166 13.263 120.398C13.519 120.63 13.875 120.746 14.331 120.746C14.803 120.746 15.171 120.634 15.435 120.41C15.699 120.178 15.831 119.882 15.831 119.522C15.831 119.242 15.747 119.014 15.579 118.838C15.419 118.662 15.215 118.526 14.967 118.43C14.727 118.334 14.391 118.23 13.959 118.118C13.415 117.974 12.971 117.83 12.627 117.686C12.291 117.534 12.003 117.302 11.763 116.99C11.523 116.678 11.403 116.262 11.403 115.742C11.403 115.262 11.523 114.842 11.763 114.482C12.003 114.122 12.339 113.846 12.771 113.654C13.203 113.462 13.703 113.366 14.271 113.366C15.079 113.366 15.739 113.57 16.251 113.978C16.771 114.378 17.059 114.93 17.115 115.634H15.603C15.579 115.33 15.435 115.07 15.171 114.854C14.907 114.638 14.559 114.53 14.127 114.53C13.735 114.53 13.415 114.63 13.167 114.83C12.919 115.03 12.795 115.318 12.795 115.694C12.795 115.95 12.871 116.162 13.023 116.33C13.183 116.49 13.383 116.618 13.623 116.714C13.863 116.81 14.191 116.914 14.607 117.026C15.159 117.178 15.607 117.33 15.951 117.482C16.303 117.634 16.599 117.87 16.839 118.19C17.087 118.502 17.211 118.922 17.211 119.45C17.211 119.874 17.095 120.274 16.863 120.65C16.639 121.026 16.307 121.33 15.867 121.562C15.435 121.786 14.923 121.898 14.331 121.898ZM20.4212 116.318V119.978C20.4212 120.226 20.4772 120.406 20.5892 120.518C20.7092 120.622 20.9092 120.674 21.1892 120.674H22.0292V121.814H20.9492C20.3332 121.814 19.8612 121.67 19.5332 121.382C19.2052 121.094 19.0412 120.626 19.0412 119.978V116.318H18.2612V115.202H19.0412V113.558H20.4212V115.202H22.0292V116.318H20.4212ZM22.834 118.478C22.834 117.814 22.97 117.226 23.242 116.714C23.522 116.202 23.898 115.806 24.37 115.526C24.85 115.238 25.378 115.094 25.954 115.094C26.474 115.094 26.926 115.198 27.31 115.406C27.702 115.606 28.014 115.858 28.246 116.162V115.202H29.626V121.814H28.246V120.83C28.014 121.142 27.698 121.402 27.298 121.61C26.898 121.818 26.442 121.922 25.93 121.922C25.362 121.922 24.842 121.778 24.37 121.49C23.898 121.194 23.522 120.786 23.242 120.266C22.97 119.738 22.834 119.142 22.834 118.478ZM28.246 118.502C28.246 118.046 28.15 117.65 27.958 117.314C27.774 116.978 27.53 116.722 27.226 116.546C26.922 116.37 26.594 116.282 26.242 116.282C25.89 116.282 25.562 116.37 25.258 116.546C24.954 116.714 24.706 116.966 24.514 117.302C24.33 117.63 24.238 118.022 24.238 118.478C24.238 118.934 24.33 119.334 24.514 119.678C24.706 120.022 24.954 120.286 25.258 120.47C25.57 120.646 25.898 120.734 26.242 120.734C26.594 120.734 26.922 120.646 27.226 120.47C27.53 120.294 27.774 120.038 27.958 119.702C28.15 119.358 28.246 118.958 28.246 118.502ZM32.7908 116.162C32.9908 115.826 33.2548 115.566 33.5828 115.382C33.9188 115.19 34.3148 115.094 34.7708 115.094V116.51H34.4228C33.8868 116.51 33.4788 116.646 33.1988 116.918C32.9268 117.19 32.7908 117.662 32.7908 118.334V121.814H31.4228V115.202H32.7908V116.162Z" fill="#555555"/>
<path d="M239.779 117.326C239.779 115.942 240.011 114.862 240.475 114.086C240.947 113.302 241.755 112.91 242.899 112.91C244.043 112.91 244.847 113.302 245.311 114.086C245.783 114.862 246.019 115.942 246.019 117.326C246.019 118.726 245.783 119.822 245.311 120.614C244.847 121.398 244.043 121.79 242.899 121.79C241.755 121.79 240.947 121.398 240.475 120.614C240.011 119.822 239.779 118.726 239.779 117.326ZM244.675 117.326C244.675 116.678 244.631 116.13 244.543 115.682C244.463 115.234 244.295 114.87 244.039 114.59C243.783 114.302 243.403 114.158 242.899 114.158C242.395 114.158 242.015 114.302 241.759 114.59C241.503 114.87 241.331 115.234 241.243 115.682C241.163 116.13 241.123 116.678 241.123 117.326C241.123 117.998 241.163 118.562 241.243 119.018C241.323 119.474 241.491 119.842 241.747 120.122C242.011 120.402 242.395 120.542 242.899 120.542C243.403 120.542 243.783 120.402 244.039 120.122C244.303 119.842 244.475 119.474 244.555 119.018C244.635 118.562 244.675 117.998 244.675 117.326ZM247.299 119.99V118.958L251.331 113.174H252.987V118.802H254.103V119.99H252.987V121.814H251.643V119.99H247.299ZM251.703 114.566L248.871 118.802H251.703V114.566Z" fill="#555555"/>
<path d="M65.9153 110.177C65.9886 110.029 66.2006 110.029 66.274 110.177L68.2523 114.186C68.2814 114.245 68.3377 114.286 68.4029 114.295L72.8265 114.938C72.9905 114.962 73.056 115.163 72.9373 115.279L69.7364 118.399C69.6892 118.445 69.6677 118.512 69.6788 118.576L70.4345 122.982C70.4625 123.146 70.291 123.27 70.1443 123.193L66.1877 121.113C66.1294 121.082 66.0598 121.082 66.0015 121.113L62.0449 123.193C61.8982 123.27 61.7267 123.146 61.7547 122.982L62.5104 118.576C62.5215 118.512 62.5 118.445 62.4529 118.399L59.2519 115.279C59.1332 115.163 59.1987 114.962 59.3627 114.938L63.7864 114.295C63.8515 114.286 63.9078 114.245 63.937 114.186L65.9153 110.177Z" fill="#F7941D"/>
<path d="M85.3723 110.177C85.4457 110.029 85.6576 110.029 85.731 110.177L87.7093 114.186C87.7384 114.245 87.7948 114.286 87.8599 114.295L92.2835 114.938C92.4476 114.962 92.5131 115.163 92.3944 115.279L89.1934 118.399C89.1463 118.445 89.1248 118.512 89.1359 118.576L89.8915 122.982C89.9196 123.146 89.7481 123.27 89.6013 123.193L85.6447 121.113C85.5864 121.082 85.5168 121.082 85.4586 121.113L81.5019 123.193C81.3552 123.27 81.1837 123.146 81.2118 122.982L81.9674 118.576C81.9785 118.512 81.957 118.445 81.9099 118.399L78.7089 115.279C78.5902 115.163 78.6557 114.962 78.8198 114.938L83.2434 114.295C83.3085 114.286 83.3649 114.245 83.394 114.186L85.3723 110.177Z" fill="#F7941D"/>
<path d="M104.828 110.177C104.902 110.029 105.114 110.029 105.187 110.177L107.165 114.186C107.194 114.245 107.251 114.286 107.316 114.295L111.74 114.938C111.904 114.962 111.969 115.163 111.85 115.279L108.649 118.399C108.602 118.445 108.581 118.512 108.592 118.576L109.348 122.982C109.376 123.146 109.204 123.27 109.057 123.193L105.101 121.113C105.043 121.082 104.973 121.082 104.915 121.113L100.958 123.193C100.811 123.27 100.64 123.146 100.668 122.982L101.423 118.576C101.435 118.512 101.413 118.445 101.366 118.399L98.165 115.279C98.0463 115.163 98.1118 114.962 98.2758 114.938L102.699 114.295C102.765 114.286 102.821 114.245 102.85 114.186L104.828 110.177Z" fill="#F7941D"/>
<path d="M124.286 110.177C124.359 110.029 124.571 110.029 124.644 110.177L126.623 114.186C126.652 114.245 126.708 114.286 126.773 114.295L131.197 114.938C131.361 114.962 131.426 115.163 131.308 115.279L128.107 118.399C128.059 118.445 128.038 118.512 128.049 118.576L128.805 122.982C128.833 123.146 128.661 123.27 128.515 123.193L124.558 121.113C124.5 121.082 124.43 121.082 124.372 121.113L120.415 123.193C120.268 123.27 120.097 123.146 120.125 122.982L120.881 118.576C120.892 118.512 120.87 118.445 120.823 118.399L117.622 115.279C117.503 115.163 117.569 114.962 117.733 114.938L122.157 114.295C122.222 114.286 122.278 114.245 122.307 114.186L124.286 110.177Z" fill="#BFBFBF"/>
<path d="M143.742 110.177C143.816 110.029 144.028 110.029 144.101 110.177L146.079 114.186C146.108 114.245 146.165 114.286 146.23 114.295L150.654 114.938C150.818 114.962 150.883 115.163 150.764 115.279L147.563 118.399C147.516 118.445 147.495 118.512 147.506 118.576L148.262 122.982C148.29 123.146 148.118 123.27 147.971 123.193L144.015 121.113C143.956 121.082 143.887 121.082 143.829 121.113L139.872 123.193C139.725 123.27 139.554 123.146 139.582 122.982L140.337 118.576C140.349 118.512 140.327 118.445 140.28 118.399L137.079 115.279C136.96 115.163 137.026 114.962 137.19 114.938L141.613 114.295C141.679 114.286 141.735 114.245 141.764 114.186L143.742 110.177Z" fill="#BFBFBF"/>
<line x1="163.104" y1="117.431" x2="229.485" y2="117.431" stroke="#E6E6E6" stroke-width="4" stroke-linecap="round"/>
</svg>
