<svg width="22" height="21" viewBox="0 0 22 21" fill="none" xmlns="http://www.w3.org/2000/svg">
<path d="M11.4086 12.8708C13.24 12.8708 14.7246 11.3936 14.7246 9.57139C14.7246 7.74917 13.24 6.27197 11.4086 6.27197C9.57722 6.27197 8.09259 7.74917 8.09259 9.57139C8.09259 11.3936 9.57722 12.8708 11.4086 12.8708Z" stroke="#F7941D" stroke-miterlimit="10"/>
<path d="M5.37946 19.6696V18.7697C5.37946 15.4703 8.09255 12.7708 11.4086 12.7708C14.7246 12.7708 17.4376 15.4703 17.4376 18.7697V19.6696" stroke="#F7941D" stroke-miterlimit="10"/>
<path d="M18.4425 19.6695H4.37466C2.66641 19.6695 1.36011 18.3697 1.36011 16.67V5.07207C1.36011 3.37237 2.66641 2.0726 4.37466 2.0726H10.3033L11.4086 0.672852L12.5139 2.0726H18.4425C20.1508 2.0726 21.4571 3.37237 21.4571 5.07207V16.67C21.4571 18.3697 20.1508 19.6695 18.4425 19.6695Z" stroke="#1296B0" stroke-miterlimit="10" stroke-linecap="round" stroke-linejoin="round"/>
</svg>
